<svg width="177" height="177" viewBox="0 0 177 177" fill="none" xmlns="http://www.w3.org/2000/svg">
<path d="M82.7803 16.7799C85.5691 12.8272 91.4309 12.8272 94.2197 16.7799L103.14 29.4224C106.923 34.7849 113.455 37.4907 119.922 36.3741L135.169 33.7418C139.936 32.9188 144.081 37.0637 143.258 41.8306L140.626 57.0776C139.509 63.5447 142.215 70.077 147.578 73.8605L160.22 82.7803C164.173 85.5691 164.173 91.4309 160.22 94.2197L147.578 103.14C142.215 106.923 139.509 113.455 140.626 119.922L143.258 135.169C144.081 139.936 139.936 144.081 135.169 143.258L119.922 140.626C113.455 139.509 106.923 142.215 103.14 147.578L94.2197 160.22C91.4309 164.173 85.5691 164.173 82.7803 160.22L73.8605 147.578C70.077 142.215 63.5447 139.509 57.0776 140.626L41.8306 143.258C37.0637 144.081 32.9188 139.936 33.7418 135.169L36.3741 119.922C37.4907 113.455 34.7849 106.923 29.4224 103.14L16.7799 94.2197C12.8272 91.4309 12.8272 85.5691 16.7799 82.7803L29.4224 73.8605C34.7849 70.077 37.4907 63.5447 36.3741 57.0776L33.7418 41.8306C32.9188 37.0637 37.0637 32.9188 41.8306 33.7418L57.0776 36.3741C63.5447 37.4907 70.077 34.7849 73.8605 29.4224L82.7803 16.7799Z" stroke="#1AFF8C" stroke-width="10"/>
<path d="M88.4998 48.9167C66.6894 48.9167 48.9165 66.6897 48.9165 88.5001C48.9165 110.311 66.6894 128.083 88.4998 128.083C110.31 128.083 128.083 110.311 128.083 88.5001C128.083 66.6897 110.31 48.9167 88.4998 48.9167ZM107.421 79.3959L84.9769 101.84C84.4228 102.394 83.6707 102.711 82.879 102.711C82.0873 102.711 81.3353 102.394 80.7811 101.84L69.579 90.6376C68.4311 89.4897 68.4311 87.5897 69.579 86.4417C70.7269 85.2938 72.6269 85.2938 73.7748 86.4417L82.879 95.5459L103.225 75.2001C104.373 74.0522 106.273 74.0522 107.421 75.2001C108.569 76.348 108.569 78.2084 107.421 79.3959Z" fill="#1AFF8C"/>
</svg>
