<svg width="50" height="16" viewBox="0 0 50 16" fill="none" xmlns="http://www.w3.org/2000/svg">
<g clip-path="url(#clip0_1_4646)">
<path d="M32.1691 0C28.6679 0 25.5244 1.82588 25.5244 5.17647C25.5244 9.03529 31.0773 9.29882 31.0773 11.2188C31.0773 12.0282 30.1362 12.7624 28.555 12.7624C26.2962 12.7624 24.6021 11.7459 24.6021 11.7459L23.8868 15.1341C23.8868 15.1341 25.8256 16 28.4232 16C32.2632 16 35.275 14.0988 35.275 10.6729C35.275 6.60706 29.7032 6.34353 29.7032 4.55529C29.7032 3.91529 30.475 3.21882 32.0562 3.21882C33.8444 3.21882 35.3126 3.95294 35.3126 3.95294L36.0279 0.677647C36.0091 0.677647 34.4091 0 32.1691 0ZM0.0938733 0.244706L-0.000244141 0.734118C-0.000244141 0.734118 1.46799 0.997647 2.80446 1.54353C4.51739 2.16471 4.63034 2.52235 4.93151 3.63294L8.07504 15.7365H12.2915L18.748 0.244706H14.5503L10.3903 10.7859L8.69621 1.84471C8.54562 0.828235 7.75504 0.244706 6.77621 0.244706H0.0938733ZM20.4421 0.244706L17.148 15.7365H21.1574L24.4327 0.244706H20.4421ZM42.7667 0.244706C41.8067 0.244706 41.2985 0.752941 40.922 1.65647L35.0491 15.7365H39.2467L40.0562 13.3835H45.1761L45.6656 15.7365H49.3738L46.155 0.244706H42.7667ZM43.3126 4.44235L44.555 10.2588H41.2232L43.3126 4.44235Z" fill="#1434CB"/>
</g>
<defs>
<clipPath id="clip0_1_4646">
<rect width="49.374" height="16" fill="white"/>
</clipPath>
</defs>
</svg>
