<svg width="54" height="22" viewBox="0 0 54 22" fill="none" xmlns="http://www.w3.org/2000/svg">
<path fill-rule="evenodd" clip-rule="evenodd" d="M53.8459 11.1316C53.8459 7.44985 51.9912 4.54468 48.4463 4.54468C44.8865 4.54468 42.7327 7.44985 42.7327 11.1029C42.7327 15.4319 45.2754 17.6179 48.925 17.6179C50.7049 17.6179 52.051 17.2296 53.0681 16.6831V13.8067C52.051 14.2957 50.8844 14.5977 49.4036 14.5977C47.9527 14.5977 46.6664 14.1087 46.5019 12.4116H53.816C53.816 12.2247 53.8459 11.4768 53.8459 11.1316ZM46.457 9.76535C46.457 8.14018 47.4891 7.46423 48.4314 7.46423C49.3438 7.46423 50.316 8.14018 50.316 9.76535H46.457Z" fill="#635BFF"/>
<path fill-rule="evenodd" clip-rule="evenodd" d="M36.9591 4.54468C35.4933 4.54468 34.551 5.20625 34.0275 5.66648L33.8331 4.77479H30.5425V21.5442L34.2818 20.782L34.2968 16.7119C34.8352 17.0858 35.6279 17.6179 36.9442 17.6179C39.6215 17.6179 42.0596 15.5469 42.0596 10.9878C42.0446 6.81704 39.5767 4.54468 36.9591 4.54468ZM36.0617 14.4539C35.1792 14.4539 34.6557 14.1519 34.2968 13.7779L34.2818 8.44221C34.6707 8.02513 35.2091 7.73749 36.0617 7.73749C37.4228 7.73749 38.3651 9.20445 38.3651 11.0885C38.3651 13.0157 37.4378 14.4539 36.0617 14.4539Z" fill="#635BFF"/>
<path fill-rule="evenodd" clip-rule="evenodd" d="M25.3972 3.69618L29.1515 2.91955V0L25.3972 0.762247V3.69618Z" fill="#635BFF"/>
<path d="M29.1515 4.78918H25.3972V17.3735H29.1515V4.78918Z" fill="#635BFF"/>
<path fill-rule="evenodd" clip-rule="evenodd" d="M21.3736 5.85343L21.1343 4.78916H17.9036V17.3734H21.6429V8.84489C22.5254 7.73748 24.0211 7.93883 24.4848 8.09703V4.78916C24.0061 4.61658 22.2561 4.30017 21.3736 5.85343Z" fill="#635BFF"/>
<path fill-rule="evenodd" clip-rule="evenodd" d="M13.895 1.66833L10.2454 2.4162L10.2305 13.9362C10.2305 16.0647 11.8907 17.6324 14.1044 17.6324C15.3309 17.6324 16.2283 17.4167 16.7219 17.1578V14.2382C16.2433 14.4252 13.88 15.0868 13.88 12.9582V7.8526H16.7219V4.78923H13.88L13.895 1.66833Z" fill="#635BFF"/>
<path fill-rule="evenodd" clip-rule="evenodd" d="M3.78394 8.44221C3.78394 7.88131 4.26258 7.66558 5.05531 7.66558C6.19206 7.66558 7.62796 7.99636 8.76471 8.58603V5.20625C7.52326 4.73164 6.29676 4.54468 5.05531 4.54468C2.01899 4.54468 -0.000244141 6.06917 -0.000244141 8.61479C-0.000244141 12.5842 5.68352 11.9514 5.68352 13.6629C5.68352 14.3245 5.08523 14.5402 4.24762 14.5402C3.00617 14.5402 1.4207 14.0512 0.164286 13.3896V16.8125C1.55531 17.3878 2.96129 17.6323 4.24762 17.6323C7.35873 17.6323 9.49762 16.151 9.49762 13.5766C9.48266 9.29074 3.78394 10.053 3.78394 8.44221Z" fill="#635BFF"/>
</svg>
