<svg width="178" height="131" viewBox="0 0 178 131" fill="none" xmlns="http://www.w3.org/2000/svg">
<path d="M64.589 86.6924C75.4149 87.2288 89.0996 98.0059 98.7863 85.3C106.91 74.6437 102.895 63.831 115.127 56.1727C124.027 50.5781 138.683 40.7423 129.751 29.784C122.763 21.2128 109.367 18.4706 98.1348 20.0264C89.3096 21.2519 70.2387 26.9104 65.5537 37.8402C60.292 50.1234 73.4534 60.8224 55.7673 64.95C45.1229 67.4364 31.4062 74.221 35.0338 89.2251C36.4578 95.15 40.6729 94.2584 45.4148 92.0952C52.4173 88.8983 57.1414 86.3266 64.589 86.6924Z" fill="#FFCA40"/>
<path opacity="0.9" d="M64.589 86.6924C75.4149 87.2288 89.0996 98.0059 98.7863 85.3C106.91 74.6437 102.895 63.831 115.127 56.1727C124.027 50.5781 138.683 40.7423 129.751 29.784C122.763 21.2128 109.367 18.4706 98.1348 20.0264C89.3096 21.2519 70.2387 26.9104 65.5537 37.8402C60.292 50.1234 73.4534 60.8224 55.7673 64.95C45.1229 67.4364 31.4062 74.221 35.0338 89.2251C36.4578 95.15 40.6729 94.2584 45.4148 92.0952C52.4173 88.8983 57.1414 86.3266 64.589 86.6924Z" fill="#292929"/>
<path d="M101.916 30.1216C108.58 27.8518 113.208 23.44 113.6 18.0657C114.216 9.60456 104.098 1.97462 91.0008 1.01555C77.9035 0.0564783 66.7928 6.16256 66.1733 14.6272C65.6714 21.5361 72.3215 27.8873 81.905 30.5016C79.413 33.2723 75.3297 34.2917 75.3297 34.2917C75.3297 34.2917 83.1296 33.8406 85.853 31.3541C86.8071 31.4998 87.779 31.6134 88.7722 31.6845C92.025 31.9308 95.2964 31.7215 98.491 31.0629C100.965 33.6737 107.359 35.4178 107.359 35.4178C107.359 35.4178 103.457 33.4854 101.916 30.1216Z" fill="white"/>
<path opacity="0.3" d="M101.916 30.1216C108.58 27.8518 113.208 23.44 113.6 18.0657C114.216 9.60456 104.098 1.97462 91.0008 1.01555C77.9035 0.0564783 66.7928 6.16256 66.1733 14.6272C65.6714 21.5361 72.3215 27.8873 81.905 30.5016C79.413 33.2723 75.3297 34.2917 75.3297 34.2917C75.3297 34.2917 83.1296 33.8406 85.853 31.3541C86.8071 31.4998 87.779 31.6134 88.7722 31.6845C92.025 31.9308 95.2964 31.7215 98.491 31.0629C100.965 33.6737 107.359 35.4178 107.359 35.4178C107.359 35.4178 103.457 33.4854 101.916 30.1216Z" fill="#FFCA40"/>
<path d="M103.952 23.8095L101.14 24.0368C101.317 24.449 101.403 24.8948 101.391 25.3434C101.379 25.7919 101.269 26.2325 101.07 26.6346C100.87 27.0367 100.585 27.3907 100.235 27.6722C99.885 27.9537 99.4777 28.1559 99.0415 28.2649C98.6052 28.3738 98.1505 28.3869 97.7087 28.3032C97.2669 28.2195 96.8486 28.041 96.4827 27.7801C96.1168 27.5192 95.8122 27.1822 95.5897 26.7922C95.3673 26.4022 95.2324 25.9687 95.1945 25.5216C95.1668 25.1829 95.1957 24.842 95.2799 24.5128L90.5237 24.9L90.1357 20.1508C90.888 20.3508 91.689 20.2461 92.3643 19.8595C92.8984 19.5633 93.3355 19.1194 93.6228 18.5813C93.9102 18.0431 94.0356 17.4336 93.9841 16.826C93.9352 16.3399 93.7716 15.8723 93.5068 15.4615C93.2419 15.0506 92.8834 14.7081 92.4604 14.4621C92.0374 14.2161 91.562 14.0735 91.0732 14.046C90.5844 14.0185 90.096 14.107 89.648 14.304L89.2599 9.5584L94.0197 9.17122C93.8302 8.74479 93.7425 8.28031 93.7634 7.81432C93.8 7.06374 94.1061 6.35138 94.6258 5.80745C95.1455 5.26351 95.8439 4.92432 96.5935 4.85185C97.0872 4.80767 97.5843 4.8822 98.0432 5.06922C98.502 5.25624 98.9092 5.55029 99.2307 5.92671C99.5522 6.30314 99.7785 6.75097 99.8908 7.23267C100.003 7.71438 99.9979 8.21591 99.8759 8.69524L102.692 8.4679C103.206 8.42661 103.716 8.59031 104.11 8.92317C104.503 9.25603 104.749 9.73094 104.792 10.244L105.732 21.7173C105.773 22.2301 105.609 22.7383 105.276 23.1306C104.942 23.5228 104.466 23.7669 103.952 23.8095Z" fill="#263238"/>
<path d="M90.9938 14.0518C90.5316 14.0347 90.0716 14.1222 89.6481 14.3075L89.26 9.56189L84.5074 9.94552C84.6552 10.2827 84.7408 10.6437 84.7602 11.0112C84.786 11.8144 84.4983 12.5962 83.9577 13.1919C83.4171 13.7876 82.6659 14.1506 81.8623 14.2045C81.0587 14.2584 80.2655 13.9989 79.6499 13.4807C79.0343 12.9626 78.6444 12.2262 78.5622 11.4267C78.5335 11.0883 78.5612 10.7474 78.6441 10.4179L75.8317 10.6488C75.5771 10.6694 75.3291 10.7399 75.1018 10.8563C74.8745 10.9726 74.6724 11.1325 74.5071 11.3268C74.3418 11.5211 74.2165 11.746 74.1383 11.9887C74.0602 12.2314 74.0308 12.487 74.0517 12.741L74.9844 24.2072C75.028 24.7203 75.2734 25.1952 75.6671 25.528C76.0607 25.8609 76.5705 26.0246 77.0848 25.9833L79.9008 25.7524C79.7436 26.3587 79.7771 26.9987 79.9969 27.5853C80.1434 27.9702 80.3653 28.3222 80.6497 28.6205C80.9341 28.9189 81.2753 29.1576 81.6532 29.3229C82.0312 29.4881 82.4384 29.5765 82.851 29.5829C83.2636 29.5893 83.6734 29.5135 84.0563 29.36C84.4392 29.2065 84.7876 28.9784 85.0811 28.689C85.3747 28.3996 85.6074 28.0547 85.7657 27.6744C85.9241 27.2942 86.0049 26.8863 86.0034 26.4746C86.0019 26.0628 85.9181 25.6555 85.757 25.2764L90.5167 24.8928L90.1287 20.1436C90.4586 20.2277 90.8003 20.2565 91.1397 20.2289C91.9611 20.1628 92.7225 19.7739 93.2566 19.1477C93.7906 18.5216 94.0536 17.7095 93.9877 16.8899C93.9162 16.1359 93.5737 15.4331 93.0234 14.9115C92.473 14.3898 91.7521 14.0844 90.9938 14.0518Z" fill="#FFCA40"/>
<path d="M85.038 4.50376C84.7609 4.24121 84.4672 3.99679 84.1586 3.77202L84.3865 3.45233C84.7116 3.68608 85.0197 3.94247 85.3085 4.21959L85.038 4.50376Z" fill="#263238"/>
<path d="M87.4161 7.76804C87.0771 6.9803 86.6184 6.24945 86.0562 5.60125L86.3588 5.3526C86.9478 6.03539 87.4281 6.80454 87.7828 7.63306L87.4161 7.76804Z" fill="#FFCA40"/>
<path d="M90.0397 6.94751H89.6481C89.6586 5.37727 90.2176 3.85984 91.2287 2.65656L91.5313 2.90875C90.5789 4.04119 90.0515 5.46922 90.0397 6.94751Z" fill="#263238"/>
<path d="M88.1705 5.11468C88.1705 5.09692 87.754 3.16457 86.9814 2.01369L87.3054 1.79346C88.1242 3.00828 88.5372 4.95484 88.555 5.03654L88.1705 5.11468Z" fill="#FFCA40"/>
<path d="M93.628 30.2068C93.3312 29.9381 93.0529 29.6497 92.795 29.3436L93.094 29.0914C93.3418 29.3818 93.6082 29.6559 93.8915 29.912L93.628 30.2068Z" fill="#263238"/>
<path d="M92.2505 28.7326C91.6273 27.912 91.1559 26.987 90.8585 26.0011L91.2394 25.9016C91.5228 26.8425 91.9698 27.7262 92.5602 28.5124L92.2505 28.7326Z" fill="#FFCA40"/>
<path d="M89.6231 28.4237C89.465 27.6149 89.5672 26.7769 89.9151 26.0295L90.2711 26.2036C89.9704 26.8714 89.8798 27.6146 90.0112 28.3349L89.6231 28.4237Z" fill="#FFCA40"/>
<path d="M65.1761 97.8532C62.887 85.1047 61.9329 69.7347 61.9329 69.7347L74.133 69.5428C74.133 69.5428 73.09 90.2588 72.5844 98.9366C72.0611 107.955 71.6944 125.318 71.6944 125.318H67.4865C67.4865 125.318 63.9052 109.007 65.1761 97.8532Z" fill="#263238"/>
<path opacity="0.2" d="M67.6399 73.2051C67.6399 73.2051 65.9845 85.5807 64.6246 94.6528C63.4177 87.0264 62.6523 79.0235 62.2536 74.1962L67.6399 73.2051Z" fill="black"/>
<path d="M77.348 129.581C77.348 129.581 71.6983 128.256 71.4491 126.334L67.8464 126.799L67.4512 130.543H68.9393L69.1778 130.078L69.6762 130.543C74.7314 130.543 76.604 130.49 77.5403 130.188C77.5699 130.079 77.5675 129.964 77.5334 129.856C77.4993 129.749 77.435 129.653 77.348 129.581Z" fill="#263238"/>
<path d="M67.3337 127.478C68.6865 127.556 71.3885 127.357 71.9154 127.098C72.4423 126.838 72.129 124.746 72.129 124.746C72.129 124.746 67.4049 124.277 66.9884 124.537C66.5718 124.796 67.3337 127.478 67.3337 127.478Z" fill="#FFCA40"/>
<path opacity="0.3" d="M67.3337 127.478C68.6865 127.556 71.3885 127.357 71.9154 127.098C72.4423 126.838 72.129 124.746 72.129 124.746C72.129 124.746 67.4049 124.277 66.9884 124.537C66.5718 124.796 67.3337 127.478 67.3337 127.478Z" fill="white"/>
<path d="M53.8484 97.4909C55.931 84.6713 55.8633 76.1072 57.9459 69.7844L69.8541 69.621C69.8541 69.621 64.0798 89.964 61.4668 98.4322C58.8537 106.9 54.0691 125.318 54.0691 125.318H50.1958C50.1958 125.318 50.3667 107.408 53.8484 97.4909Z" fill="#263238"/>
<path d="M58.1275 129.581C58.1275 129.581 53.8555 128.256 53.6169 126.334L50.0142 126.799L49.6226 130.543H50.5518L50.7903 130.078L51.2887 130.543C56.3439 130.543 57.3834 130.49 58.3197 130.188C58.3493 130.079 58.3469 129.964 58.3129 129.856C58.2788 129.749 58.2144 129.653 58.1275 129.581Z" fill="#263238"/>
<path d="M49.6226 127.385C50.4521 127.556 53.5956 127.357 54.158 127.098C54.7205 126.838 54.5461 124.643 54.5461 124.643C54.5461 124.643 50.2741 124.135 49.8148 124.395C49.3556 124.654 49.6226 127.385 49.6226 127.385Z" fill="#FFCA40"/>
<path opacity="0.3" d="M49.6226 127.385C50.4521 127.556 53.5956 127.357 54.158 127.098C54.7205 126.838 54.5461 124.643 54.5461 124.643C54.5461 124.643 50.2741 124.135 49.8148 124.395C49.3556 124.654 49.6226 127.385 49.6226 127.385Z" fill="white"/>
<path d="M74.0692 47.1681L75.091 48.0454L76.159 48.9335C76.871 49.5267 77.583 50.095 78.295 50.6491C78.651 50.9227 79.007 51.1891 79.363 51.4413C79.719 51.6935 80.075 51.9421 80.4132 52.1517C80.7514 52.3613 81.1038 52.5708 81.4171 52.7413C81.6603 52.8715 81.9125 52.9843 82.1718 53.0788L81.6841 53.0433C81.6164 53.0752 81.7873 53.0788 82.0045 53.0433C82.2731 52.9737 82.5352 52.881 82.7877 52.7662C83.4178 52.481 84.029 52.1559 84.6175 51.7929C85.2512 51.4377 85.8849 51.0115 86.5221 50.5888L88.4374 49.31L88.4837 49.2816C88.7554 49.1081 89.0782 49.0318 89.3991 49.0652C89.7199 49.0986 90.0199 49.2397 90.2499 49.4655C90.4799 49.6912 90.6263 49.9882 90.665 50.3078C90.7037 50.6274 90.6325 50.9507 90.463 51.2246C89.9994 51.9282 89.4967 52.6054 88.9572 53.2528C88.4146 53.9074 87.837 54.5323 87.227 55.1248C86.5803 55.7557 85.8812 56.3308 85.1373 56.844C84.7097 57.1387 84.257 57.3954 83.7845 57.6113C83.1594 57.9067 82.4844 58.0826 81.7944 58.1299C81.6879 58.1407 81.5806 58.1407 81.474 58.1299L81.3067 58.105C80.6221 58.0001 79.9519 57.8165 79.3096 57.558C78.7711 57.3465 78.2457 57.1033 77.736 56.8298C76.7949 56.3306 75.8854 55.7743 75.0126 55.1639C74.1582 54.5778 73.3501 53.9562 72.5634 53.3203C72.1718 52.9971 71.7802 52.6774 71.4028 52.34C71.0254 52.0025 70.6623 51.6757 70.2636 51.2921C69.7337 50.7853 69.4231 50.092 69.398 49.36C69.3728 48.6281 69.6351 47.9152 70.1289 47.3734C70.6228 46.8315 71.3092 46.5035 72.0419 46.4592C72.7745 46.4149 73.4956 46.6578 74.0514 47.1361L74.0692 47.1681Z" fill="#CF7A64"/>
<path d="M88.925 51.8675L92.0792 51.8427L90.9898 48.2266C90.9898 48.2266 88.1418 48.5818 88.0884 50.1412L88.925 51.8675Z" fill="#CE7A63"/>
<path d="M94.3969 49.5267L93.7988 48.3261C93.6842 48.0939 93.4905 47.91 93.2525 47.8071C93.0144 47.7043 92.7475 47.6893 92.4994 47.7649L90.9899 48.2266L92.0793 51.8427L93.8806 51.0008C94.0125 50.9389 94.1306 50.8514 94.2282 50.7434C94.3257 50.6354 94.4007 50.5091 94.4488 50.3719C94.4968 50.2346 94.517 50.0892 94.5081 49.9441C94.4992 49.799 94.4613 49.6571 94.3969 49.5267Z" fill="#CE7A63"/>
<path d="M71.1783 45.2357C70.0376 46.0915 69.2506 47.3345 68.9659 48.7298C68.6812 50.1252 68.9186 51.5763 69.6332 52.8088C69.8291 53.1629 70.0748 53.4871 70.363 53.7715C71.6126 54.9543 74.7098 55.9986 76.7426 56.8796C79.3307 55.9596 80.6586 53.2244 80.2634 51.7077C78.2947 49.104 74.6991 45.289 72.8337 44.7846C72.2676 44.6283 71.723 44.8521 71.1783 45.2357Z" fill="#263238"/>
<path d="M59.7792 44.2092C63.4231 43.8082 67.0988 43.7844 70.7476 44.1382C72.249 44.2965 73.6382 45.0048 74.6464 46.1262C75.6545 47.2476 76.2099 48.7023 76.2051 50.2087C76.1873 55.8069 75.2866 61.9911 74.3539 70.5908C71.6981 73.3294 57.451 70.4806 57.451 70.4806C57.6006 67.3598 57.9862 64.2547 58.6044 61.1919C58.1203 57.6397 56.8885 53.5903 56.1943 48.8838C56.1159 48.3411 56.1468 47.7883 56.2854 47.2577C56.424 46.7271 56.6674 46.2295 57.0013 45.7941C57.3352 45.3586 57.753 44.9942 58.23 44.722C58.707 44.4498 59.2338 44.2755 59.7792 44.2092Z" fill="#FFCA40"/>
<mask id="mask0_1_7827" style="mask-type:luminance" maskUnits="userSpaceOnUse" x="56" y="43" width="21" height="29">
<path d="M59.7792 44.2092C63.4231 43.8082 67.0988 43.7844 70.7476 44.1382C72.249 44.2965 73.6382 45.0048 74.6464 46.1262C75.6545 47.2476 76.2099 48.7023 76.2051 50.2087C76.1873 55.8069 75.2866 61.9911 74.3539 70.5908C71.6981 73.3294 57.451 70.4806 57.451 70.4806C57.6006 67.3598 57.9862 64.2547 58.6044 61.1919C58.1203 57.6397 56.8885 53.5903 56.1943 48.8838C56.1159 48.3411 56.1468 47.7883 56.2854 47.2577C56.424 46.7271 56.6674 46.2295 57.0013 45.7941C57.3352 45.3586 57.753 44.9942 58.23 44.722C58.707 44.4498 59.2338 44.2755 59.7792 44.2092Z" fill="white"/>
</mask>
<g mask="url(#mask0_1_7827)">
<g opacity="0.2">
<path d="M59.1742 50.1803C59.1503 50.1803 59.1272 50.1711 59.11 50.1545C59.0927 50.138 59.0826 50.1154 59.0816 50.0915C59.0807 50.0791 59.0822 50.0666 59.0862 50.0548C59.0902 50.043 59.0966 50.0321 59.1049 50.0228C59.1132 50.0136 59.1233 50.006 59.1346 50.0008C59.1459 49.9955 59.1582 49.9925 59.1706 49.9921C59.879 49.9515 60.555 49.6822 61.0966 49.2248C60.9929 49.1776 60.9015 49.1071 60.8296 49.0188C60.7405 48.8994 60.6774 48.7626 60.6445 48.6174C60.4344 47.8537 60.6231 46.8413 61.3814 46.4364C61.5069 46.3506 61.6578 46.3095 61.8096 46.3199C61.9614 46.3302 62.1053 46.3912 62.218 46.4932C62.2905 46.5901 62.3371 46.7038 62.3533 46.8236C62.421 47.3108 62.3365 47.8069 62.1112 48.2444C61.9488 48.5751 61.7323 48.8765 61.4704 49.136H61.5345C61.8142 49.15 62.0934 49.101 62.3516 48.9928C62.6098 48.8846 62.8403 48.7199 63.0261 48.5108C63.4004 48.0804 63.6208 47.5382 63.6527 46.9692C63.6531 46.9569 63.656 46.9448 63.6614 46.9337C63.6667 46.9226 63.6743 46.9127 63.6837 46.9047C63.6931 46.8967 63.704 46.8907 63.7158 46.8871C63.7277 46.8836 63.7401 46.8825 63.7524 46.884C63.7772 46.8858 63.8004 46.8972 63.817 46.9157C63.8336 46.9343 63.8423 46.9586 63.8414 46.9834C63.8051 47.5945 63.5673 48.1765 63.165 48.6387C62.9607 48.8697 62.7065 49.0515 62.4216 49.1702C62.1367 49.289 61.8285 49.3416 61.5202 49.3243C61.4472 49.3171 61.3746 49.3052 61.3031 49.2887C60.7115 49.8156 59.9587 50.1273 59.1671 50.1732L59.1742 50.1803ZM61.8122 46.5074C61.6933 46.5117 61.5773 46.5446 61.474 46.6033C60.8047 46.9586 60.6409 47.8928 60.826 48.5712C60.8527 48.6893 60.9036 48.8006 60.9756 48.898C61.0492 48.9865 61.1468 49.0519 61.2568 49.0863C61.5386 48.8221 61.7702 48.5092 61.9403 48.1627C62.1485 47.7605 62.228 47.3043 62.1682 46.8555C62.1582 46.7685 62.1264 46.6854 62.0756 46.614C62.0439 46.5748 62.0038 46.5433 61.9582 46.5217C61.9125 46.5002 61.8626 46.4892 61.8122 46.4897V46.5074Z" fill="white"/>
<path d="M67.1486 53.6934H67.1166C66.5394 53.4882 66.0464 53.0986 65.714 52.5851C65.5474 52.3238 65.4426 52.0281 65.4074 51.7204C65.3723 51.4127 65.4077 51.1011 65.511 50.809C65.5387 50.7407 65.5708 50.6743 65.6072 50.6101C65.2655 49.9009 65.1739 49.0973 65.3473 48.3297C65.3558 48.3084 65.3717 48.2909 65.392 48.2803C65.4123 48.2697 65.4358 48.2667 65.4582 48.2718C65.4805 48.277 65.5003 48.2899 65.5139 48.3083C65.5275 48.3268 65.5341 48.3495 65.5324 48.3723C65.3749 49.0637 65.4448 49.7874 65.7318 50.4361C65.8063 50.3484 65.9001 50.2791 66.0059 50.2336C66.1443 50.1812 66.2925 50.1594 66.4402 50.1697C67.2376 50.1697 68.1419 50.6385 68.3341 51.4839C68.3818 51.6277 68.3796 51.7833 68.328 51.9257C68.2763 52.0681 68.1782 52.189 68.0493 52.269C67.9359 52.312 67.8134 52.3255 67.6933 52.308C67.206 52.2357 66.7526 52.0163 66.3939 51.6793C66.1202 51.4319 65.8903 51.14 65.714 50.8161C65.714 50.8375 65.6962 50.8588 65.689 50.8765C65.5983 51.1405 65.5678 51.4213 65.5998 51.6984C65.6319 51.9756 65.7256 52.2422 65.8742 52.4785C66.1822 52.9578 66.6421 53.3204 67.1807 53.5087C67.1925 53.5126 67.2035 53.5189 67.2128 53.5272C67.2221 53.5355 67.2297 53.5456 67.235 53.5569C67.2403 53.5682 67.2433 53.5804 67.2438 53.5929C67.2442 53.6054 67.2421 53.6178 67.2376 53.6294C67.2316 53.6482 67.2197 53.6645 67.2037 53.676C67.1876 53.6875 67.1684 53.6936 67.1486 53.6934ZM65.8208 50.6279C66.0005 50.9729 66.2418 51.2822 66.5328 51.5408C66.861 51.8545 67.2791 52.0582 67.7289 52.1233C67.8147 52.1391 67.9032 52.1317 67.9852 52.102C68.1704 52.0203 68.2166 51.7468 68.1632 51.5301C67.9959 50.7877 67.1558 50.3721 66.4509 50.3579C66.3298 50.3512 66.2086 50.3693 66.0949 50.4112C65.9839 50.4546 65.8885 50.53 65.8208 50.6279Z" fill="white"/>
<path d="M74.4356 51.3738C74.3623 51.377 74.2892 51.364 74.2215 51.3358C74.1538 51.3075 74.0932 51.2647 74.044 51.2104C73.9675 51.1166 73.9182 51.0035 73.9016 50.8836C73.8198 50.4001 73.8921 49.9032 74.1081 49.4628C74.2621 49.1281 74.4702 48.8209 74.724 48.5534H74.6599C74.3805 48.5476 74.1033 48.6038 73.8484 48.7181C73.5934 48.8323 73.3672 49.0018 73.1861 49.2141C72.8223 49.6545 72.6156 50.2031 72.5987 50.7735C72.5968 50.7983 72.5854 50.8215 72.5668 50.838C72.5482 50.8546 72.5239 50.8633 72.499 50.8623C72.4741 50.8605 72.4509 50.8491 72.4343 50.8305C72.4177 50.812 72.409 50.7877 72.41 50.7629C72.4295 50.1516 72.6524 49.5642 73.0437 49.0934C73.2433 48.8598 73.4935 48.6746 73.7753 48.5515C74.0571 48.4284 74.3632 48.3708 74.6706 48.3829C74.7448 48.3861 74.8187 48.3956 74.8913 48.4114C75.465 47.8713 76.2057 47.5419 76.9917 47.4771C77.004 47.4757 77.0164 47.4767 77.0282 47.4803C77.04 47.4839 77.051 47.4899 77.0604 47.4979C77.0697 47.5059 77.0773 47.5158 77.0827 47.5269C77.088 47.538 77.091 47.5501 77.0914 47.5624C77.0924 47.5867 77.0842 47.6105 77.0683 47.6289C77.0525 47.6474 77.0302 47.6592 77.0059 47.6619C76.2975 47.723 75.6274 48.0094 75.0942 48.4788C75.2016 48.5217 75.2969 48.5899 75.3719 48.6778C75.4627 48.7945 75.5282 48.9287 75.5641 49.072C75.792 49.8322 75.6282 50.8303 74.8806 51.2708C74.7431 51.3414 74.5902 51.3768 74.4356 51.3738ZM74.9411 48.5961C74.6656 48.8663 74.4412 49.184 74.279 49.5338C74.081 49.9418 74.0127 50.4003 74.0832 50.8481C74.0981 50.9339 74.1321 51.0153 74.1829 51.0861C74.2697 51.151 74.3752 51.186 74.4837 51.186C74.5921 51.186 74.6977 51.151 74.7845 51.0861C75.4431 50.7025 75.5855 49.7789 75.3861 49.104C75.3562 48.9858 75.3029 48.8747 75.2295 48.7772C75.1524 48.691 75.0524 48.6282 74.9411 48.5961Z" fill="white"/>
<path d="M70.7762 49.5055H70.7584C70.7341 49.5003 70.7127 49.486 70.6988 49.4655C70.6848 49.4449 70.6794 49.4198 70.6836 49.3954C70.823 48.7009 70.7356 47.9801 70.4344 47.3387C70.3602 47.4261 70.2679 47.4964 70.1639 47.5447C70.0263 47.6014 69.8783 47.628 69.7296 47.6229C68.9357 47.6229 68.0279 47.186 67.8178 46.3512C67.7661 46.2085 67.7643 46.0525 67.8128 45.9086C67.8612 45.7648 67.9572 45.6416 68.0848 45.5591C68.1976 45.5136 68.3202 45.4977 68.4408 45.5129C68.9307 45.5718 69.3899 45.7816 69.7545 46.1132C70.0369 46.3526 70.2775 46.6371 70.4665 46.9551L70.4878 46.8947C70.5731 46.6285 70.5972 46.3467 70.5584 46.0699C70.5196 45.7932 70.4188 45.5288 70.2636 45.2962C69.9418 44.8258 69.472 44.4758 68.9286 44.3016C68.9052 44.2928 68.8862 44.2753 68.8756 44.2528C68.8649 44.2302 68.8635 44.2044 68.8716 44.1809C68.8756 44.169 68.8819 44.1581 68.8902 44.1488C68.8985 44.1395 68.9086 44.132 68.92 44.1267C68.9313 44.1213 68.9435 44.1184 68.956 44.1179C68.9685 44.1175 68.981 44.1195 68.9926 44.124C69.5729 44.3113 70.074 44.6863 70.4166 45.1897C70.5915 45.447 70.7046 45.7411 70.7472 46.0491C70.7898 46.3571 70.7608 46.6707 70.6623 46.9657C70.6379 47.0343 70.6082 47.1008 70.5733 47.1646C70.9322 47.8666 71.0426 48.669 70.8866 49.4415C70.8786 49.4634 70.8631 49.4818 70.843 49.4934C70.8228 49.5051 70.7992 49.5094 70.7762 49.5055ZM68.3305 45.6941C68.2696 45.6922 68.2089 45.7031 68.1525 45.726C67.9709 45.8113 67.9318 46.0812 67.9887 46.3015C68.1738 47.0368 69.0176 47.431 69.7189 47.431C69.8405 47.437 69.962 47.4164 70.0749 47.3707C70.18 47.3221 70.269 47.2444 70.3312 47.1469C70.1497 46.8083 69.9085 46.505 69.6192 46.2517C69.2843 45.9466 68.8625 45.7529 68.4124 45.6976L68.3305 45.6941Z" fill="white"/>
<path d="M60.7156 59.7711C60.6938 59.7668 60.674 59.7551 60.6599 59.7379C60.6457 59.7208 60.6379 59.6992 60.6379 59.677C60.6379 59.6547 60.6457 59.6332 60.6599 59.616C60.674 59.5988 60.6938 59.5871 60.7156 59.5828C61.4249 59.5415 62.1018 59.2723 62.6452 58.8156C62.5404 58.7684 62.4479 58.6979 62.3746 58.6096C62.2859 58.4912 62.2229 58.3557 62.1895 58.2117C61.9794 57.4445 62.1681 56.4357 62.93 56.0307C63.0541 55.9435 63.2044 55.9012 63.3559 55.9109C63.5074 55.9206 63.6511 55.9817 63.763 56.084C63.8355 56.1808 63.8821 56.2945 63.8983 56.4144C63.966 56.9015 63.8815 57.3977 63.6562 57.8352C63.492 58.1594 63.2742 58.4536 63.0118 58.7055H63.0759C63.3556 58.7194 63.6349 58.6705 63.8931 58.5623C64.1512 58.4541 64.3818 58.2893 64.5676 58.0803C64.9425 57.6503 65.163 57.1078 65.1941 56.5387C65.1945 56.5264 65.1975 56.5143 65.2028 56.5032C65.2082 56.4921 65.2158 56.4822 65.2252 56.4742C65.2345 56.4661 65.2455 56.4602 65.2573 56.4566C65.2691 56.453 65.2815 56.4519 65.2938 56.4534C65.3187 56.4552 65.3419 56.4666 65.3585 56.4852C65.3751 56.5038 65.3838 56.528 65.3828 56.5529C65.3474 57.1642 65.1094 57.7464 64.7064 58.2082C64.5021 58.4392 64.248 58.6209 63.9631 58.7397C63.6782 58.8584 63.37 58.9111 63.0617 58.8937C62.9886 58.8862 62.9161 58.8744 62.8445 58.8582C62.2531 59.3853 61.5002 59.6971 60.7085 59.7427L60.7156 59.7711ZM63.3678 56.0947C63.2432 56.0948 63.1207 56.1266 63.0118 56.187C62.3426 56.5422 62.1788 57.4764 62.3639 58.1549C62.3905 58.273 62.4415 58.3843 62.5134 58.4817C62.5871 58.5702 62.6847 58.6355 62.7947 58.6699C63.077 58.4062 63.3087 58.0932 63.4782 57.7464C63.6864 57.3442 63.7659 56.8879 63.706 56.4392C63.6961 56.3522 63.6643 56.2691 63.6135 56.1977C63.5818 56.1646 63.5436 56.1384 63.5014 56.1207C63.4591 56.103 63.4137 56.0941 63.3678 56.0947Z" fill="white"/>
<path d="M68.9036 63.6784H68.868C68.2913 63.4723 67.7985 63.083 67.4653 62.5701C67.2984 62.309 67.1936 62.0131 67.159 61.7052C67.1245 61.3973 67.161 61.0857 67.266 60.7941C67.2923 60.7258 67.3232 60.6593 67.3585 60.5952C67.0178 59.8856 66.9274 59.082 67.1022 58.3147C67.1051 58.3027 67.1104 58.2915 67.1177 58.2816C67.1251 58.2717 67.1343 58.2633 67.1449 58.257C67.1555 58.2507 67.1673 58.2466 67.1795 58.2449C67.1918 58.2433 67.2042 58.244 67.2161 58.2472C67.228 58.2497 67.2392 58.2546 67.2491 58.2615C67.259 58.2685 67.2674 58.2774 67.2737 58.2877C67.2801 58.298 67.2842 58.3095 67.286 58.3215C67.2877 58.3335 67.2869 58.3457 67.2838 58.3573C67.1276 59.0492 67.1988 59.7728 67.4867 60.4211C67.5614 60.3336 67.6551 60.2644 67.7608 60.2186C67.8996 60.1676 68.0475 60.1458 68.1951 60.1547C68.989 60.1547 69.8968 60.6236 70.089 61.469C70.137 61.6131 70.1347 61.7692 70.0823 61.9118C70.0299 62.0543 69.9306 62.175 69.8007 62.254C69.6878 62.2992 69.5647 62.3128 69.4447 62.2931C68.9566 62.2232 68.5025 62.0035 68.1453 61.6644C67.8725 61.416 67.6428 61.1243 67.4653 60.8012C67.4653 60.8225 67.4653 60.8438 67.4404 60.8616C67.3497 61.1255 67.3192 61.4063 67.3512 61.6835C67.3832 61.9607 67.477 62.2272 67.6255 62.4636C67.9349 62.9431 68.396 63.3057 68.9356 63.4937C68.9475 63.4976 68.9584 63.5039 68.9676 63.5123C68.9768 63.5206 68.9842 63.5308 68.9893 63.5422C68.9943 63.5536 68.9969 63.5659 68.9968 63.5784C68.9968 63.5908 68.9941 63.6031 68.989 63.6145C68.9836 63.6329 68.9724 63.6491 68.957 63.6606C68.9416 63.6722 68.9228 63.6784 68.9036 63.6784ZM67.5757 60.6129C67.753 60.9595 67.9946 61.2692 68.2877 61.5258C68.6154 61.8388 69.0318 62.0435 69.4803 62.1119C69.5677 62.1248 69.6568 62.1162 69.7402 62.0871C69.9253 62.0054 69.968 61.7318 69.9182 61.5152C69.7508 60.7728 68.9107 60.3572 68.2058 60.343C68.0847 60.3352 67.9633 60.3534 67.8498 60.3963C67.7392 60.4402 67.6439 60.5155 67.5757 60.6129Z" fill="white"/>
<path d="M62.1469 65.4154C62.1283 65.4146 62.1103 65.4085 62.0952 65.3978C62.08 65.3871 62.0683 65.3722 62.0614 65.355C61.8311 64.7908 61.7936 64.1665 61.9546 63.5789C62.04 63.2824 62.1917 63.0092 62.3983 62.7797C62.6049 62.5502 62.8609 62.3704 63.1472 62.254C63.2155 62.2282 63.2857 62.208 63.3573 62.1936C63.6618 61.4673 64.2022 60.8643 64.8916 60.4815C64.9027 60.4729 64.9155 60.4669 64.9291 60.4639C64.9428 60.4608 64.9569 60.4607 64.9706 60.4636C64.9843 60.4666 64.9971 60.4725 65.0083 60.4809C65.0195 60.4893 65.0286 60.5 65.0352 60.5124C65.0418 60.5247 65.0456 60.5383 65.0463 60.5522C65.0471 60.5662 65.0448 60.5801 65.0396 60.593C65.0344 60.606 65.0264 60.6177 65.0162 60.6272C65.006 60.6368 64.9939 60.644 64.9806 60.6484C64.3548 60.9897 63.8556 61.5227 63.5566 62.1687C63.6708 62.168 63.7839 62.1923 63.8877 62.2398C64.0257 62.3059 64.1473 62.4018 64.2437 62.5204C64.7635 63.1242 65.0233 64.1011 64.5178 64.8079C64.4375 64.9384 64.3155 65.038 64.1715 65.0908C64.0275 65.1437 63.8698 65.1466 63.7239 65.0992C63.617 65.0424 63.5263 64.9593 63.4605 64.8577C63.1889 64.4477 63.0521 63.9635 63.0689 63.4724C63.0724 63.1092 63.1362 62.7491 63.2576 62.4067L63.1971 62.428C62.9404 62.5368 62.7114 62.7013 62.5266 62.9096C62.3418 63.1179 62.206 63.3648 62.1291 63.6322C61.9782 64.181 62.0132 64.7641 62.2287 65.291C62.2333 65.3024 62.2356 65.3147 62.2354 65.327C62.2351 65.3392 62.2325 65.3514 62.2275 65.3626C62.2225 65.3739 62.2153 65.384 62.2064 65.3925C62.1974 65.4009 62.1869 65.4075 62.1753 65.4118L62.1469 65.4154ZM63.489 62.3534C63.3483 62.7136 63.2747 63.0964 63.2718 63.483C63.2547 63.9347 63.3792 64.3804 63.6278 64.7582C63.6742 64.8328 63.7392 64.894 63.8165 64.9358C64.0016 65.0211 64.2295 64.8754 64.3647 64.6907C64.8062 64.0691 64.5605 63.1704 64.1013 62.6341C64.0256 62.5389 63.9311 62.4603 63.8236 62.4032C63.7186 62.3568 63.603 62.3396 63.489 62.3534Z" fill="white"/>
<path d="M61.7052 71.6565C61.0938 71.6269 60.5099 71.3944 60.0462 70.9958C59.8105 70.7949 59.6238 70.543 59.5004 70.2592C59.377 69.9754 59.3202 69.6673 59.3342 69.3582C59.3402 69.2854 59.3509 69.213 59.3663 69.1416C58.8353 68.5522 58.5192 67.8012 58.4692 67.0103C58.4682 66.998 58.4697 66.9857 58.4738 66.9741C58.4778 66.9625 58.4842 66.9519 58.4926 66.9428C58.5009 66.9338 58.5111 66.9267 58.5224 66.9218C58.5337 66.9169 58.5458 66.9143 58.5582 66.9144C58.5831 66.9134 58.6074 66.9221 58.626 66.9387C58.6446 66.9552 58.656 66.9784 58.6578 67.0032C58.7065 67.7091 58.9797 68.381 59.4375 68.9213C59.4848 68.8168 59.5554 68.7245 59.644 68.6514C59.7627 68.5623 59.8984 68.4983 60.0427 68.4631C60.8081 68.2535 61.8049 68.4347 62.2321 69.1735C62.3196 69.2978 62.3624 69.448 62.3533 69.5996C62.3443 69.7512 62.284 69.8953 62.1822 70.0083C62.0847 70.0805 61.9711 70.128 61.8512 70.1468C61.3633 70.2152 60.8661 70.1321 60.4272 69.9088C60.0955 69.7498 59.7924 69.5374 59.53 69.2801C59.5283 69.3014 59.5283 69.3227 59.53 69.344C59.5142 69.6271 59.563 69.9101 59.6728 70.1716C59.7825 70.4331 59.9504 70.6664 60.1637 70.8537C60.5974 71.2246 61.1419 71.4419 61.7123 71.4717C61.7247 71.4721 61.7368 71.4751 61.7479 71.4804C61.759 71.4858 61.7689 71.4934 61.777 71.5027C61.785 71.5121 61.791 71.523 61.7946 71.5348C61.7982 71.5466 61.7992 71.559 61.7978 71.5712C61.7973 71.5829 61.7945 71.5943 61.7896 71.6049C61.7847 71.6155 61.7778 71.6251 61.7692 71.633C61.7606 71.6409 61.7505 71.647 61.7395 71.6511C61.7286 71.6551 61.7169 71.6569 61.7052 71.6565ZM59.5692 69.0918C59.8364 69.3725 60.1524 69.6023 60.5019 69.7703C60.9057 69.9758 61.363 70.0526 61.812 69.9905C61.8993 69.9787 61.9824 69.9458 62.0541 69.8946C62.2072 69.7632 62.1716 69.4932 62.0541 69.2943C61.6803 68.6301 60.7582 68.4702 60.0783 68.6585C59.9593 68.6864 59.8469 68.7371 59.7472 68.8077C59.6703 68.8877 59.6141 68.9852 59.5834 69.0918H59.5692Z" fill="white"/>
<path d="M58.7611 63.4937C58.1498 63.4613 57.5664 63.2277 57.1022 62.8294C56.8662 62.6287 56.6793 62.3769 56.5559 62.093C56.4325 61.8092 56.3758 61.501 56.3902 61.1919C56.3966 61.1191 56.4073 61.0468 56.4222 60.9752C55.8949 60.3905 55.5791 59.6465 55.5251 58.8617C55.5241 58.8369 55.5328 58.8126 55.5494 58.794C55.5661 58.7755 55.5892 58.7641 55.6141 58.7623C55.6388 58.7621 55.6626 58.7711 55.6811 58.7875C55.6995 58.8039 55.7111 58.8266 55.7138 58.8511C55.7617 59.5582 56.0349 60.2315 56.4934 60.7728C56.5415 60.6677 56.612 60.5744 56.6999 60.4993C56.8185 60.4108 56.9543 60.3479 57.0986 60.3145C57.864 60.1014 58.8786 60.2826 59.288 61.025C59.3756 61.1492 59.4183 61.2994 59.4093 61.451C59.4002 61.6026 59.3399 61.7467 59.2382 61.8597C59.1411 61.9321 59.0272 61.9785 58.9071 61.9947C58.4196 62.0661 57.9218 61.9842 57.4831 61.7603C57.1506 61.6013 56.8473 61.3875 56.586 61.128C56.5846 61.1493 56.5846 61.1706 56.586 61.1919C56.5739 61.4709 56.6246 61.749 56.7342 62.0059C56.8439 62.2628 57.0097 62.492 57.2197 62.6767C57.6528 63.0479 58.1979 63.2642 58.7683 63.2912C58.7931 63.293 58.8163 63.3044 58.8329 63.323C58.8495 63.3415 58.8583 63.3658 58.8573 63.3907C58.8582 63.4039 58.8565 63.4171 58.8521 63.4296C58.8477 63.442 58.8408 63.4535 58.8318 63.4631C58.8227 63.4728 58.8118 63.4805 58.7996 63.4858C58.7875 63.491 58.7744 63.4937 58.7611 63.4937ZM56.6251 60.9255C56.8912 61.2074 57.2075 61.4375 57.5579 61.604C57.9611 61.811 58.4189 61.8879 58.8679 61.8242C58.9557 61.814 59.0392 61.7809 59.11 61.7283C59.2631 61.6004 59.2275 61.3304 59.11 61.1315C58.754 60.4673 57.8142 60.3074 57.1342 60.4957C57.0159 60.5223 56.9043 60.5731 56.8067 60.6449C56.7277 60.7225 56.67 60.8192 56.6394 60.9255H56.6251Z" fill="white"/>
<path d="M75.9772 60.0801C75.9042 60.083 75.8315 60.0703 75.7639 60.0427C75.6964 60.0151 75.6356 59.9733 75.5856 59.9202C75.509 59.8264 75.4598 59.7133 75.4432 59.5934C75.364 59.1099 75.4361 58.6138 75.6497 58.1726C75.8037 57.839 76.0118 57.533 76.2655 57.2668H76.2015C75.9221 57.2609 75.6448 57.3172 75.3899 57.4314C75.135 57.5457 74.9088 57.7152 74.7276 57.9275C74.3639 58.3665 74.1572 58.914 74.1402 59.4833C74.1398 59.4958 74.1368 59.508 74.1315 59.5193C74.1262 59.5306 74.1187 59.5407 74.1094 59.549C74.1001 59.5572 74.0892 59.5636 74.0773 59.5676C74.0655 59.5715 74.053 59.5731 74.0405 59.5721C74.0163 59.5703 73.9936 59.5595 73.9771 59.5417C73.9606 59.5239 73.9515 59.5005 73.9515 59.4762C73.9702 58.8648 74.1933 58.2771 74.5852 57.8067C74.7838 57.5708 75.0333 57.3827 75.315 57.2566C75.5968 57.1305 75.9035 57.0696 76.2121 57.0786C76.2863 57.0847 76.36 57.0954 76.4329 57.1105C77.0072 56.5709 77.7473 56.2404 78.5333 56.1728C78.5457 56.1718 78.5582 56.1734 78.57 56.1773C78.5819 56.1813 78.5928 56.1877 78.6021 56.196C78.6114 56.2042 78.6189 56.2143 78.6242 56.2256C78.6295 56.2369 78.6325 56.2491 78.6329 56.2616C78.634 56.2859 78.6258 56.3097 78.6099 56.3281C78.594 56.3466 78.5717 56.3583 78.5475 56.361C77.8403 56.4202 77.1711 56.7054 76.6393 57.1745C76.7445 57.2211 76.838 57.2903 76.9135 57.3769C77.0056 57.4928 77.0713 57.6274 77.1057 57.7712C77.3335 58.5314 77.1698 59.5295 76.4222 59.9664C76.2862 60.0422 76.1329 60.0814 75.9772 60.0801ZM76.4863 57.3023C76.2111 57.5735 75.9879 57.8925 75.8277 58.2436C75.6317 58.6509 75.5635 59.1078 75.6319 59.5544C75.6457 59.6422 75.6812 59.7252 75.7351 59.7959C75.8668 59.9451 76.1374 59.906 76.3332 59.7959C76.9918 59.4087 77.1342 58.4852 76.9348 57.8138C76.9048 57.6956 76.8516 57.5845 76.7782 57.487C76.699 57.4008 76.5982 57.337 76.4863 57.3023Z" fill="white"/>
<path d="M75.5253 66.552C75.5016 66.5512 75.4791 66.5417 75.462 66.5253C75.4449 66.5089 75.4345 66.4868 75.4328 66.4632C75.3765 65.7571 75.093 65.088 74.6246 64.5557C74.5778 64.6606 74.5086 64.754 74.4217 64.8292C74.3047 64.9198 74.1702 64.9851 74.0266 65.021C73.2647 65.2448 72.2644 65.0779 71.8265 64.3284C71.7375 64.2053 71.6929 64.0558 71.7 63.9042C71.7071 63.7526 71.7655 63.6079 71.8656 63.4936C71.9597 63.4172 72.073 63.3681 72.1932 63.3515C72.6785 63.2726 73.1764 63.3471 73.6171 63.5647C73.9517 63.7196 74.2584 63.9285 74.525 64.1827C74.525 64.1614 74.525 64.1401 74.525 64.1224C74.5323 63.843 74.4773 63.5655 74.364 63.31C74.2508 63.0544 74.082 62.8272 73.8699 62.6447C73.4292 62.282 72.8815 62.0736 72.3106 62.0515C72.2861 62.0515 72.2625 62.0417 72.2452 62.0244C72.2278 62.0071 72.2181 61.9836 72.2181 61.9591C72.2181 61.9346 72.2278 61.9111 72.2452 61.8938C72.2625 61.8765 72.2861 61.8668 72.3106 61.8668C72.9234 61.8863 73.5117 62.1116 73.9803 62.5061C74.2154 62.7052 74.4018 62.9553 74.5252 63.2372C74.6486 63.5192 74.7058 63.8256 74.6923 64.133C74.6889 64.2059 74.6794 64.2784 74.6638 64.3497C75.2012 64.9253 75.5286 65.6649 75.593 66.449C75.5939 66.4616 75.5924 66.4743 75.5884 66.4863C75.5845 66.4983 75.5782 66.5094 75.5699 66.519C75.5616 66.5285 75.5516 66.5364 75.5402 66.542C75.5289 66.5477 75.5166 66.5511 75.504 66.552H75.5253ZM72.5598 63.5043C72.4486 63.5029 72.3376 63.5137 72.2288 63.5363C72.1417 63.5472 72.0592 63.5816 71.9902 63.6357C71.8372 63.7671 71.8763 64.0371 71.9902 64.2325C72.3747 64.8932 73.3003 65.0388 73.9732 64.8399C74.0915 64.8113 74.2028 64.7594 74.3007 64.6871C74.3848 64.6097 74.4473 64.5118 74.4822 64.403C74.2132 64.1241 73.8945 63.8977 73.5424 63.7352C73.2348 63.5902 72.9 63.5115 72.5598 63.5043Z" fill="white"/>
<path d="M72.7698 71.6706C72.7041 71.6729 72.6387 71.6617 72.5775 71.6379C72.5163 71.6141 72.4606 71.5781 72.4138 71.5321C72.3309 71.4433 72.2732 71.3343 72.2464 71.216C72.1385 70.7418 72.1782 70.2461 72.3604 69.7951C72.4899 69.4505 72.6764 69.1299 72.9122 68.8467H72.8481C72.5687 68.8584 72.2955 68.9328 72.049 69.0644C71.8024 69.196 71.5888 69.3814 71.4241 69.6069C71.0913 70.0694 70.9222 70.6292 70.9435 71.1982C70.9445 71.2108 70.9428 71.2234 70.9386 71.2352C70.9344 71.2471 70.9276 71.2579 70.9189 71.267C70.9101 71.2761 70.8995 71.2832 70.8878 71.2878C70.8761 71.2925 70.8635 71.2947 70.8509 71.2941C70.8264 71.2941 70.8028 71.2844 70.7855 71.2671C70.7681 71.2497 70.7584 71.2262 70.7584 71.2018C70.735 70.5908 70.9166 69.9895 71.2746 69.4932C71.4564 69.2443 71.6926 69.0399 71.9651 68.8953C72.2377 68.7507 72.5396 68.6697 72.8481 68.6584C72.9216 68.6535 72.9953 68.6535 73.0688 68.6584C73.6073 68.0857 74.3233 67.7103 75.1016 67.5928C75.1137 67.5912 75.1261 67.592 75.1379 67.5951C75.1498 67.5982 75.1609 67.6036 75.1707 67.6111C75.1804 67.6185 75.1886 67.6278 75.1948 67.6383C75.2009 67.6489 75.2049 67.6606 75.2066 67.6727C75.2082 67.6849 75.2074 67.6972 75.2043 67.709C75.2012 67.7209 75.1957 67.732 75.1883 67.7417C75.1808 67.7514 75.1716 67.7596 75.1609 67.7657C75.1503 67.7719 75.1386 67.7759 75.1265 67.7775C74.4255 67.8859 73.7779 68.2159 73.2788 68.7188C73.3868 68.758 73.4851 68.8198 73.5672 68.9C73.6655 69.012 73.7406 69.1424 73.7879 69.2836C74.0656 70.026 73.973 71.0313 73.2539 71.5214C73.1102 71.6164 72.9421 71.6682 72.7698 71.6706ZM73.1258 68.8609C72.8688 69.1504 72.6662 69.4837 72.5277 69.8449C72.3564 70.2638 72.3191 70.7253 72.4209 71.1662C72.4394 71.2531 72.4799 71.3338 72.5384 71.4007C72.6296 71.4588 72.7372 71.4858 72.8451 71.4774C72.953 71.4691 73.0553 71.4259 73.1364 71.3545C73.7666 70.9247 73.8484 69.994 73.5992 69.3369C73.5633 69.22 73.5026 69.1122 73.4212 69.0208C73.3405 68.9437 73.2411 68.8886 73.1329 68.8609H73.1258Z" fill="white"/>
<path d="M65.3542 72.8891C65.3351 72.889 65.3163 72.8832 65.3005 72.8725C65.2846 72.8617 65.2723 72.8464 65.2652 72.8287C65.2607 72.8173 65.2584 72.805 65.2586 72.7928C65.2588 72.7805 65.2615 72.7683 65.2665 72.7571C65.2715 72.7458 65.2786 72.7357 65.2876 72.7272C65.2965 72.7188 65.3071 72.7122 65.3186 72.7079C65.976 72.4405 66.5292 71.9683 66.8957 71.3617C66.7821 71.3487 66.6728 71.3111 66.5753 71.2515C66.4523 71.1685 66.3481 71.0609 66.2691 70.9354C65.8277 70.2747 65.6853 69.273 66.2691 68.6336C66.3216 68.5383 66.3999 68.4597 66.4951 68.4067C66.5903 68.3537 66.6986 68.3286 66.8074 68.3341C66.9163 68.3397 67.0214 68.3757 67.1106 68.4381C67.1999 68.5005 67.2698 68.5867 67.3122 68.6869C67.5337 69.1256 67.6121 69.6224 67.5365 70.1078C67.4932 70.4781 67.3873 70.8384 67.2232 71.1734H67.2838C67.5525 71.0973 67.8007 70.9621 68.0102 70.7777C68.2197 70.5933 68.385 70.3643 68.4941 70.1078C68.7111 69.5798 68.745 68.9947 68.5903 68.4454C68.5848 68.4214 68.5887 68.3962 68.6013 68.375C68.6139 68.3539 68.6342 68.3384 68.6579 68.3317C68.6698 68.3285 68.6823 68.3277 68.6945 68.3294C68.7067 68.3311 68.7185 68.3352 68.7291 68.3415C68.7397 68.3478 68.749 68.3561 68.7563 68.366C68.7637 68.3759 68.7689 68.3872 68.7718 68.3992C68.9348 68.9863 68.8985 69.6108 68.6686 70.1752C68.549 70.4594 68.3665 70.7129 68.1346 70.9165C67.9028 71.1201 67.6277 71.2687 67.33 71.351C67.2589 71.3704 67.1863 71.3835 67.1129 71.3901C66.7246 72.075 66.1164 72.6093 65.3863 72.9068L65.3542 72.8891ZM66.8316 68.5377C66.6669 68.5528 66.5148 68.6319 66.408 68.758C65.8953 69.3227 66.052 70.2463 66.4258 70.8288C66.4904 70.9332 66.5751 71.0238 66.675 71.0952C66.7743 71.1531 66.8876 71.1826 67.0025 71.1805C67.1874 70.8407 67.3081 70.4698 67.3585 70.0864C67.4268 69.6391 67.3559 69.1816 67.1556 68.7757C67.1163 68.6972 67.059 68.629 66.9883 68.5768C66.9411 68.5486 66.8866 68.535 66.8316 68.5377Z" fill="white"/>
<path d="M72.3176 58.2118C72.3053 58.2093 72.2936 58.2043 72.2833 58.1971C72.2729 58.19 72.2642 58.1808 72.2575 58.1702C72.2509 58.1596 72.2464 58.1477 72.2445 58.1353C72.2426 58.1229 72.2433 58.1102 72.2464 58.0981C72.3844 57.4032 72.2958 56.6825 71.9936 56.0414C71.9207 56.131 71.8281 56.2026 71.7231 56.251C71.5853 56.3067 71.4372 56.3321 71.2888 56.3256C70.4949 56.3256 69.5871 55.8922 69.377 55.0575C69.3253 54.9148 69.3235 54.7588 69.372 54.6149C69.4204 54.4711 69.5164 54.3478 69.644 54.2654C69.7568 54.2199 69.8794 54.204 70 54.2192C70.4899 54.2793 70.9495 54.4875 71.3172 54.8159C71.5998 55.0565 71.8404 55.3422 72.0292 55.6613L72.0506 55.601C72.1359 55.3348 72.16 55.0529 72.1211 54.7762C72.0823 54.4995 71.9816 54.2351 71.8263 54.0025C71.4917 53.531 71.0076 53.1856 70.4522 53.0221C70.4404 53.0185 70.4295 53.0126 70.4201 53.0047C70.4106 52.9968 70.4029 52.9871 70.3972 52.9762C70.3916 52.9653 70.3882 52.9533 70.3872 52.9411C70.3863 52.9289 70.3878 52.9166 70.3916 52.9049C70.4005 52.8815 70.4179 52.8623 70.4403 52.8511C70.4628 52.8399 70.4886 52.8375 70.5127 52.8445C71.0913 53.0349 71.5915 53.4092 71.9367 53.9102C72.1107 54.1679 72.223 54.4621 72.265 54.77C72.307 55.078 72.2775 55.3914 72.1788 55.6862C72.1544 55.7559 72.1247 55.8236 72.0898 55.8887C72.4484 56.5894 72.5589 57.3907 72.403 58.162C72.3953 58.1778 72.3831 58.191 72.3679 58.1998C72.3527 58.2087 72.3352 58.2128 72.3176 58.2118ZM69.8719 54.4003C69.8107 54.3998 69.7501 54.4118 69.6939 54.4359C69.5123 54.5211 69.4732 54.7911 69.5301 55.0113C69.7188 55.7466 70.559 56.1409 71.2603 56.1409C71.3817 56.1428 71.5024 56.1223 71.6163 56.0805C71.7207 56.0308 71.8094 55.9534 71.8726 55.8567C71.691 55.5171 71.4499 55.2127 71.1606 54.958C70.8254 54.654 70.4036 54.4615 69.9538 54.4074L69.8719 54.4003Z" fill="white"/>
<path d="M60.203 57.1567H60.1816C60.1573 57.1508 60.1361 57.1356 60.1228 57.1144C60.1095 57.0931 60.1051 57.0675 60.1104 57.0431C60.2502 56.3482 60.1616 55.627 59.8577 54.9864C59.7847 55.0759 59.6922 55.1476 59.5871 55.196C59.4504 55.2509 59.3038 55.2775 59.1564 55.2741C58.366 55.2741 57.4582 54.8372 57.2446 54.0025C57.1935 53.8597 57.1921 53.7039 57.2405 53.5602C57.2889 53.4165 57.3844 53.2933 57.5116 53.2103C57.6244 53.1649 57.747 53.149 57.8676 53.1642C58.3565 53.2241 58.815 53.4324 59.1813 53.7609C59.4648 54.0006 59.7055 54.2864 59.8933 54.6063C59.8933 54.585 59.9111 54.5637 59.9182 54.5459C60.0019 54.2796 60.0252 53.998 59.9865 53.7215C59.9477 53.4451 59.8477 53.1807 59.6939 52.9475C59.3708 52.4776 58.9016 52.1269 58.3589 51.9493C58.3472 51.9458 58.3363 51.9398 58.327 51.9319C58.3177 51.9239 58.3101 51.9141 58.3048 51.9031C58.2995 51.8921 58.2964 51.8801 58.296 51.8679C58.2955 51.8557 58.2975 51.8435 58.302 51.8321C58.3101 51.809 58.3268 51.7898 58.3487 51.7786C58.3705 51.7674 58.3958 51.7649 58.4195 51.7717C58.9981 51.9621 59.4983 52.3364 59.8434 52.8374C60.0175 53.0951 60.1298 53.3893 60.1718 53.6973C60.2138 54.0052 60.1842 54.3187 60.0855 54.6134C60.0627 54.6837 60.0329 54.7516 59.9965 54.8159C60.3545 55.5168 60.4661 56.3175 60.3134 57.0893C60.3067 57.1122 60.2917 57.1318 60.2713 57.1443C60.2509 57.1568 60.2265 57.1612 60.203 57.1567ZM57.7537 53.3453C57.6937 53.3447 57.6343 53.3568 57.5793 53.3808C57.3977 53.4661 57.3586 53.7361 57.4155 53.9563C57.6006 54.6916 58.4408 55.0859 59.1421 55.0859C59.2635 55.0879 59.3842 55.0675 59.4981 55.0255C59.6009 54.9748 59.6882 54.8975 59.7509 54.8017C59.5697 54.4618 59.3285 54.1573 59.0389 53.903C58.7018 53.5996 58.2791 53.4074 57.8285 53.3524L57.7537 53.3453Z" fill="white"/>
</g>
</g>
<path d="M63.083 37.4318C63.2023 39.6682 62.8128 41.9027 61.9438 43.9676C63.0937 45.0333 64.9627 46.3618 67.4511 46.3263C69.9395 46.2907 69.5266 45.0191 68.8751 44.1524C67.0951 43.2572 66.9776 41.9394 67.4155 41.1402L63.083 37.4318Z" fill="#CE7A63"/>
<path opacity="0.2" d="M67.4014 41.1438L65.4291 39.9147C64.5213 40.0568 64.0835 41.2113 65.212 42.0815C65.9809 42.6747 67.1949 42.9092 67.348 42.7493C67.2298 42.4963 67.1731 42.2191 67.1824 41.9402C67.1916 41.6612 67.2667 41.3884 67.4014 41.1438Z" fill="black"/>
<path d="M68.1772 32.5547C70.7119 32.0255 70.2883 35.1655 69.6297 36.7959C67.9671 34.3734 68.1772 32.5547 68.1772 32.5547Z" fill="#263238"/>
<path d="M61.684 35.8938C62.1753 38.6786 62.3283 40.1208 64.1226 41.0692C68.5975 43.4278 69.6121 41.8045 69.9681 38.9379C70.2849 36.3449 69.4305 32.2244 66.5505 31.443C65.9149 31.2738 65.2468 31.2671 64.6079 31.4235C63.969 31.5799 63.3799 31.8943 62.895 32.3379C62.41 32.7814 62.0449 33.3396 61.8332 33.9611C61.6216 34.5826 61.5702 35.2473 61.684 35.8938Z" fill="#CE7A63"/>
<path d="M62.5205 38.1884C64.952 38.6857 62.3496 36.1317 62.9121 35.0945C63.4746 34.0572 66.5326 34.8281 65.6568 33.1337C68.0314 33.734 70.2314 33.9507 70.712 32.3522C71.424 30.0292 69.1528 29.5851 67.8142 30.2565C66.6928 30.8213 66.7035 31.006 65.0267 30.4448C63.35 29.8835 59.1848 30.2103 60.2492 32.1178C58.3553 32.1959 58.3553 34.6043 59.9217 35.2898C61.4881 35.9754 60.6871 37.8118 62.5205 38.1884Z" fill="#263238"/>
<path d="M62.0113 36.8919C61.9912 36.8913 61.9719 36.8845 61.9559 36.8724C61.94 36.8603 61.9282 36.8435 61.9223 36.8244C61.9184 36.8127 61.9169 36.8004 61.9179 36.7882C61.9188 36.776 61.9222 36.764 61.9279 36.7531C61.9335 36.7422 61.9413 36.7325 61.9507 36.7246C61.9601 36.7167 61.971 36.7108 61.9828 36.7072L65.7706 35.535C65.7942 35.5282 65.8196 35.5306 65.8414 35.5418C65.8633 35.5531 65.88 35.5722 65.8881 35.5954C65.892 35.607 65.8935 35.6193 65.8925 35.6316C65.8916 35.6438 65.8882 35.6557 65.8825 35.6667C65.8769 35.6776 65.8691 35.6873 65.8597 35.6951C65.8503 35.703 65.8394 35.709 65.8276 35.7126L62.0398 36.8848L62.0113 36.8919Z" fill="white"/>
<path d="M60.6801 32.2493C59.7651 31.514 58.5441 31.3328 58.5441 31.7662C58.5441 32.1995 60.2529 32.1214 60.4166 32.4126C60.5804 32.7039 60.6801 32.2493 60.6801 32.2493Z" fill="#263238"/>
<path d="M68.5618 38.8988C67.4729 38.7352 66.3736 38.6509 65.2724 38.6466C65.5501 39.2007 66.077 39.6625 67.3194 39.6945C68.5618 39.7264 68.5618 38.8988 68.5618 38.8988Z" fill="white"/>
<path d="M60.8403 38.0463C61.1238 38.6353 61.6196 39.0958 62.2287 39.3357C63.0048 39.6163 63.375 38.8526 63.1472 38.0178C62.9371 37.2684 62.2857 36.2169 61.5131 36.3022C60.7406 36.3874 60.4736 37.2932 60.8403 38.0463Z" fill="#CE7A63"/>
<path d="M66.4224 35.9399C66.458 36.1779 66.6146 36.3484 66.7784 36.3235C66.9422 36.2986 67.0312 36.0855 66.9956 35.8475C66.96 35.6095 66.8033 35.439 66.6396 35.4639C66.4758 35.4888 66.3868 35.7019 66.4224 35.9399Z" fill="#263238"/>
<path d="M69.0033 35.8831C69.0389 36.1211 69.1919 36.2951 69.3593 36.2702C69.5266 36.2454 69.612 36.0323 69.5764 35.7943C69.5408 35.5563 69.3842 35.3822 69.2204 35.4071C69.0567 35.432 68.9641 35.6451 69.0033 35.8831Z" fill="#263238"/>
<path d="M65.4538 35.336C65.4296 35.3331 65.4064 35.3246 65.3861 35.3112C65.3552 35.2902 65.3338 35.258 65.3265 35.2215C65.3192 35.1849 65.3265 35.147 65.347 35.1158C65.4697 34.9257 65.6361 34.7675 65.8324 34.6544C66.0286 34.5414 66.2491 34.4767 66.4755 34.4658C66.5133 34.4658 66.5495 34.4807 66.5762 34.5074C66.6029 34.534 66.6179 34.5702 66.6179 34.6078C66.6179 34.6455 66.6029 34.6817 66.5762 34.7083C66.5495 34.735 66.5133 34.7499 66.4755 34.7499C66.297 34.7614 66.1238 34.8147 65.9698 34.9054C65.8158 34.9961 65.6854 35.1217 65.5891 35.2721C65.5753 35.2948 65.5552 35.3131 65.5311 35.3244C65.507 35.3358 65.4801 35.3398 65.4538 35.336Z" fill="#263238"/>
<path d="M69.7224 34.551C69.6994 34.5555 69.6757 34.5543 69.6534 34.5474C69.631 34.5406 69.6107 34.5284 69.5942 34.5119C69.4745 34.3808 69.3252 34.2802 69.1586 34.2184C68.992 34.1566 68.813 34.1354 68.6366 34.1567C68.6181 34.1603 68.5991 34.1602 68.5806 34.1564C68.5622 34.1527 68.5447 34.1453 68.5291 34.1347C68.5136 34.1241 68.5003 34.1106 68.49 34.0949C68.4797 34.0791 68.4727 34.0615 68.4692 34.0431C68.463 34.0064 68.4714 33.9687 68.4927 33.9381C68.514 33.9076 68.5465 33.8866 68.5832 33.8797C68.8056 33.8479 69.0324 33.8708 69.2439 33.9463C69.4555 34.0219 69.6453 34.1477 69.7971 34.313C69.8232 34.3396 69.8378 34.3753 69.8378 34.4125C69.8378 34.4497 69.8232 34.4854 69.7971 34.5119C69.7772 34.5328 69.7509 34.5465 69.7224 34.551Z" fill="#263238"/>
<path d="M69.2918 37.5739C69.2026 37.5714 69.115 37.5502 69.0347 37.5116C68.9543 37.4731 68.883 37.418 68.8254 37.3501C68.4865 36.8691 68.3463 36.2763 68.4338 35.6948C68.5228 34.6505 69.0283 33.8335 69.5908 33.8335C69.6801 33.8353 69.7679 33.8562 69.8484 33.8948C69.9289 33.9334 70.0001 33.9888 70.0572 34.0573C70.3959 34.5371 70.5361 35.1287 70.4488 35.709C70.3598 36.7533 69.8543 37.5739 69.2918 37.5739ZM69.5908 34.0218C69.1423 34.0218 68.6973 34.7961 68.6225 35.7126C68.546 36.2437 68.6732 36.7841 68.9785 37.2258C69.0195 37.2742 69.07 37.3137 69.127 37.3418C69.184 37.37 69.2461 37.3861 69.3096 37.3892C69.7581 37.3892 70.2031 36.6148 70.2779 35.6984C70.3563 35.1683 70.229 34.6283 69.9219 34.1887C69.8825 34.1379 69.8325 34.0964 69.7753 34.0669C69.7181 34.0374 69.6551 34.0208 69.5908 34.0182V34.0218Z" fill="white"/>
<path d="M68.2664 35.8937C68.629 36.5934 69.088 37.239 69.6299 37.8118C69.4783 37.9483 69.2991 38.0506 69.1044 38.1119C68.9097 38.1732 68.704 38.192 68.5014 38.167L68.2664 35.8937Z" fill="#BA4D3C"/>
<path d="M59.8078 50.4397L58.875 51.4094L57.9245 52.4111C57.298 53.0789 56.6856 53.7573 56.0947 54.4287C55.8028 54.7661 55.518 55.1071 55.2474 55.4481C54.9768 55.7891 54.7063 56.1195 54.4642 56.4534C54.2221 56.7873 54.0085 57.1176 53.8234 57.4196C53.6788 57.6552 53.5515 57.9009 53.4425 58.1548L53.5066 57.6718C53.4745 57.6043 53.471 57.8032 53.5066 58.027C53.5639 58.3192 53.6473 58.6056 53.7558 58.883C54.0106 59.5605 54.3054 60.2224 54.6386 60.8651C54.9768 61.5507 55.3506 62.2362 55.7351 62.9324L56.8957 65.014L56.917 65.053C57.0687 65.3389 57.118 65.6679 57.0569 65.9855C56.9958 66.3031 56.8279 66.5905 56.5809 66.8C56.334 67.0095 56.0228 67.1287 55.6988 67.1379C55.3747 67.1471 55.0573 67.0457 54.7988 66.8504C54.1227 66.3102 53.4773 65.7327 52.8658 65.1205C52.2534 64.5131 51.666 63.8773 51.0858 63.1953C50.4998 62.4848 49.969 61.7308 49.498 60.9397C49.2336 60.484 49.0039 60.009 48.8109 59.5189C48.5516 58.871 48.414 58.1811 48.4051 57.4835C48.4026 57.3775 48.411 57.2716 48.43 57.1674L48.4656 57.0004C48.6103 56.3246 48.83 55.6669 49.1206 55.0396C49.3638 54.5152 49.6372 54.0052 49.9394 53.5122C50.4883 52.6009 51.0947 51.7253 51.755 50.8908C52.3852 50.0702 53.0509 49.2994 53.7308 48.5499C54.0868 48.177 54.4144 47.804 54.7739 47.4452C55.1335 47.0865 55.4859 46.7348 55.8846 46.3796C56.423 45.895 57.1279 45.6363 57.8527 45.6573C58.5774 45.6783 59.2661 45.9775 59.7754 46.4925C60.2846 47.0074 60.5751 47.6985 60.5865 48.4219C60.5978 49.1453 60.3291 49.8451 59.8362 50.3757L59.8078 50.4397Z" fill="#CF7A64"/>
<path d="M55.0696 64.2076L58.2237 64.2538L57.113 67.8627C57.113 67.8627 54.265 67.4755 54.2223 65.9304L55.0696 64.2076Z" fill="#CE7A63"/>
<path d="M60.5199 66.5804L59.9147 67.7775C59.7993 68.0096 59.6047 68.1931 59.3658 68.2947C59.1269 68.3963 58.8594 68.4094 58.6117 68.3316L57.1058 67.8627L58.2166 64.2538L59.9966 65.1063C60.1293 65.1672 60.2485 65.254 60.3471 65.3617C60.4456 65.4693 60.5215 65.5956 60.5703 65.733C60.6191 65.8705 60.6398 66.0163 60.6311 66.1618C60.6225 66.3074 60.5846 66.4497 60.5199 66.5804Z" fill="#CE7A63"/>
<path d="M59.1457 44.337C57.5829 44.7136 55.721 45.3316 54.0478 47.1787C52.4279 49.0894 51.0172 51.1673 49.8399 53.3772C51.6199 56.4533 54.4964 56.8085 55.2689 56.606C57.9781 54.7873 59.6228 53.8603 60.3846 51.4519C61.1465 49.0436 60.3134 46.2019 59.1457 44.337Z" fill="#263238"/>
<path d="M66.5718 37.5739C66.4822 37.5715 66.394 37.5503 66.3131 37.5118C66.2321 37.4732 66.1602 37.4181 66.1019 37.3501C65.763 36.8691 65.6228 36.2763 65.7103 35.6948C65.7993 34.6505 66.3048 33.8335 66.8673 33.8335C66.9571 33.8352 67.0455 33.8561 67.1265 33.8947C67.2076 33.9333 67.2794 33.9887 67.3372 34.0573C67.6767 34.5367 67.8159 35.129 67.7253 35.709C67.6398 36.7533 67.1165 37.5739 66.5718 37.5739ZM66.8673 34.0218C66.4188 34.0218 65.9773 34.7961 65.899 35.7126C65.8225 36.2437 65.9496 36.7841 66.255 37.2258C66.2955 37.2747 66.346 37.3146 66.403 37.3427C66.4601 37.3709 66.5225 37.3867 66.5861 37.3892C67.0346 37.3892 67.4761 36.6148 67.5544 35.6984C67.6299 35.1684 67.5029 34.6295 67.1984 34.1887C67.1571 34.1365 67.1047 34.0941 67.045 34.0646C66.9853 34.0351 66.9197 34.0192 66.8531 34.0182L66.8673 34.0218Z" fill="white"/>
<path d="M68.5262 35.7978C68.5079 35.7978 68.49 35.7924 68.4748 35.7823C68.4596 35.7722 68.4478 35.7578 68.4407 35.741C68.4334 35.7219 68.4219 35.7047 68.4072 35.6906C68.3924 35.6765 68.3747 35.6658 68.3553 35.6593C68.1105 35.6294 67.8623 35.674 67.6433 35.7872C67.6321 35.7925 67.62 35.7955 67.6076 35.7961C67.5952 35.7966 67.5828 35.7947 67.5712 35.7904C67.5596 35.7861 67.5489 35.7795 67.5399 35.771C67.5309 35.7625 67.5237 35.7523 67.5187 35.741C67.5089 35.7183 67.5082 35.6927 67.5168 35.6696C67.5254 35.6464 67.5427 35.6274 67.565 35.6167C67.825 35.4843 68.1206 35.4383 68.4087 35.4852C68.4937 35.5188 68.5625 35.5836 68.6009 35.6664C68.6094 35.6891 68.609 35.7141 68.5998 35.7366C68.5905 35.759 68.5731 35.777 68.5511 35.7872C68.5434 35.7921 68.535 35.7957 68.5262 35.7978Z" fill="white"/>
<path d="M119.174 43.7475C121.962 40.5506 120.523 37.0589 117.394 35.1336C114.265 33.2084 110.609 34.615 109.206 37.8794C107.804 41.1438 108.302 41.9892 107.426 42.1668C107.027 43.886 108.263 45.6905 109.694 44.7385C111.858 45.6514 115.653 47.7827 119.174 43.7475Z" fill="#263238"/>
<path d="M115.344 46.337C113.813 46.337 112.46 45.6728 111.471 45.1861L111.029 44.9694L111.172 44.6711C111.311 44.735 111.46 44.8096 111.617 44.8878C113.503 45.8149 116.351 47.2144 119.392 44.0601C120.513 42.895 121.033 41.5736 120.901 40.2807C120.759 38.8953 119.869 37.5455 118.459 36.5794L118.648 36.3058C120.139 37.3289 121.079 38.7639 121.232 40.2487C121.375 41.6695 120.823 43.0549 119.634 44.2874C118.146 45.8362 116.679 46.337 115.344 46.337Z" fill="#263238"/>
<path d="M108.9 39.1688C108.299 37.066 108.986 32.7963 114.24 32.7928C119.495 32.7892 121.716 36.4976 119.527 39.5738C113.186 41.0053 108.9 39.1688 108.9 39.1688Z" fill="#263238"/>
<path d="M106.729 43.3958C103.457 44.2554 106.291 49.6972 109.505 47.2143C108.793 47.1645 107.227 45.5945 108.437 44.5786C107.156 43.4632 106.729 43.3958 106.729 43.3958Z" fill="#263238"/>
<path d="M106.771 48.2552C106.469 48.255 106.17 48.1844 105.899 48.0491C105.434 47.7818 105.056 47.3863 104.81 46.91C104.565 46.4337 104.462 45.8968 104.514 45.3637C104.556 44.9176 104.741 44.4966 105.04 44.1623C105.339 43.828 105.737 43.598 106.177 43.506L106.259 43.8292C105.882 43.8988 105.538 44.0902 105.281 44.3739C105.023 44.6576 104.867 45.0179 104.835 45.3993C104.787 45.8648 104.875 46.3343 105.087 46.7514C105.3 47.1684 105.629 47.5154 106.034 47.7508C106.729 48.106 107.533 47.9106 108.295 47.2144L108.519 47.463C108.059 47.9391 107.434 48.2223 106.771 48.2552Z" fill="#263238"/>
<path d="M109.292 44.9445C108.452 44.7704 107.156 42.5966 107.69 42.0779C107.366 42.0905 107.053 42.2047 106.798 42.4043C106.542 42.6039 106.356 42.8787 106.266 43.1898C106.049 43.8611 106.479 45.1185 107.982 45.4951C108.712 45.6869 109.292 44.9445 109.292 44.9445Z" fill="#FFCA40"/>
<path d="M109.452 53.9101C109.427 54.7236 109.367 55.5264 109.317 56.3327L109.11 58.7481C109.039 59.558 108.94 60.3643 108.84 61.1813C108.786 61.5863 108.726 61.9983 108.651 62.4246C108.578 62.8825 108.472 63.3348 108.334 63.7779C107.788 65.3925 107.063 66.9413 106.173 68.3957C105.337 69.8133 104.409 71.1743 103.393 72.4699C103.278 72.6275 103.107 72.7355 102.915 72.7719C102.723 72.8083 102.524 72.7704 102.36 72.6659C102.195 72.5615 102.076 72.3982 102.027 72.2094C101.978 72.0206 102.003 71.8204 102.097 71.6494V71.6316C102.809 70.2321 103.521 68.7899 104.148 67.3691C104.457 66.6587 104.767 65.9483 105.031 65.213C105.296 64.5173 105.518 63.8054 105.693 63.0817C105.769 62.7493 105.824 62.4123 105.857 62.0729C105.889 61.7177 105.914 61.3127 105.935 60.922L106.063 58.5456L106.188 56.1551C106.241 55.3559 106.277 54.5566 106.344 53.761C106.367 53.3507 106.553 52.9664 106.86 52.6926C107.167 52.4188 107.571 52.278 107.982 52.301C108.393 52.3241 108.778 52.5092 109.053 52.8157C109.327 53.1221 109.468 53.5247 109.445 53.935L109.452 53.9101Z" fill="#FFB573"/>
<path d="M109.213 68.3743C109.213 68.3743 109.213 86.9731 110.346 97.0469C110.463 106.503 112.627 127.872 112.627 127.872H115.016C115.422 117.269 118.38 107.373 116.412 98.0344C121.011 79.6735 118.879 68.3991 118.879 68.3991L109.213 68.3743Z" fill="#FFB573"/>
<path d="M111.819 68.3849C111.819 68.3849 113.599 91.1469 117.188 99.2883C120.94 107.849 127.601 124.618 128.259 127.46L130.257 126.931C130.257 126.931 128.936 108.524 122.838 98.1196C124.724 72.4663 119.972 68.3778 119.972 68.3778L111.819 68.3849Z" fill="#FFB573"/>
<path d="M108.452 49.2817C106.447 50.9725 105.803 53.7254 105.828 55.5902C107.028 57.5546 110.776 58.162 110.776 58.162C110.776 58.162 111.371 54.3257 111.086 52.5177C110.801 50.7096 109.609 48.3049 108.452 49.2817Z" fill="#263238"/>
<path d="M107.013 52.8125C106.9 51.7901 107.184 50.7633 107.807 49.9433C108.429 49.1233 109.343 48.5726 110.36 48.4043C110.94 48.3013 111.552 48.2054 112.14 48.1308C113.971 47.935 115.814 47.8697 117.654 47.9354C118.181 47.9354 118.697 47.9639 119.185 47.9958C119.615 48.0241 120.035 48.1404 120.419 48.3374C120.802 48.5343 121.141 48.8079 121.414 49.141C121.687 49.4741 121.889 49.8596 122.006 50.2737C122.124 50.6877 122.155 51.1215 122.097 51.5479C120.933 59.256 120.242 64.8293 121.004 68.2073C121.004 68.2073 123.411 71.4043 124.504 78.7642C125.458 85.1829 125.216 96.0062 126.266 101.821C122.514 104.496 110.602 104.332 108.847 102.769C109.342 91.0119 106.932 75.6064 108.765 68.4915C108.032 64.5487 108.43 61.5365 108.017 59.1459C105.258 57.3024 107.323 55.5938 107.013 52.8125Z" fill="#263238"/>
<path d="M113.952 69.6211C111.841 69.6211 109.883 69.4186 109.021 69.0386C108.665 68.8823 108.498 68.6975 108.519 68.4844C108.52 68.471 108.524 68.4579 108.53 68.446C108.536 68.434 108.544 68.4234 108.555 68.4147C108.565 68.4061 108.577 68.3996 108.59 68.3957C108.603 68.3919 108.616 68.3906 108.63 68.3921C108.656 68.3956 108.68 68.4088 108.697 68.4292C108.714 68.4496 108.723 68.4756 108.722 68.5022C108.722 68.6549 108.954 68.7899 109.103 68.8574C111.179 69.7703 119.694 69.6673 121.061 68.147C121.08 68.1277 121.107 68.1168 121.134 68.1168C121.161 68.1168 121.188 68.1277 121.207 68.147C121.217 68.156 121.225 68.1669 121.23 68.1792C121.236 68.1914 121.239 68.2046 121.239 68.218C121.239 68.2314 121.236 68.2446 121.23 68.2569C121.225 68.2691 121.217 68.2801 121.207 68.2891C120.385 69.1948 117.006 69.6211 113.952 69.6211Z" fill="white"/>
<path d="M113.849 68.8965C111.738 68.8965 109.78 68.694 108.918 68.3175C108.562 68.1612 108.395 67.9622 108.416 67.7598C108.42 67.7328 108.434 67.7082 108.455 67.691C108.476 67.6738 108.503 67.6654 108.53 67.6674C108.557 67.671 108.581 67.6849 108.598 67.7061C108.615 67.7274 108.622 67.7543 108.619 67.7811C108.619 67.9338 108.85 68.0653 109 68.1363C111.079 69.0492 119.591 68.9462 120.962 67.4259C120.981 67.4076 121.006 67.3975 121.033 67.3975C121.059 67.3975 121.085 67.4076 121.104 67.4259C121.122 67.445 121.132 67.4705 121.132 67.4969C121.132 67.5234 121.122 67.5488 121.104 67.568C120.282 68.4702 116.907 68.8965 113.849 68.8965Z" fill="white"/>
<path opacity="0.2" d="M115.7 92.8056C116.024 88.0778 115.7 80.9984 112.802 77.0307C113.564 82.0605 115.7 92.8056 115.7 92.8056Z" fill="black"/>
<path d="M116.747 41.7903C116.501 43.5663 116.341 46.8094 117.651 47.9425C114.883 49.1747 112.562 51.2273 111.004 53.8213C109.267 49.8678 112.136 48.1379 112.136 48.1379C114.087 47.598 113.952 46.1416 113.528 44.7812L116.747 41.7903Z" fill="#FFB573"/>
<path opacity="0.2" d="M115.433 43.0121L113.528 44.7882C113.631 45.1034 113.707 45.4265 113.756 45.7544C114.504 45.6194 115.497 44.7598 115.536 43.9783C115.562 43.6527 115.527 43.3251 115.433 43.0121Z" fill="black"/>
<path d="M117.48 37.8652C117.629 40.7992 117.754 42.0424 116.455 43.6729C114.5 46.1274 110.873 45.591 109.851 42.7422C108.932 40.174 108.843 35.8049 111.56 34.3841C114.276 32.9632 117.327 34.9276 117.48 37.8652Z" fill="#FFB573"/>
<path d="M114.717 35.5456C114.497 38.6395 117.85 41.3 118.9 40.1243C119.951 38.9485 117.363 33.4357 114.717 35.5456Z" fill="#263238"/>
<path d="M110.05 35.297C113.838 38.1706 118.256 38.1564 117.975 36.0607C117.693 33.9649 112.296 32.1072 110.05 35.297Z" fill="#263238"/>
<path d="M112.941 39.0409C112.969 39.2789 112.862 39.485 112.706 39.4992C112.549 39.5134 112.396 39.3322 112.371 39.0942C112.346 38.8562 112.45 38.6538 112.61 38.6395C112.77 38.6253 112.916 38.8136 112.941 39.0409Z" fill="#263238"/>
<path d="M109.979 39.3535C110.007 39.5915 109.901 39.7975 109.74 39.8117C109.58 39.8259 109.434 39.6448 109.409 39.4068C109.384 39.1688 109.488 38.9663 109.644 38.9521C109.801 38.9379 109.954 39.1155 109.979 39.3535Z" fill="#263238"/>
<path d="M109.716 38.9556L109.118 38.8455C109.118 38.8455 109.466 39.2647 109.716 38.9556Z" fill="#263238"/>
<path d="M110.915 39.4672C110.761 40.0285 110.529 40.5654 110.225 41.0621C110.357 41.1375 110.504 41.1838 110.655 41.1978C110.807 41.2119 110.96 41.1935 111.104 41.1438L110.915 39.4672Z" fill="#ED893E"/>
<path d="M118.434 40.5258C118.34 40.7754 118.192 41.0015 118.001 41.1886C117.811 41.3757 117.582 41.5192 117.33 41.6092C116.679 41.8187 116.305 41.119 116.447 40.3872C116.572 39.7265 117.06 38.8208 117.733 38.9344C118.405 39.0481 118.697 39.8793 118.434 40.5258Z" fill="#FFB573"/>
<path d="M113.706 37.8545C113.667 37.8485 113.632 37.8283 113.607 37.7977C113.5 37.6537 113.362 37.5362 113.203 37.4542C113.044 37.3723 112.867 37.3282 112.688 37.3253C112.651 37.3283 112.613 37.3167 112.584 37.2928C112.555 37.269 112.536 37.2348 112.532 37.1974C112.53 37.1789 112.532 37.1603 112.538 37.1427C112.544 37.1252 112.554 37.1089 112.566 37.095C112.578 37.0811 112.593 37.0698 112.61 37.0617C112.627 37.0537 112.645 37.0491 112.663 37.0482C112.89 37.0454 113.115 37.0968 113.318 37.1981C113.521 37.2994 113.697 37.4478 113.831 37.6308C113.843 37.645 113.852 37.6615 113.857 37.6792C113.862 37.6969 113.863 37.7155 113.861 37.7338C113.859 37.7521 113.853 37.7698 113.843 37.7856C113.834 37.8015 113.821 37.8153 113.806 37.8261C113.778 37.8478 113.742 37.8579 113.706 37.8545Z" fill="#263238"/>
<path d="M109.096 38.334C109.062 38.3465 109.024 38.3465 108.989 38.334C108.955 38.3191 108.928 38.2916 108.913 38.2573C108.899 38.2229 108.898 38.1843 108.911 38.1493C108.994 37.9427 109.125 37.7588 109.293 37.613C109.462 37.4672 109.663 37.3636 109.879 37.311C109.917 37.3048 109.956 37.3136 109.987 37.3355C110.018 37.3574 110.04 37.3907 110.047 37.4283C110.053 37.464 110.045 37.5008 110.024 37.5307C110.004 37.5606 109.972 37.5812 109.936 37.5881C109.765 37.6314 109.607 37.7149 109.474 37.8317C109.341 37.9485 109.239 38.0951 109.175 38.2594C109.168 38.2767 109.157 38.2923 109.143 38.3051C109.13 38.318 109.114 38.3278 109.096 38.334Z" fill="#263238"/>
<path d="M112.681 38.6467L112.083 38.533C112.083 38.533 112.428 38.9522 112.681 38.6467Z" fill="#263238"/>
<path d="M117.124 63.7494L114.771 62.5524L114.226 65.5184C114.226 65.5184 116.127 65.9731 117.466 65.4154L117.676 65.0602C117.729 64.4137 117.651 64.1437 117.124 63.7494Z" fill="#FFB573"/>
<path d="M112.898 63.3516L112.841 64.6552C112.833 64.8434 112.896 65.0279 113.018 65.1715C113.14 65.3151 113.312 65.4073 113.5 65.4296L114.233 65.5184L114.778 62.5524L113.592 62.6341C113.408 62.6479 113.236 62.7286 113.108 62.8609C112.98 62.9932 112.905 63.1678 112.898 63.3516Z" fill="#FFB573"/>
<path d="M122.108 50.7096C122.685 52.3329 123.204 53.9491 123.671 55.6044C124.175 57.2801 124.576 58.9847 124.874 60.7088C124.952 61.1931 124.997 61.682 125.009 62.1723C125.033 62.8413 124.874 63.5042 124.55 64.0904C124.198 64.6856 123.675 65.1611 123.048 65.4544C122.537 65.69 121.991 65.8377 121.431 65.8913C120.479 65.9726 119.519 65.914 118.583 65.7173C118.14 65.6375 117.701 65.532 117.27 65.4011C116.835 65.2802 116.407 65.1355 115.988 64.9678C115.814 64.8986 115.67 64.7682 115.585 64.601C115.5 64.4339 115.478 64.2415 115.525 64.0598C115.572 63.8782 115.683 63.7198 115.839 63.6142C115.994 63.5087 116.183 63.4633 116.369 63.4866H116.412C116.793 63.5327 117.209 63.5825 117.608 63.6144C118.007 63.6464 118.416 63.6606 118.811 63.6713C119.558 63.7004 120.306 63.6347 121.036 63.4759C121.318 63.4137 121.587 63.3057 121.834 63.1562C121.975 63.0781 122.084 62.9521 122.14 62.801C122.194 62.6276 122.209 62.4444 122.183 62.2646C122.149 61.9063 122.093 61.5504 122.015 61.199C121.859 60.4388 121.659 59.6432 121.421 58.8546C121.182 58.066 120.962 57.2668 120.709 56.4711C120.207 54.8869 119.687 53.2742 119.171 51.7078C119.038 51.3187 119.065 50.8928 119.247 50.5237C119.428 50.1547 119.749 49.8727 120.139 49.7399C120.529 49.607 120.956 49.6342 121.326 49.8154C121.696 49.9966 121.978 50.317 122.111 50.7061L122.108 50.7096Z" fill="#FFB573"/>
<path d="M102.339 71.0988L99.7084 70.8892L100.339 73.8375C100.339 73.8375 102.062 73.564 103.115 72.6724C103.233 72.5692 103.309 72.4264 103.329 72.271C103.347 72.1611 103.336 72.0485 103.297 71.9442C103.24 71.7239 103.119 71.5255 102.948 71.3748C102.777 71.2241 102.565 71.1279 102.339 71.0988Z" fill="#FFB573"/>
<path d="M98.2736 72.342L98.7222 73.5675C98.7855 73.7451 98.9142 73.8921 99.0822 73.9785C99.2501 74.0649 99.4447 74.0843 99.6264 74.0328L100.338 73.8375L99.7083 70.8892L98.6403 71.4149C98.4765 71.4983 98.3488 71.6386 98.2813 71.8093C98.2137 71.98 98.211 72.1695 98.2736 72.342Z" fill="#FFB573"/>
<path d="M120.328 48.3013C122.086 49.0401 122.923 50.2336 124.375 53.5513C124.019 55.8247 120.171 57.757 120.171 57.757C120.171 57.757 118.9 54.8798 118.48 53.0966C118.06 51.3135 118.548 47.5518 120.328 48.3013Z" fill="#263238"/>
<path d="M115.201 127.886C115.186 127.844 115.156 127.808 115.117 127.784C115.079 127.76 115.033 127.75 114.988 127.755L112.766 127.719C112.533 127.704 112.3 127.753 112.094 127.862C111.077 128.495 109.936 128.902 108.747 129.055C108.277 129.126 108.491 129.922 109.602 129.932C111.442 129.954 111.773 129.815 113.343 129.833C114.682 129.833 114.055 129.908 115.123 129.932C115.379 129.932 115.586 129.773 115.554 129.595L115.201 127.886Z" fill="#263238"/>
<path d="M130.652 126.551C130.625 126.514 130.587 126.486 130.543 126.473C130.5 126.46 130.453 126.461 130.41 126.476L128.249 127.006C128.021 127.048 127.81 127.154 127.64 127.311C127.117 127.915 126.394 128.842 124.899 129.066C124.425 129.137 124.639 129.932 125.75 129.943C127.59 129.964 127.822 129.282 129.345 128.902C130.645 128.579 130.057 128.799 131.079 128.547C131.328 128.49 131.488 128.277 131.41 128.114L130.652 126.551Z" fill="#263238"/>
<path d="M112.044 52.2832C112.863 51.9777 115.166 51.7965 116.205 52.7627C117.907 51.8889 118.836 49.3918 118.626 47.8643C118.227 47.564 117.734 47.4131 117.234 47.4381C117.234 47.4381 113.443 49.8251 112.044 52.2832Z" fill="#FAFAFA"/>
<path d="M110.531 52.3116C110.531 52.3116 110.061 50.3154 112.311 48.0811C112.04 47.907 111.097 48.2409 111.097 48.2409C111.097 48.2409 108.363 49.7861 108.801 52.9617C109.272 52.5317 109.892 52.299 110.531 52.3116Z" fill="#FAFAFA"/>
<path d="M113.688 41.3C113.803 41.1919 113.906 41.0729 113.998 40.9448C114.004 40.9364 114.009 40.9267 114.012 40.9164C114.014 40.9061 114.014 40.8954 114.012 40.8849C114.01 40.8745 114.006 40.8646 114 40.856C113.994 40.8473 113.986 40.8401 113.977 40.8347C113.96 40.8205 113.939 40.8126 113.918 40.8126C113.896 40.8126 113.875 40.8205 113.859 40.8347C113.65 41.1172 113.38 41.3488 113.069 41.5125C112.757 41.6761 112.413 41.7674 112.061 41.7796C112.049 41.777 112.037 41.7772 112.025 41.7801C112.013 41.7829 112.002 41.7884 111.993 41.796C111.983 41.8037 111.976 41.8133 111.97 41.8243C111.965 41.8353 111.962 41.8473 111.962 41.8595C111.962 41.8717 111.965 41.8837 111.97 41.8947C111.976 41.9056 111.983 41.9153 111.993 41.923C112.002 41.9306 112.013 41.9361 112.025 41.9389C112.037 41.9418 112.049 41.9419 112.061 41.9394C112.663 41.9294 113.241 41.7022 113.688 41.3Z" fill="#263238"/>
</svg>
