<svg width="189" height="121" viewBox="0 0 189 121" fill="none" xmlns="http://www.w3.org/2000/svg">
    <path d="M91.0261 9.05478L85.1633 94.668H156.651L163.126 0.0848389H100.612L91.0261 9.05478Z" fill="#FFCA40" />
    <path opacity="0.8" d="M91.0261 9.05478L85.1633 94.668H156.651L163.126 0.0848389H100.612L91.0261 9.05478Z"
        fill="white" />
    <path
        d="M150.801 28.989C155.617 24.3351 155.997 16.9163 151.651 12.4187C147.305 7.92107 139.877 8.04775 135.061 12.7017C130.245 17.3556 129.865 24.7744 134.211 29.272C138.557 33.7696 145.985 33.6429 150.801 28.989Z"
        fill="#FFCA40" />
    <path
        d="M150.386 28.5596C154.948 24.1509 155.309 17.1231 151.192 12.8627C147.075 8.60223 140.039 8.72244 135.476 13.1312C130.914 17.5399 130.553 24.5677 134.67 28.8281C138.788 33.0886 145.824 32.9683 150.386 28.5596Z"
        fill="white" />
    <mask id="mask0_1_7943" style="mask-type:luminance" maskUnits="userSpaceOnUse" x="131" y="9" width="24" height="23">
        <path
            d="M150.386 28.5596C154.948 24.1509 155.309 17.1231 151.192 12.8627C147.074 8.60223 140.038 8.72244 135.476 13.1312C130.914 17.5399 130.553 24.5677 134.67 28.8281C138.788 33.0886 145.824 32.9683 150.386 28.5596Z"
            fill="white" />
    </mask>
    <g mask="url(#mask0_1_7943)">
        <path
            d="M140.015 24.704L137.83 24.5604C137.83 24.5604 136.813 29.7919 136.163 30.2304C135.275 30.8465 133.517 32.3358 132.349 32.8764C132.229 33.2303 132.204 33.6098 132.277 33.9763C134.092 33.9763 137.448 32.1695 138.027 31.3833C139.353 29.618 140.015 24.704 140.015 24.704Z"
            fill="#FFC3BD" />
        <path
            d="M141.058 21.423C141.72 22.6552 139.66 27.093 139.66 27.093L136.855 26.216C136.935 24.8516 137.251 23.5114 137.789 22.2546C138.484 20.8068 140.332 20.0697 141.058 21.423Z"
            fill="#263238" />
        <path opacity="0.2"
            d="M138.915 23.691C139.293 24.5831 138.798 26.7377 138.408 28.1022C137.46 26.4768 137.327 24.9648 138.915 23.691Z"
            fill="black" />
        <path
            d="M138.904 21.6422C138.473 23.2185 137.626 27.3576 138.318 33.8554H145.7C145.87 32.6193 145.655 26.5827 147.39 20.7577C146.51 20.5837 145.62 20.47 144.725 20.4175C143.584 20.3513 142.441 20.3513 141.3 20.4175C140.813 20.4627 140.331 20.5513 139.86 20.6821C139.631 20.7453 139.422 20.8671 139.255 21.0355C139.087 21.2038 138.966 21.4129 138.904 21.6422Z"
            fill="#263238" />
        <path opacity="0.2"
            d="M145.507 22.1941C145.284 23.1543 145.371 25.4487 146.04 28.1023C146.239 25.817 146.635 23.5531 147.224 21.3361C146.698 21.2718 145.719 21.3021 145.507 22.1941Z"
            fill="black" />
        <path
            d="M144.574 17.212C144.256 18.3158 144.022 19.6804 144.725 20.4175C144.725 20.4175 144.177 21.5515 142.132 21.5515C140.261 21.5515 141.3 20.4175 141.3 20.4175C142.555 20.1226 142.634 18.6031 142.498 17.7488L144.574 17.212Z"
            fill="#FFC3BD" />
        <path
            d="M142.128 21.5326C142.319 21.8529 142.42 22.2183 142.423 22.591C142.423 22.591 145.069 21.6876 145.069 20.3608C145.069 20.3608 144.725 20.1454 144.509 19.9828C144.517 19.9715 144.339 21.0034 142.128 21.5326Z"
            fill="white" />
        <path
            d="M142.056 21.5326C141.818 21.8204 141.641 22.1534 141.535 22.5116C141.223 22.2732 140.995 21.9417 140.884 21.5652C140.774 21.1887 140.786 20.7867 140.918 20.4175C141.138 20.3295 141.364 20.2587 141.595 20.2058C141.595 20.2058 141.274 21.2491 142.056 21.5326Z"
            fill="white" />
        <path opacity="0.2"
            d="M142.506 17.7488C142.615 18.3559 142.553 18.9813 142.328 19.5556C142.523 19.5278 142.713 19.4718 142.891 19.3893C143.617 19.0605 144.007 18.5464 144.434 17.7866C144.475 17.59 144.528 17.4086 144.581 17.212L142.506 17.7488Z"
            fill="black" />
        <path
            d="M140.71 16.7282C140.767 16.8955 140.857 17.0493 140.976 17.1795C141.095 17.3097 141.24 17.4135 141.402 17.4842C141.844 17.6732 142.158 17.2687 142.132 16.8038C142.105 16.3388 141.826 15.7794 141.338 15.7869C141.228 15.7922 141.121 15.8232 141.025 15.8775C140.929 15.9317 140.848 16.0077 140.787 16.0992C140.726 16.1908 140.687 16.2954 140.674 16.4046C140.661 16.5138 140.673 16.6247 140.71 16.7282Z"
            fill="#FFC3BD" />
        <path opacity="0.2"
            d="M140.71 16.7282C140.767 16.8955 140.857 17.0493 140.976 17.1795C141.095 17.3097 141.24 17.4135 141.402 17.4842C141.844 17.6732 142.158 17.2687 142.132 16.8038C142.105 16.3388 141.826 15.7794 141.338 15.7869C141.228 15.7922 141.121 15.8232 141.025 15.8775C140.929 15.9317 140.848 16.0077 140.787 16.0992C140.726 16.1908 140.687 16.2954 140.674 16.4046C140.661 16.5138 140.673 16.6247 140.71 16.7282Z"
            fill="black" />
        <path
            d="M142.687 13.64C142.544 12.7668 141.255 14.3015 141.531 15.1104C141.807 15.9193 142.846 14.6228 142.687 13.64Z"
            fill="#263238" />
        <path
            d="M145.447 15.8551C144.974 17.3179 144.77 18.1911 143.844 18.8186C143.564 19.0329 143.228 19.1622 142.877 19.1911C142.525 19.22 142.173 19.1473 141.861 18.9816C141.55 18.816 141.293 18.5643 141.12 18.2566C140.948 17.949 140.867 17.5982 140.888 17.2461C140.926 15.8626 141.693 13.7042 143.258 13.364C144.823 13.0238 145.908 14.3922 145.447 15.8551Z"
            fill="#FFC3BD" />
        <path
            d="M145.016 14.9894C143.421 14.7626 141.13 14.4678 141.962 13.1637C142.752 11.92 145.904 12.1469 144.948 12.6987C146.184 12.7706 147.757 13.364 146.57 13.7722C147.526 14.4526 147.148 16.2746 145.322 16.9097C144.797 16.1461 144.396 15.8097 145.016 14.9894Z"
            fill="#263238" />
        <path
            d="M145.674 17.5977C145.404 17.8739 145.042 18.0409 144.657 18.0664C144.158 18.0928 144.063 17.6166 144.332 17.2045C144.6 16.7925 145.122 16.3729 145.56 16.543C145.999 16.7131 146.01 17.2499 145.674 17.5977Z"
            fill="#FFC3BD" />
        <path
            d="M143.152 15.8853C143.122 16.0063 143.035 16.0894 142.956 16.0781C142.876 16.0667 142.842 15.9571 142.876 15.8361C142.91 15.7152 142.994 15.6283 143.069 15.6434C143.145 15.6585 143.186 15.7643 143.152 15.8853Z"
            fill="#263238" />
        <path
            d="M141.826 15.6509C141.795 15.7719 141.708 15.8588 141.633 15.8437C141.557 15.8286 141.519 15.7227 141.55 15.6018C141.58 15.4808 141.667 15.3977 141.746 15.409C141.826 15.4203 141.86 15.53 141.826 15.6509Z"
            fill="#263238" />
        <path
            d="M142.234 15.787C141.996 16.1303 141.717 16.4427 141.402 16.7169C141.469 16.7896 141.552 16.8459 141.645 16.8813C141.737 16.9168 141.837 16.9303 141.935 16.921L142.234 15.787Z"
            fill="#ED847E" />
        <path
            d="M142.192 17.3141C142.188 17.3132 142.183 17.3114 142.18 17.3088C142.176 17.3062 142.173 17.3029 142.17 17.299C142.168 17.2951 142.166 17.2907 142.165 17.2862C142.164 17.2816 142.165 17.277 142.166 17.2725C142.169 17.2632 142.175 17.2553 142.183 17.2498C142.192 17.2444 142.201 17.2417 142.211 17.2423C142.362 17.2689 142.517 17.2613 142.665 17.2201C142.813 17.1788 142.95 17.1051 143.065 17.0041C143.069 17.0008 143.072 16.9982 143.077 16.9964C143.081 16.9946 143.085 16.9937 143.09 16.9937C143.095 16.9937 143.099 16.9946 143.103 16.9964C143.108 16.9982 143.111 17.0008 143.115 17.0041C143.121 17.0112 143.125 17.0207 143.125 17.0306C143.125 17.0405 143.121 17.05 143.115 17.0571C142.991 17.1674 142.843 17.2479 142.683 17.2924C142.523 17.337 142.355 17.3444 142.192 17.3141Z"
            fill="#263238" />
        <path
            d="M143.667 15.5148C143.656 15.5133 143.647 15.509 143.639 15.5023C143.631 15.4956 143.625 15.4869 143.621 15.477C143.59 15.397 143.539 15.3261 143.473 15.2713C143.407 15.2164 143.328 15.1792 143.243 15.1633C143.234 15.163 143.225 15.1607 143.217 15.1565C143.209 15.1523 143.202 15.1464 143.197 15.1391C143.191 15.1319 143.187 15.1235 143.186 15.1146C143.184 15.1057 143.184 15.0965 143.186 15.0877C143.19 15.0687 143.201 15.0517 143.216 15.0398C143.231 15.028 143.25 15.0222 143.27 15.0234C143.377 15.0391 143.478 15.0821 143.563 15.1484C143.649 15.2146 143.715 15.3018 143.757 15.4014C143.764 15.4195 143.763 15.4393 143.755 15.4569C143.747 15.4744 143.733 15.4884 143.716 15.4959C143.709 15.5024 143.702 15.5074 143.693 15.5106C143.685 15.5139 143.676 15.5153 143.667 15.5148Z"
            fill="#263238" />
        <path
            d="M141.372 15.065C141.363 15.0681 141.354 15.0681 141.345 15.065C141.339 15.0586 141.334 15.051 141.33 15.0425C141.326 15.0341 141.325 15.025 141.325 15.0158C141.325 15.0066 141.326 14.9975 141.33 14.9891C141.334 14.9807 141.339 14.973 141.345 14.9667C141.421 14.8776 141.516 14.8066 141.622 14.7588C141.729 14.7111 141.845 14.6878 141.962 14.6907C141.971 14.6921 141.979 14.6953 141.987 14.7C141.995 14.7048 142.001 14.7111 142.007 14.7185C142.012 14.7259 142.016 14.7342 142.018 14.7431C142.02 14.752 142.02 14.7612 142.018 14.7701C142.015 14.7898 142.004 14.8074 141.988 14.8193C141.971 14.8313 141.951 14.8366 141.931 14.8344C141.839 14.8332 141.748 14.8527 141.664 14.8913C141.581 14.9298 141.507 14.9866 141.448 15.0574C141.437 15.066 141.424 15.0714 141.411 15.0727C141.397 15.0741 141.384 15.0714 141.372 15.065Z"
            fill="#263238" />
        <path
            d="M148.04 22.78L146.04 23.8422C146.04 23.8422 147.972 28.605 147.643 29.3194C147.193 30.2947 146.449 32.4379 145.715 33.5001C145.802 33.8541 145.986 34.1765 146.248 34.43C147.851 33.4623 149.82 30.1926 149.907 29.2476C150.104 27.0892 148.04 22.78 148.04 22.78Z"
            fill="#FFC3BD" />
        <path
            d="M147.39 20.7577C148.788 21.0034 149.816 25.9855 149.816 25.9855L146.369 26.972C145.879 25.8263 145.474 24.6463 145.156 23.4415C144.698 21.5969 145.908 20.4893 147.39 20.7577Z"
            fill="#263238" />
    </g>
    <path
        d="M146.996 84.5781C151.812 79.9242 152.193 72.5054 147.847 68.0078C143.5 63.5101 136.073 63.6368 131.257 68.2907C126.441 72.9446 126.06 80.3634 130.407 84.861C134.753 89.3587 142.18 89.232 146.996 84.5781Z"
        fill="#FFCA40" />
    <path
        d="M146.581 84.1449C151.143 79.7361 151.504 72.7084 147.387 68.4479C143.27 64.1875 136.234 64.3077 131.672 68.7164C127.11 73.1252 126.749 80.1529 130.866 84.4134C134.983 88.6738 142.019 88.5536 146.581 84.1449Z"
        fill="white" />
    <mask id="mask1_1_7943" style="mask-type:luminance" maskUnits="userSpaceOnUse" x="127" y="65" width="24"
        height="23">
        <path
            d="M146.581 84.1448C151.143 79.7361 151.504 72.7083 147.387 68.4479C143.27 64.1874 136.234 64.3077 131.672 68.7164C127.11 73.1251 126.749 80.1529 130.866 84.4133C134.983 88.6738 142.019 88.5536 146.581 84.1448Z"
            fill="white" />
    </mask>
    <g mask="url(#mask1_1_7943)">
        <path
            d="M135.264 80.3985L133.211 79.7294C133.211 79.7294 130.977 84.6434 130.248 84.9383C129.25 85.3163 127.224 86.3784 125.972 86.6317C125.769 86.9533 125.652 87.3216 125.632 87.7014C127.363 88.1475 131.004 87.1647 131.748 86.5259C133.434 85.0743 135.264 80.3985 135.264 80.3985Z"
            fill="#FFB573" />
        <path
            d="M137.051 77.401C137.384 78.7769 134.345 82.6741 134.345 82.6741L131.884 81.1167C132.29 79.7934 132.914 78.5475 133.733 77.4312C134.746 76.1725 136.685 75.8928 137.051 77.401Z"
            fill="#FFCA40" />
        <path opacity="0.3"
            d="M137.051 77.401C137.384 78.7769 134.345 82.6741 134.345 82.6741L131.884 81.1167C132.29 79.7934 132.914 78.5475 133.733 77.4312C134.746 76.1725 136.685 75.8928 137.051 77.401Z"
            fill="black" />
        <path opacity="0.2"
            d="M135.131 79.1133C135.362 80.0658 135.154 81.5892 134.545 82.8933C134.005 82.073 133.374 80.1188 135.131 79.1133Z"
            fill="black" />
        <path
            d="M135.097 77.246C134.666 78.8222 133.823 82.9613 134.511 89.4592H141.897C142.068 88.2231 141.848 82.1864 143.583 76.3615C142.704 76.1874 141.813 76.0737 140.918 76.0213C139.778 75.9551 138.634 75.9551 137.494 76.0213C137.007 76.0668 136.525 76.1554 136.054 76.2858C135.825 76.3498 135.617 76.4718 135.449 76.64C135.281 76.8083 135.16 77.017 135.097 77.246Z"
            fill="#FFCA40" />
        <path opacity="0.3"
            d="M135.097 77.246C134.666 78.8222 133.823 82.9613 134.511 89.4592H141.897C142.068 88.2231 141.848 82.1864 143.583 76.3615C142.704 76.1874 141.813 76.0737 140.918 76.0213C139.778 75.9551 138.634 75.9551 137.494 76.0213C137.007 76.0668 136.525 76.1554 136.054 76.2858C135.825 76.3498 135.617 76.4718 135.449 76.64C135.281 76.8083 135.16 77.017 135.097 77.246Z"
            fill="black" />
        <path opacity="0.2"
            d="M141.728 79.0188C141.505 79.9789 141.308 82.2582 142.234 83.6871C142.434 81.4017 142.831 79.1378 143.421 76.9209C142.884 76.868 141.939 78.1191 141.728 79.0188Z"
            fill="black" />
        <g opacity="0.95">
            <path
                d="M138.231 78.9696L137.827 79.1473L137.517 78.8676C137.123 78.5412 136.837 78.1035 136.696 77.6119C136.555 77.1202 136.566 76.5974 136.727 76.112C136.976 76.0623 137.229 76.0257 137.483 76.0023C138.623 75.9362 139.767 75.9362 140.907 76.0023C141.172 76.0023 141.436 76.0364 141.693 76.0628L141.436 76.3917C140.569 77.475 139.475 78.355 138.231 78.9696Z"
                fill="white" />
        </g>
        <path
            d="M140.771 72.7969C140.45 73.9007 140.216 75.2653 140.919 76.0024C140.124 76.9863 139.126 77.787 137.993 78.3498C137.647 78.08 137.407 77.6965 137.315 77.2671C137.224 76.8376 137.287 76.3897 137.494 76.0024C138.753 75.7075 138.828 74.188 138.692 73.3337L140.771 72.7969Z"
            fill="#FFB573" />
        <path opacity="0.2"
            d="M138.692 73.3337C138.801 73.9408 138.739 74.5662 138.514 75.1405C138.71 75.1122 138.901 75.0562 139.081 74.9742C139.803 74.6453 140.193 74.1313 140.62 73.3715C140.665 73.1749 140.714 72.9935 140.771 72.7969L138.692 73.3337Z"
            fill="black" />
        <path
            d="M136.904 72.332C136.96 72.4999 137.051 72.6541 137.171 72.7844C137.291 72.9147 137.437 73.0182 137.6 73.088C138.042 73.277 138.356 72.8725 138.325 72.4076C138.295 71.9426 138.019 71.3832 137.535 71.3908C137.425 71.3955 137.318 71.4261 137.221 71.4801C137.125 71.5341 137.043 71.6099 136.982 71.7016C136.92 71.7932 136.881 71.898 136.868 72.0075C136.854 72.1171 136.867 72.2282 136.904 72.332Z"
            fill="#FFB573" />
        <path opacity="0.2"
            d="M136.904 72.332C136.96 72.4999 137.051 72.6541 137.171 72.7844C137.291 72.9147 137.437 73.0182 137.6 73.088C138.042 73.277 138.356 72.8725 138.325 72.4076C138.295 71.9426 138.019 71.3832 137.535 71.3908C137.425 71.3955 137.318 71.4261 137.221 71.4801C137.125 71.5341 137.043 71.6099 136.982 71.7016C136.92 71.7932 136.881 71.898 136.868 72.0075C136.854 72.1171 136.867 72.2282 136.904 72.332Z"
            fill="black" />
        <path
            d="M138.654 69.7275C138.511 68.741 137.415 69.8712 137.29 70.5932C137.165 71.3151 137.77 72.0447 138.182 71.3492C138.594 70.6536 138.726 70.2605 138.654 69.7275Z"
            fill="#263238" />
        <path
            d="M141.641 71.4399C141.168 72.9028 140.964 73.7722 140.038 74.4034C139.758 74.6177 139.422 74.747 139.07 74.7759C138.719 74.8048 138.366 74.7321 138.055 74.5665C137.743 74.4008 137.486 74.1492 137.314 73.8415C137.141 73.5338 137.061 73.1831 137.082 72.831C137.12 71.4475 137.887 69.2891 139.452 68.9489C141.017 68.6087 142.128 69.9771 141.641 71.4399Z"
            fill="#FFB573" />
        <path
            d="M140.926 72.9708C140.359 72.5928 140.257 72.4492 140.548 72.109C141.039 71.5571 140.31 71.4777 140.695 70.7935C141.232 69.841 139.52 70.51 139.49 69.8183C139.463 69.2551 137.978 70.2681 137.823 69.6179C137.6 68.6427 139.028 68.8241 139.278 68.3479C139.527 67.8716 140.994 67.7998 141.228 68.4953C141.463 69.1908 142.2 68.6351 142.68 69.4819C143.16 70.3286 142.166 70.3928 142.646 71.2169C143.024 71.8784 142.294 72.3509 141.776 72.8763C141.467 73.2165 141.278 73.2089 140.926 72.9708Z"
            fill="#263238" />
        <path
            d="M141.962 72.9822C141.717 73.2822 141.369 73.4802 140.987 73.5378C140.488 73.6059 140.352 73.1598 140.586 72.71C140.82 72.2602 141.304 71.8179 141.758 71.954C142.211 72.0901 142.268 72.6079 141.962 72.9822Z"
            fill="#FFB573" />
        <path
            d="M139.346 71.4701C139.316 71.5911 139.229 71.6743 139.153 71.6629C139.078 71.6516 139.04 71.542 139.07 71.421C139.1 71.3 139.187 71.2131 139.267 71.2282C139.346 71.2433 139.38 71.3492 139.346 71.4701Z"
            fill="#263238" />
        <path
            d="M138.023 71.2358C137.989 71.3567 137.902 71.4436 137.827 71.4285C137.751 71.4134 137.713 71.3076 137.743 71.1866C137.774 71.0657 137.864 70.9825 137.94 70.9938C138.016 71.0052 138.053 71.1148 138.023 71.2358Z"
            fill="#263238" />
        <path
            d="M138.427 71.3718C138.192 71.7154 137.914 72.0278 137.6 72.3017C137.667 72.3745 137.75 72.4308 137.842 72.4662C137.935 72.5016 138.034 72.5152 138.133 72.5058L138.427 71.3718Z"
            fill="#ED893E" />
        <path
            d="M138.386 72.8989C138.381 72.8982 138.377 72.8964 138.374 72.8937C138.37 72.8911 138.367 72.8876 138.365 72.8836C138.362 72.8796 138.361 72.8752 138.361 72.8706C138.361 72.8661 138.362 72.8616 138.363 72.8574C138.365 72.848 138.37 72.8397 138.378 72.8341C138.386 72.8285 138.395 72.826 138.405 72.8271C138.556 72.8537 138.711 72.8461 138.859 72.8049C139.007 72.7637 139.144 72.6899 139.259 72.589C139.262 72.5857 139.266 72.5832 139.27 72.5814C139.275 72.5797 139.279 72.5788 139.284 72.5788C139.288 72.5788 139.293 72.5797 139.297 72.5814C139.301 72.5832 139.305 72.5857 139.308 72.589C139.312 72.5922 139.314 72.596 139.316 72.6002C139.318 72.6045 139.318 72.609 139.318 72.6135C139.318 72.6181 139.318 72.6226 139.316 72.6268C139.314 72.6311 139.312 72.6349 139.308 72.6381C139.185 72.7491 139.037 72.8303 138.877 72.8755C138.718 72.9207 138.549 72.9287 138.386 72.8989Z"
            fill="#263238" />
        <path
            d="M139.86 71.0997C139.85 71.0981 139.84 71.0938 139.832 71.0871C139.824 71.0805 139.818 71.0717 139.815 71.0619C139.784 70.9818 139.733 70.911 139.666 70.8561C139.6 70.8012 139.521 70.7641 139.437 70.7481C139.428 70.7472 139.419 70.7445 139.412 70.7401C139.404 70.7358 139.397 70.7298 139.392 70.7227C139.387 70.7156 139.383 70.7075 139.381 70.6989C139.379 70.6902 139.379 70.6812 139.38 70.6725C139.384 70.6535 139.394 70.6365 139.41 70.6247C139.425 70.6128 139.444 70.607 139.463 70.6083C139.57 70.6239 139.671 70.667 139.757 70.7332C139.842 70.7994 139.909 70.8866 139.951 70.9863C139.957 71.0044 139.957 71.0242 139.949 71.0417C139.941 71.0593 139.927 71.0732 139.909 71.0808C139.903 71.0872 139.895 71.0922 139.887 71.0955C139.878 71.0987 139.869 71.1002 139.86 71.0997Z"
            fill="#263238" />
        <path
            d="M137.551 70.6499C137.542 70.6523 137.533 70.6523 137.524 70.6499C137.517 70.6435 137.512 70.6359 137.509 70.6275C137.505 70.619 137.503 70.6099 137.503 70.6007C137.503 70.5916 137.505 70.5825 137.509 70.574C137.512 70.5656 137.517 70.558 137.524 70.5516C137.598 70.4615 137.692 70.3898 137.798 70.3419C137.904 70.294 138.02 70.2714 138.136 70.2757C138.145 70.277 138.154 70.2802 138.162 70.2849C138.17 70.2897 138.176 70.296 138.182 70.3034C138.187 70.3108 138.191 70.3192 138.193 70.328C138.195 70.3369 138.195 70.3461 138.193 70.355C138.19 70.374 138.179 70.3911 138.164 70.4029C138.148 70.4147 138.129 70.4206 138.11 70.4193C138.018 70.4176 137.926 70.4368 137.843 70.4754C137.759 70.5141 137.685 70.5711 137.626 70.6423C137.615 70.6501 137.603 70.655 137.589 70.6563C137.576 70.6576 137.563 70.6554 137.551 70.6499Z"
            fill="#263238" />
        <path
            d="M144.396 78.535L142.295 79.3363C142.295 79.3363 143.576 84.3524 143.16 85.0252C142.593 85.9438 141.584 87.9925 140.726 88.9602C140.764 89.3244 140.904 89.6705 141.13 89.9581C142.828 89.2021 145.19 86.1781 145.398 85.2445C145.863 83.1088 144.396 78.535 144.396 78.535Z"
            fill="#FFB573" />
        <path
            d="M144.018 76.4257C145.36 76.8528 145.727 81.9672 145.727 81.9672L142.211 82.5115C141.878 81.3024 141.633 80.0707 141.478 78.826C141.259 76.9209 142.574 75.9683 144.018 76.4257Z"
            fill="#FFCA40" />
        <path opacity="0.3"
            d="M144.018 76.4257C145.36 76.8528 145.727 81.9672 145.727 81.9672L142.211 82.5115C141.878 81.3024 141.633 80.0707 141.478 78.826C141.259 76.9209 142.574 75.9683 144.018 76.4257Z"
            fill="black" />
    </g>
    <path
        d="M113.945 56.7856C118.761 52.1317 119.141 44.7129 114.795 40.2153C110.449 35.7176 103.021 35.8443 98.2054 40.4982C93.3895 45.1521 93.0088 52.5709 97.3552 57.0686C101.702 61.5662 109.129 61.4395 113.945 56.7856Z"
        fill="#FFCA40" />
    <path
        d="M113.53 56.3561C118.092 51.9474 118.453 44.9196 114.336 40.6592C110.218 36.3987 103.182 36.519 98.6203 40.9277C94.0581 45.3364 93.6973 52.3642 97.8144 56.6246C101.932 60.8851 108.968 60.7649 113.53 56.3561Z"
        fill="white" />
    <mask id="mask2_1_7943" style="mask-type:luminance" maskUnits="userSpaceOnUse" x="94" y="37" width="24" height="23">
        <path
            d="M113.53 56.3561C118.092 51.9474 118.453 44.9196 114.336 40.6592C110.218 36.3987 103.183 36.519 98.6203 40.9277C94.0581 45.3364 93.6973 52.3642 97.8145 56.6246C101.932 60.8851 108.968 60.7649 113.53 56.3561Z"
            fill="white" />
    </mask>
    <g mask="url(#mask2_1_7943)">
        <path
            d="M110.72 51.2585C110.777 52.1581 110.822 53.0653 110.856 53.9687L110.966 56.6677L110.985 56.9965L111.011 57.2838C111.041 57.4804 111.064 57.6845 111.105 57.8962C111.185 58.312 111.287 58.7353 111.408 59.1587C111.635 60.0092 111.911 60.8672 112.164 61.714L111.381 62.092C110.908 61.291 110.49 60.4588 110.13 59.6009C109.956 59.1662 109.794 58.724 109.654 58.259C109.579 58.0232 109.518 57.7834 109.469 57.5408L109.404 57.1628L109.367 56.8151C109.166 54.9856 109.034 53.1825 108.962 51.3643L110.72 51.2585Z"
            fill="#FF8B7B" />
        <path
            d="M110.304 49.274C110.992 49.4517 111.287 52.3472 111.287 52.3472L108.486 54.188C108.486 54.188 107.613 50.7596 108.206 49.9885C108.8 49.2173 109.295 49.017 110.304 49.274Z"
            fill="#FFCA40" />
        <path opacity="0.2" d="M110.194 49.9241L110.535 52.8385L109.397 53.5794L110.194 49.9241Z" fill="black" />
        <path
            d="M102.627 41.8198C101.444 41.9899 98.968 47.6448 103.005 50.2832C107.042 52.9217 110.021 49.9241 110.021 49.9241C110.021 49.9241 107.564 47.006 107.919 45.1009C108.274 43.1957 109.809 40.7954 106.664 39.9941C104.449 39.446 101.47 39.9752 102.627 41.8198Z"
            fill="#263238" />
        <path
            d="M110.304 49.2739C110.304 49.2739 111.094 49.5612 108.792 59.5707H101.856C102.166 56.7508 102.287 55.012 101.334 49.2248C102.314 49.028 103.307 48.9016 104.305 48.8468C105.353 48.773 106.403 48.773 107.45 48.8468C108.792 48.964 110.304 49.2739 110.304 49.2739Z"
            fill="#FFCA40" />
        <path opacity="0.2"
            d="M101.75 51.5193C102.366 51.6743 102.884 52.3584 102.744 53.621C102.661 54.2023 102.424 54.7506 102.056 55.2086C102.015 54.2371 101.905 53.1107 101.708 51.6705L101.75 51.5193Z"
            fill="black" />
        <path
            d="M106.933 51.0581C106.933 51.0581 105.734 51.9956 105.666 52.9897C104.77 52.298 103.625 50.4155 103.576 49.2097C103.576 49.1095 103.616 49.0133 103.687 48.9424C103.757 48.8715 103.854 48.8317 103.954 48.8317C104.039 48.8253 104.123 48.814 104.207 48.7977C104.242 48.7901 104.278 48.7905 104.313 48.799C104.348 48.8076 104.38 48.8239 104.407 48.8468L106.933 51.0581Z"
            fill="#FAFAFA" />
        <path
            d="M106.932 51.0581C107.251 51.2568 107.517 51.529 107.709 51.852C107.9 52.175 108.011 52.5393 108.032 52.9141C109.038 52.2148 108.694 50.1245 108.229 49.1001C108.193 49.0204 108.137 48.9516 108.066 48.9005C107.995 48.8494 107.912 48.8179 107.825 48.809C107.688 48.809 107.583 48.775 107.511 48.7599C107.485 48.7554 107.458 48.7612 107.436 48.776C107.414 48.7908 107.399 48.8135 107.394 48.8393L106.932 51.0581Z"
            fill="#FAFAFA" />
        <path
            d="M104.857 45.2974C104.986 46.3105 105.058 48.1664 104.305 48.8393C105.011 49.7598 105.907 50.5167 106.932 51.0581C108.414 49.9241 107.45 48.8393 107.45 48.8393C106.339 48.5709 106.426 47.7355 106.675 46.9493L104.857 45.2974Z"
            fill="#FF8B7B" />
        <path opacity="0.2"
            d="M105.598 45.9703L106.675 46.9455C106.614 47.1277 106.569 47.3149 106.539 47.505C106.112 47.4407 105.462 47.074 105.405 46.6053C105.419 46.3815 105.485 46.1639 105.598 45.9703Z"
            fill="black" />
        <path
            d="M103.273 43.6721C103.629 45.3012 103.746 45.9968 104.721 46.6583C105.048 46.8898 105.43 47.0308 105.829 47.0667C106.228 47.1027 106.629 47.0325 106.992 46.8631C107.355 46.6938 107.666 46.4314 107.895 46.1026C108.123 45.7738 108.261 45.3904 108.293 44.9913C108.426 43.4301 107.821 41.0298 106.082 40.735C105.688 40.6735 105.284 40.7082 104.906 40.8362C104.528 40.9642 104.187 41.1817 103.911 41.4701C103.635 41.7586 103.433 42.1095 103.322 42.4929C103.211 42.8763 103.194 43.2808 103.273 43.6721Z"
            fill="#FF8B7B" />
        <path
            d="M103.738 45.1387C104.786 44.1408 104.823 42.9047 104.559 42.5191C105.458 42.4435 107.787 41.8765 107.413 41.0071C107.038 40.1377 103.413 39.669 102.914 41.8917C101.712 42.8971 102.48 44.9119 103.738 45.1387Z"
            fill="#263238" />
        <path
            d="M106.01 43.5246C106.033 43.6607 106.12 43.7514 106.21 43.7325C106.301 43.7136 106.354 43.5889 106.331 43.4566C106.309 43.3243 106.222 43.226 106.135 43.2487C106.048 43.2714 105.991 43.3923 106.01 43.5246Z"
            fill="#263238" />
        <path
            d="M107.553 43.1882C107.571 43.3243 107.662 43.415 107.749 43.3961C107.836 43.3772 107.897 43.2525 107.874 43.1164C107.851 42.9803 107.764 42.8896 107.677 42.9085C107.626 42.9324 107.586 42.9738 107.563 43.0252C107.54 43.0765 107.536 43.1344 107.553 43.1882Z"
            fill="#263238" />
        <path d="M107.636 42.9274L107.949 42.761C107.949 42.761 107.821 43.0483 107.636 42.9274Z" fill="#263238" />
        <path
            d="M107.114 43.536C107.282 43.8163 107.489 44.0709 107.73 44.292C107.669 44.3559 107.596 44.4065 107.515 44.4403C107.433 44.4742 107.346 44.4906 107.258 44.4886L107.114 43.536Z"
            fill="#FF5652" />
        <path
            d="M106.596 45.1689C106.665 45.1652 106.733 45.1564 106.8 45.1425C106.811 45.1398 106.82 45.1333 106.827 45.1243C106.833 45.1153 106.836 45.1043 106.834 45.0933C106.834 45.0881 106.833 45.0829 106.83 45.0783C106.827 45.0737 106.824 45.0698 106.819 45.0669C106.815 45.0639 106.81 45.062 106.805 45.0614C106.799 45.0607 106.794 45.0613 106.789 45.0631C106.625 45.1057 106.454 45.1076 106.289 45.0687C106.124 45.0298 105.971 44.9514 105.844 44.8401C105.836 44.8329 105.826 44.8289 105.816 44.8289C105.805 44.8289 105.795 44.8329 105.787 44.8401C105.783 44.8436 105.78 44.848 105.778 44.8529C105.776 44.8578 105.774 44.8631 105.774 44.8684C105.774 44.8738 105.776 44.8791 105.778 44.884C105.78 44.8889 105.783 44.8932 105.787 44.8968C105.895 44.9964 106.023 45.0721 106.163 45.119C106.302 45.1659 106.45 45.1829 106.596 45.1689Z"
            fill="#263238" />
        <path
            d="M103.054 45.2974C103.137 45.4316 103.247 45.5469 103.378 45.6361C103.508 45.7253 103.655 45.7863 103.81 45.8153C104.234 45.8947 104.434 45.5015 104.309 45.1197C104.184 44.738 103.841 44.3222 103.421 44.4167C103.329 44.4367 103.244 44.4786 103.172 44.5386C103.101 44.5986 103.044 44.6751 103.008 44.7616C102.972 44.848 102.958 44.9418 102.966 45.0351C102.974 45.1284 103.004 45.2184 103.054 45.2974Z"
            fill="#FF8B7B" />
        <path
            d="M105.288 43.226C105.305 43.2241 105.321 43.2168 105.334 43.2053C105.347 43.1938 105.356 43.1786 105.36 43.1617C105.459 42.9061 105.654 42.6998 105.904 42.5872C105.915 42.583 105.924 42.5769 105.932 42.5691C105.94 42.5613 105.946 42.5521 105.95 42.5419C105.954 42.5317 105.956 42.5207 105.956 42.5097C105.956 42.4986 105.954 42.4877 105.95 42.4775C105.946 42.4682 105.94 42.4598 105.932 42.4529C105.925 42.4459 105.916 42.4405 105.907 42.437C105.897 42.4334 105.887 42.4319 105.877 42.4323C105.867 42.4328 105.857 42.4353 105.848 42.4397C105.699 42.506 105.565 42.6014 105.454 42.7202C105.343 42.839 105.257 42.9788 105.201 43.1315C105.198 43.1417 105.198 43.1524 105.199 43.1628C105.201 43.1733 105.205 43.1833 105.21 43.1922C105.216 43.2011 105.224 43.2087 105.233 43.2145C105.241 43.2203 105.251 43.2242 105.262 43.226C105.266 43.228 105.27 43.229 105.275 43.229C105.28 43.229 105.284 43.228 105.288 43.226Z"
            fill="#263238" />
        <path
            d="M107.927 42.1147C107.941 42.1147 107.955 42.1113 107.967 42.1047C107.98 42.0981 107.99 42.0886 107.998 42.0769C108.013 42.0615 108.021 42.0412 108.021 42.0202C108.021 41.9991 108.013 41.9789 107.998 41.9635C107.894 41.8912 107.773 41.845 107.647 41.8285C107.521 41.8121 107.392 41.826 107.273 41.869C107.253 41.8774 107.237 41.8929 107.228 41.9124C107.219 41.932 107.217 41.9542 107.224 41.9748C107.227 41.9849 107.233 41.9942 107.24 42.002C107.248 42.0098 107.257 42.016 107.267 42.0202C107.277 42.0245 107.287 42.0267 107.298 42.0267C107.309 42.0267 107.319 42.0244 107.329 42.0202C107.424 41.9856 107.525 41.9747 107.625 41.9885C107.724 42.0024 107.819 42.0405 107.9 42.0996L107.927 42.1147Z"
            fill="#263238" />
        <path d="M106.097 43.2638L106.411 43.0975C106.411 43.0975 106.278 43.3885 106.097 43.2638Z" fill="#263238" />
        <path
            d="M101.78 59.1662L101.561 59.7862C101.531 59.8353 101.588 59.8844 101.667 59.8844H108.796C108.86 59.8844 108.913 59.8542 108.921 59.8126L109.023 59.1927C109.023 59.1511 108.981 59.1133 108.909 59.1133H101.898C101.875 59.1114 101.853 59.1153 101.832 59.1246C101.812 59.1338 101.794 59.1482 101.78 59.1662Z"
            fill="#FFCA40" />
        <path opacity="0.2"
            d="M101.78 59.1662L101.561 59.7862C101.531 59.8353 101.588 59.8844 101.667 59.8844H108.796C108.86 59.8844 108.913 59.8542 108.921 59.8126L109.023 59.1927C109.023 59.1511 108.981 59.1133 108.909 59.1133H101.898C101.875 59.1114 101.853 59.1153 101.832 59.1246C101.812 59.1338 101.794 59.1482 101.78 59.1662Z"
            fill="white" />
        <path
            d="M102.691 59.9487H102.502C102.464 59.9487 102.438 59.9298 102.442 59.9071L102.585 59.1019C102.585 59.0793 102.623 59.0604 102.661 59.0604H102.85C102.888 59.0604 102.914 59.0793 102.91 59.1019L102.767 59.9071C102.763 59.9298 102.729 59.9487 102.691 59.9487Z"
            fill="#FFCA40" />
        <path opacity="0.4"
            d="M102.691 59.9487H102.502C102.464 59.9487 102.438 59.9298 102.442 59.9071L102.585 59.1019C102.585 59.0793 102.623 59.0604 102.661 59.0604H102.85C102.888 59.0604 102.914 59.0793 102.91 59.1019L102.767 59.9071C102.763 59.9298 102.729 59.9487 102.691 59.9487Z"
            fill="black" />
        <path
            d="M108.263 59.9487H108.074C108.036 59.9487 108.01 59.9298 108.014 59.9071L108.157 59.1019C108.157 59.0793 108.195 59.0604 108.233 59.0604H108.422C108.46 59.0604 108.486 59.0793 108.482 59.1019L108.339 59.9071C108.335 59.9298 108.301 59.9487 108.263 59.9487Z"
            fill="#FFCA40" />
        <path opacity="0.4"
            d="M108.263 59.9487H108.074C108.036 59.9487 108.01 59.9298 108.014 59.9071L108.157 59.1019C108.157 59.0793 108.195 59.0604 108.233 59.0604H108.422C108.46 59.0604 108.486 59.0793 108.482 59.1019L108.339 59.9071C108.335 59.9298 108.301 59.9487 108.263 59.9487Z"
            fill="black" />
        <path
            d="M105.489 59.9487H105.3C105.262 59.9487 105.235 59.9298 105.239 59.9071L105.383 59.1019C105.383 59.0793 105.421 59.0604 105.458 59.0604H105.647C105.685 59.0604 105.712 59.0793 105.708 59.1019L105.564 59.9071C105.56 59.9298 105.526 59.9487 105.489 59.9487Z"
            fill="#FFCA40" />
        <path opacity="0.4"
            d="M105.489 59.9487H105.3C105.262 59.9487 105.235 59.9298 105.239 59.9071L105.383 59.1019C105.383 59.0793 105.421 59.0604 105.458 59.0604H105.647C105.685 59.0604 105.712 59.0793 105.708 59.1019L105.564 59.9071C105.56 59.9298 105.526 59.9487 105.489 59.9487Z"
            fill="black" />
        <path
            d="M102.105 51.542C101.909 52.676 101.686 53.844 101.459 54.9931C101.349 55.5677 101.225 56.1271 101.104 56.713L100.926 57.5711L100.847 57.9491C100.837 57.976 100.837 58.0053 100.847 58.0322C100.908 58.1915 101.007 58.334 101.134 58.448C101.31 58.6195 101.502 58.7727 101.708 58.9054C102.172 59.2006 102.656 59.4621 103.156 59.6879C103.667 59.926 104.196 60.1453 104.732 60.3456C105.269 60.5459 105.817 60.7236 106.358 60.9202L106.161 61.7631C104.975 61.5688 103.808 61.2728 102.672 60.8786C102.083 60.6765 101.513 60.4236 100.968 60.1226C100.672 59.9576 100.392 59.7653 100.132 59.548C99.8009 59.2868 99.5408 58.9462 99.3762 58.5577C99.2842 58.3169 99.2481 58.0584 99.2704 57.8017C99.2893 57.6391 99.2968 57.6051 99.3082 57.5257L99.3422 57.3065L99.4745 56.4409C99.569 55.8625 99.6522 55.2842 99.7542 54.7058C99.947 53.5529 100.132 52.4 100.37 51.2509L102.105 51.542Z"
            fill="#FF8B7B" />
        <path
            d="M101.334 49.2286C100.627 49.4403 99.6296 51.8293 99.6296 51.8293L101.898 54.3278C101.898 54.3278 103.319 51.7574 103.092 50.8616C102.865 49.9657 102.143 48.9867 101.334 49.2286Z"
            fill="#FFCA40" />
    </g>
    <path opacity="0.3"
        d="M97.2671 19.7333H124.362C124.614 19.7294 124.856 19.6315 125.04 19.4588C125.224 19.2861 125.337 19.0511 125.356 18.7996C125.366 18.6801 125.351 18.5598 125.312 18.4465C125.273 18.3331 125.21 18.2293 125.128 18.1417C125.046 18.0541 124.947 17.9846 124.836 17.9377C124.726 17.8909 124.607 17.8677 124.487 17.8697H97.3956C97.1436 17.8735 96.902 17.9707 96.7176 18.1425C96.5332 18.3144 96.4192 18.5485 96.3977 18.7996C96.3877 18.9193 96.4028 19.0398 96.4421 19.1533C96.4814 19.2669 96.544 19.3709 96.6258 19.4588C96.7077 19.5468 96.807 19.6166 96.9175 19.6638C97.0279 19.7111 97.147 19.7348 97.2671 19.7333Z"
        fill="#FFCA40" />
    <path opacity="0.3"
        d="M104.751 23.8308H124.071C124.323 23.8261 124.565 23.7281 124.749 23.5557C124.933 23.3832 125.047 23.1486 125.069 22.8972C125.079 22.7776 125.064 22.6573 125.024 22.544C124.985 22.4307 124.922 22.3268 124.84 22.2392C124.759 22.1516 124.659 22.0821 124.549 22.0353C124.438 21.9884 124.319 21.9653 124.199 21.9673H104.88C104.628 21.971 104.386 22.0683 104.202 22.2401C104.017 22.4119 103.903 22.6461 103.882 22.8972C103.872 23.0169 103.887 23.1374 103.926 23.2509C103.965 23.3644 104.028 23.4685 104.11 23.5564C104.192 23.6443 104.291 23.7141 104.402 23.7614C104.512 23.8086 104.631 23.8323 104.751 23.8308Z"
        fill="#FFCA40" />
    <path
        d="M109.265 15.632H124.634C124.886 15.629 125.128 15.5319 125.312 15.3599C125.496 15.1878 125.609 14.9532 125.628 14.7021C125.638 14.5827 125.623 14.4626 125.584 14.3493C125.545 14.236 125.483 14.1322 125.402 14.0443C125.32 13.9565 125.221 13.8866 125.111 13.8391C125.001 13.7916 124.883 13.7675 124.763 13.7685H109.393C109.141 13.7724 108.899 13.8703 108.716 14.0429C108.532 14.2156 108.419 14.4507 108.399 14.7021C108.389 14.8213 108.404 14.9413 108.443 15.0544C108.482 15.1674 108.545 15.2711 108.626 15.3587C108.708 15.4462 108.807 15.5158 108.917 15.5628C109.027 15.6099 109.145 15.6335 109.265 15.632Z"
        fill="white" />
    <path opacity="0.3"
        d="M109.299 79.601H120.261C120.381 79.5989 120.5 79.6221 120.61 79.6689C120.72 79.7158 120.82 79.7852 120.902 79.8729C120.984 79.9605 121.046 80.0643 121.086 80.1777C121.125 80.291 121.14 80.4113 121.13 80.5308C121.11 80.7829 120.997 81.0185 120.812 81.1913C120.628 81.364 120.385 81.4615 120.132 81.4645H109.17C109.05 81.466 108.931 81.4423 108.82 81.395C108.71 81.3478 108.611 81.2779 108.529 81.19C108.447 81.1021 108.384 80.9981 108.345 80.8845C108.306 80.771 108.291 80.6505 108.301 80.5308C108.321 80.2794 108.435 80.0447 108.62 79.8728C108.804 79.7008 109.046 79.6039 109.299 79.601Z"
        fill="#FFCA40" />
    <path opacity="0.3"
        d="M94.4546 79.601H105.417C105.537 79.5989 105.656 79.6221 105.766 79.6689C105.876 79.7158 105.976 79.7852 106.058 79.8729C106.14 79.9605 106.202 80.0643 106.242 80.1777C106.281 80.291 106.296 80.4113 106.286 80.5308C106.265 80.7823 106.151 81.0169 105.966 81.1893C105.782 81.3618 105.54 81.4598 105.288 81.4645H94.3261C94.206 81.466 94.0869 81.4423 93.9764 81.395C93.866 81.3478 93.7666 81.2779 93.6848 81.19C93.6029 81.1021 93.5403 80.9981 93.5011 80.8845C93.4618 80.771 93.4467 80.6505 93.4567 80.5308C93.4765 80.2791 93.59 80.0439 93.7748 79.8718C93.9595 79.6996 94.2021 79.603 94.4546 79.601Z"
        fill="#FFCA40" />
    <path opacity="0.3"
        d="M101.213 75.5034H120.533C120.653 75.5014 120.772 75.5246 120.882 75.5714C120.993 75.6182 121.092 75.6877 121.174 75.7753C121.256 75.863 121.319 75.9668 121.358 76.0801C121.397 76.1934 121.412 76.3138 121.402 76.4333C121.382 76.6847 121.27 76.9198 121.086 77.0925C120.902 77.2651 120.66 77.363 120.408 77.367H101.085C100.965 77.3685 100.846 77.3448 100.736 77.2975C100.625 77.2502 100.526 77.1803 100.445 77.0923C100.363 77.0044 100.301 76.9002 100.262 76.7867C100.223 76.6732 100.209 76.5528 100.219 76.4333C100.239 76.1822 100.352 75.9476 100.536 75.7755C100.72 75.6035 100.961 75.5064 101.213 75.5034Z"
        fill="#FFCA40" />
    <path
        d="M98.6581 71.4021H120.809C120.929 71.4006 121.048 71.4242 121.158 71.4715C121.268 71.5188 121.367 71.5887 121.449 71.6767C121.531 71.7647 121.593 71.8688 121.632 71.9823C121.67 72.0958 121.685 72.2163 121.674 72.3358C121.655 72.5869 121.542 72.8215 121.358 72.9935C121.174 73.1656 120.932 73.2627 120.68 73.2656H98.5409C98.4209 73.2677 98.3019 73.2445 98.1915 73.1977C98.081 73.1508 97.9817 73.0813 97.8997 72.9937C97.8178 72.9061 97.7552 72.8023 97.7158 72.6889C97.6765 72.5756 97.6614 72.4553 97.6715 72.3358C97.6911 72.0856 97.8028 71.8516 97.9851 71.6791C98.1674 71.5066 98.4072 71.4079 98.6581 71.4021Z"
        fill="white" />
    <path opacity="0.3"
        d="M144.698 51.8066H124.513C124.261 51.8105 124.019 51.9084 123.835 52.0811C123.652 52.2537 123.539 52.4888 123.519 52.7402C123.509 52.8595 123.524 52.9794 123.563 53.0925C123.602 53.2056 123.664 53.3092 123.746 53.3968C123.828 53.4843 123.926 53.5539 124.036 53.601C124.146 53.648 124.265 53.6716 124.385 53.6701H144.57C144.822 53.6671 145.063 53.5701 145.247 53.398C145.431 53.226 145.544 52.9913 145.564 52.7402C145.575 52.6207 145.56 52.5003 145.521 52.3868C145.482 52.2733 145.42 52.1692 145.338 52.0812C145.257 51.9932 145.158 51.9233 145.048 51.876C144.937 51.8287 144.818 51.8051 144.698 51.8066Z"
        fill="#FFCA40" />
    <path opacity="0.3"
        d="M134.318 47.709H124.793C124.541 47.713 124.299 47.8109 124.115 47.9835C123.931 48.1562 123.818 48.3913 123.799 48.6427C123.789 48.7622 123.804 48.8826 123.843 48.9959C123.882 49.1092 123.945 49.213 124.027 49.3007C124.109 49.3883 124.208 49.4578 124.319 49.5046C124.429 49.5514 124.548 49.5746 124.668 49.5726H134.19C134.442 49.5688 134.684 49.4716 134.868 49.2998C135.052 49.128 135.166 48.8938 135.188 48.6427C135.198 48.523 135.183 48.4025 135.143 48.289C135.104 48.1755 135.042 48.0714 134.96 47.9835C134.878 47.8956 134.779 47.8258 134.668 47.7785C134.558 47.7312 134.439 47.7076 134.318 47.709Z"
        fill="#FFCA40" />
    <path
        d="M139.894 43.604H125.077C124.825 43.6078 124.583 43.705 124.399 43.8768C124.214 44.0486 124.1 44.2828 124.079 44.5339C124.069 44.6536 124.084 44.7741 124.123 44.8876C124.162 45.0011 124.225 45.1052 124.307 45.1931C124.389 45.281 124.488 45.3508 124.598 45.3981C124.709 45.4454 124.828 45.469 124.948 45.4675H139.769C140.022 45.4645 140.264 45.3669 140.448 45.194C140.632 45.0212 140.745 44.7857 140.764 44.5339C140.774 44.4144 140.758 44.294 140.719 44.1807C140.68 44.0674 140.617 43.9635 140.535 43.8759C140.453 43.7883 140.354 43.7188 140.244 43.672C140.133 43.6252 140.014 43.602 139.894 43.604Z"
        fill="white" />
    <path opacity="0.3"
        d="M151.88 47.709H138.348C138.096 47.7137 137.854 47.8118 137.67 47.9842C137.485 48.1566 137.372 48.3912 137.35 48.6427C137.34 48.7622 137.355 48.8826 137.395 48.9959C137.434 49.1092 137.496 49.213 137.578 49.3007C137.66 49.3883 137.76 49.4578 137.87 49.5046C137.981 49.5514 138.1 49.5746 138.22 49.5726H151.752C152.004 49.5688 152.246 49.4716 152.43 49.2998C152.614 49.128 152.728 48.8938 152.75 48.6427C152.76 48.523 152.745 48.4025 152.705 48.289C152.666 48.1755 152.604 48.0714 152.522 47.9835C152.44 47.8956 152.341 47.8258 152.23 47.7785C152.12 47.7312 152.001 47.7076 151.88 47.709Z"
        fill="#FFCA40" />
    <path opacity="0.3" d="M91.0261 9.05478H101.149L100.612 0.0848389L91.0261 9.05478Z" fill="#FFCA40" />
    <path d="M91.0261 9.05478L101.863 7.75824L100.612 0.0848389L91.0261 9.05478Z" fill="#FFCA40" />
    <path
        d="M50.1909 35.6283C49.8696 36.3843 49.5143 37.2234 49.2005 38.0323C48.8868 38.8413 48.5655 39.6691 48.2744 40.4893C47.6825 42.0938 47.1964 43.7353 46.8191 45.4033C46.7662 45.6074 46.7398 45.8078 46.702 46.0081L46.649 46.3105L46.6075 46.5487C46.57 46.885 46.5624 47.224 46.5848 47.5617C46.6499 48.3877 46.7622 49.2093 46.9212 50.0225C47.2463 51.7197 47.6772 53.4774 48.1043 55.2011L46.1841 56.0138C45.2301 54.3824 44.4255 52.6681 43.78 50.8919C43.4348 49.9581 43.1681 48.9972 42.9824 48.0191C42.8717 47.4566 42.8223 46.8837 42.835 46.3105V46.0648C42.835 45.9854 42.835 45.9363 42.835 45.8683L42.8728 45.4903C42.8993 45.2446 42.9144 44.9913 42.956 44.7343C43.2362 42.828 43.6775 40.9489 44.2752 39.1172C44.57 38.2138 44.8724 37.3217 45.224 36.4485C45.5755 35.5753 45.9157 34.7173 46.358 33.8214L50.1909 35.6283Z"
        fill="#7F3E3B" />
    <path
        d="M48.0401 54.7323L49.5143 56.1687L46.2975 57.6807C46.2975 57.6807 45.5188 56.3199 46.0556 55.0876L48.0401 54.7323Z"
        fill="#7F3E3B" />
    <path d="M50.7012 58.312L47.9871 59.4233L46.2975 57.6656L49.5143 56.1687L50.7012 58.312Z" fill="#7F3E3B" />
    <path
        d="M120.883 50.0424C125.13 39.7893 120.261 28.0346 110.008 23.7877C99.7548 19.5407 88.0002 24.4096 83.7532 34.6627C79.5063 44.9158 84.3752 56.6705 94.6283 60.9174C104.881 65.1644 116.636 60.2955 120.883 50.0424Z"
        fill="#FFCA40" />
    <path
        d="M102.317 61.3889C112.83 61.3889 121.353 52.8662 121.353 42.3529C121.353 31.8395 112.83 23.3168 102.317 23.3168C91.8037 23.3168 83.281 31.8395 83.281 42.3529C83.281 52.8662 91.8037 61.3889 102.317 61.3889Z"
        fill="white" />
    <mask id="mask3_1_7943" style="mask-type:luminance" maskUnits="userSpaceOnUse" x="83" y="23" width="39" height="39">
        <path
            d="M102.317 61.3889C112.83 61.3889 121.353 52.8662 121.353 42.3529C121.353 31.8395 112.83 23.3168 102.317 23.3168C91.8037 23.3168 83.281 31.8395 83.281 42.3529C83.281 52.8662 91.8037 61.3889 102.317 61.3889Z"
            fill="white" />
    </mask>
    <g mask="url(#mask3_1_7943)">
        <path
            d="M110.58 46.7338C110.792 48.2912 110.958 49.8561 111.143 51.4172L111.658 56.078L111.726 56.6374L111.805 57.1402L111.915 57.6618L112.047 58.1948C112.243 58.9092 112.466 59.635 112.716 60.3607C113.2 61.816 113.767 63.2751 114.322 64.7266L113.022 65.4297C112.13 64.0863 111.325 62.6874 110.611 61.2415C110.259 60.5081 109.923 59.7635 109.635 58.9735L109.424 58.3762L109.235 57.7525C109.178 57.5371 109.129 57.314 109.076 57.0948L108.959 56.49C108.668 54.91 108.429 53.3526 108.203 51.7877C107.976 50.2228 107.776 48.6578 107.609 47.0854L110.58 46.7338Z"
            fill="#FF8B7B" />
        <path
            d="M109.639 43.4414C110.845 43.7476 111.688 48.7108 111.688 48.7108L107.08 51.8444C107.08 51.8444 105.19 45.9627 106.108 44.6397C107.076 43.26 107.881 42.9954 109.639 43.4414Z"
            fill="#FFCA40" />
        <path opacity="0.2" d="M109.533 44.549L110.459 49.5499L108.592 50.8163L109.533 44.549Z" fill="black" />
        <path
            d="M95.6 30.6575C93.5966 30.9485 90.0094 40.6442 97.2481 45.1689C104.487 49.6936 109.242 44.5528 109.242 44.5528C109.242 44.5528 104.687 39.5443 105.084 36.2783C105.481 33.0124 107.821 28.896 102.332 27.5239C98.4426 26.5524 93.4038 27.4898 95.6 30.6575Z"
            fill="#263238" />
        <path
            d="M109.639 43.4415C109.639 43.4415 111.034 43.9328 108.244 61.0941H96.3636C96.5639 56.2594 96.5677 53.2808 94.2581 43.3583C95.9204 43.0131 97.6058 42.7908 99.3006 42.693C101.096 42.5625 102.899 42.5625 104.695 42.693C107.012 42.9047 109.639 43.4415 109.639 43.4415Z"
            fill="#FFCA40" />
        <path opacity="0.2"
            d="M95.2561 47.2858C96.3334 47.5541 97.3275 48.7259 97.2066 50.8881C97.141 51.8708 96.7975 52.8147 96.2162 53.6097C96.0272 51.9465 95.7059 50.0187 95.2032 47.5617L95.2561 47.2858Z"
            fill="black" />
        <path
            d="M104.071 46.4957C104.071 46.4957 102.124 48.0984 102.124 49.8032C100.507 48.6201 98.3255 45.392 98.0949 43.3281C98.0877 43.2448 98.0974 43.161 98.1234 43.0815C98.1494 43.0021 98.1912 42.9288 98.2463 42.8659C98.3014 42.8031 98.3686 42.752 98.4439 42.7158C98.5192 42.6796 98.6011 42.659 98.6846 42.6552C98.8295 42.6473 98.9735 42.6283 99.1155 42.5985C99.1763 42.5856 99.2392 42.5867 99.2994 42.6018C99.3597 42.6169 99.4157 42.6455 99.4633 42.6855L104.071 46.4957Z"
            fill="#FAFAFA" />
        <path
            d="M104.071 46.4957C104.638 46.8333 105.122 47.2944 105.487 47.8448C105.851 48.3951 106.087 49.0206 106.177 49.6746C107.813 48.4764 106.978 44.8929 106.067 43.139C105.995 43.0025 105.892 42.8856 105.764 42.7986C105.637 42.7116 105.491 42.6571 105.337 42.6401C105.095 42.6098 104.914 42.5796 104.793 42.5531C104.771 42.5488 104.749 42.549 104.727 42.5538C104.705 42.5586 104.684 42.5679 104.666 42.581C104.648 42.5942 104.633 42.6109 104.622 42.6301C104.61 42.6494 104.603 42.6708 104.6 42.693L104.071 46.4957Z"
            fill="#FAFAFA" />
        <path
            d="M99.8374 36.6185C100.178 38.3536 100.518 41.5325 99.3007 42.693C100.619 44.2684 102.241 45.5618 104.071 46.4957C106.479 44.5754 104.695 42.693 104.695 42.693C102.759 42.2318 102.805 40.803 103.149 39.446L99.8374 36.6185Z"
            fill="#FF8B7B" />
        <path opacity="0.2"
            d="M101.187 37.7715L103.145 39.446C103.062 39.7595 103.007 40.0794 102.979 40.4024C102.242 40.2965 101.089 39.6653 100.919 38.8601C100.917 38.4807 101.009 38.1067 101.187 37.7715Z"
            fill="black" />
        <path
            d="M96.9269 33.8327C97.7283 36.6223 98.008 37.8168 99.7619 38.9546C102.408 40.6594 105.647 39.0642 105.693 36.0893C105.734 33.4131 104.415 29.2853 101.399 28.7902C100.733 28.6746 100.05 28.7311 99.4122 28.9542C98.7749 29.1773 98.2051 29.5596 97.7571 30.0648C97.3091 30.57 96.9976 31.1814 96.8523 31.8408C96.707 32.5003 96.7327 33.1859 96.9269 33.8327Z"
            fill="#FF8B7B" />
        <path
            d="M97.9022 36.3464C99.5843 34.6303 99.5011 32.5135 99.0022 31.852C100.537 31.7235 104.464 30.752 103.72 29.2665C102.975 27.7809 96.7077 26.972 96.1105 30.7785C94.1638 32.4984 95.7136 35.9571 97.9022 36.3464Z"
            fill="#263238" />
        <path
            d="M101.603 33.5794C101.656 33.81 101.818 33.9574 101.981 33.9347C102.143 33.912 102.211 33.689 102.162 33.4584C102.113 33.2279 101.947 33.0804 101.784 33.1031C101.622 33.1258 101.554 33.3488 101.603 33.5794Z"
            fill="#263238" />
        <path
            d="M104.207 33.02C104.26 33.2505 104.423 33.398 104.585 33.3753C104.748 33.3526 104.816 33.1296 104.763 32.899C104.71 32.6684 104.547 32.521 104.385 32.5399C104.222 32.5588 104.158 32.7705 104.207 33.02Z"
            fill="#263238" />
        <path d="M104.328 32.5513L104.846 32.2678C104.846 32.2678 104.653 32.7629 104.328 32.5513Z" fill="#263238" />
        <path
            d="M103.497 33.5945C103.814 34.0726 104.196 34.505 104.631 34.8797C104.532 34.9898 104.41 35.0769 104.275 35.135C104.139 35.1931 103.992 35.2208 103.844 35.2162L103.497 33.5945Z"
            fill="#FF5652" />
        <path
            d="M102.816 36.3993C102.933 36.3914 103.049 36.375 103.164 36.3501C103.182 36.3456 103.197 36.3345 103.207 36.319C103.217 36.3036 103.22 36.2849 103.217 36.267C103.212 36.2492 103.201 36.2338 103.186 36.224C103.17 36.2141 103.152 36.2106 103.134 36.214C102.848 36.2833 102.551 36.2852 102.265 36.2196C101.979 36.154 101.712 36.0227 101.486 35.836C101.472 35.8235 101.455 35.8166 101.436 35.8166C101.418 35.8166 101.401 35.8235 101.387 35.836C101.381 35.8424 101.375 35.85 101.372 35.8585C101.368 35.8669 101.366 35.876 101.366 35.8852C101.366 35.8944 101.368 35.9034 101.372 35.9119C101.375 35.9203 101.381 35.928 101.387 35.9343C101.583 36.103 101.809 36.231 102.055 36.3108C102.3 36.3906 102.559 36.4207 102.816 36.3993Z"
            fill="#263238" />
        <path
            d="M96.7417 36.6148C96.8976 36.8446 97.0975 37.0415 97.3297 37.1939C97.5619 37.3463 97.822 37.4514 98.0949 37.5031C98.8282 37.6391 99.1269 36.9701 98.8509 36.3124C98.6166 35.7227 97.9551 34.944 97.2482 35.1028C97.0957 35.1436 96.9556 35.2216 96.8406 35.3298C96.7255 35.438 96.6391 35.573 96.5889 35.7227C96.5387 35.8725 96.5264 36.0323 96.5531 36.188C96.5798 36.3436 96.6445 36.4902 96.7417 36.6148Z"
            fill="#FF8B7B" />
        <path
            d="M100.329 33.0729C100.358 33.0694 100.384 33.0569 100.405 33.0372C100.426 33.0175 100.441 32.9916 100.446 32.9633C100.514 32.7474 100.626 32.548 100.775 32.3776C100.924 32.2071 101.107 32.0694 101.312 31.9729C101.329 31.9656 101.344 31.9549 101.357 31.9415C101.369 31.9281 101.379 31.9123 101.385 31.8949C101.392 31.8776 101.395 31.8592 101.394 31.8407C101.393 31.8223 101.388 31.8043 101.38 31.7877C101.372 31.7711 101.361 31.7562 101.348 31.7439C101.334 31.7316 101.318 31.7222 101.301 31.7162C101.284 31.7102 101.265 31.7077 101.247 31.709C101.229 31.7102 101.211 31.7152 101.195 31.7235C100.949 31.8373 100.731 32.0025 100.555 32.208C100.379 32.4134 100.249 32.6542 100.174 32.9142C100.171 32.9318 100.171 32.9499 100.175 32.9674C100.178 32.985 100.186 33.0016 100.196 33.0163C100.206 33.0311 100.219 33.0437 100.234 33.0534C100.249 33.0631 100.266 33.0697 100.284 33.0729C100.298 33.0768 100.314 33.0768 100.329 33.0729Z"
            fill="#263238" />
        <path
            d="M104.706 31.1565C104.737 31.16 104.769 31.1527 104.795 31.1358C104.821 31.1189 104.841 31.0935 104.851 31.0637C104.861 31.0339 104.86 31.0017 104.849 30.9725C104.837 30.9432 104.816 30.9188 104.789 30.9032C104.609 30.7771 104.4 30.6964 104.182 30.6681C103.963 30.6398 103.741 30.6647 103.534 30.7406C103.501 30.7556 103.475 30.7829 103.462 30.8168C103.448 30.8507 103.448 30.8884 103.462 30.9221C103.469 30.9389 103.48 30.9541 103.493 30.9669C103.506 30.9796 103.521 30.9896 103.538 30.9963C103.555 31.003 103.573 31.0063 103.591 31.0058C103.609 31.0054 103.627 31.0014 103.644 30.9939C103.809 30.9364 103.985 30.919 104.158 30.9433C104.331 30.9677 104.495 31.033 104.638 31.1338C104.658 31.1485 104.682 31.1565 104.706 31.1565Z"
            fill="#263238" />
        <path d="M101.72 33.1296L102.238 32.8461C102.238 32.8461 102.06 33.3413 101.72 33.1296Z" fill="#263238" />
        <path
            d="M96.186 60.3985L95.8798 61.4607C95.842 61.5439 95.9365 61.627 96.0763 61.627H108.301C108.407 61.627 108.497 61.5741 108.505 61.5099L108.611 60.4439C108.611 60.3721 108.524 60.3078 108.407 60.3078H96.3901C96.351 60.3028 96.3113 60.3087 96.2753 60.3247C96.2394 60.3407 96.2084 60.3662 96.186 60.3985Z"
            fill="#FFCA40" />
        <path opacity="0.2"
            d="M96.186 60.3985L95.8798 61.4607C95.842 61.5439 95.9365 61.627 96.0763 61.627H108.301C108.407 61.627 108.497 61.5741 108.505 61.5099L108.611 60.4439C108.611 60.3721 108.524 60.3078 108.407 60.3078H96.3901C96.351 60.3028 96.3113 60.3087 96.2753 60.3247C96.2394 60.3407 96.2084 60.3662 96.186 60.3985Z"
            fill="white" />
        <path
            d="M97.8417 61.748H97.5241C97.4599 61.748 97.4107 61.714 97.4145 61.6724L97.5657 60.2927C97.5657 60.2511 97.6262 60.2171 97.6905 60.2171H98.0118C98.076 60.2171 98.1251 60.2511 98.1214 60.2927L97.9702 61.6724C97.9626 61.7102 97.9021 61.748 97.8417 61.748Z"
            fill="#FFCA40" />
        <path opacity="0.4"
            d="M97.8417 61.748H97.5241C97.4599 61.748 97.4107 61.714 97.4145 61.6724L97.5657 60.2927C97.5657 60.2511 97.6262 60.2171 97.6905 60.2171H98.0118C98.076 60.2171 98.1251 60.2511 98.1214 60.2927L97.9702 61.6724C97.9626 61.7102 97.9021 61.748 97.8417 61.748Z"
            fill="black" />
        <path
            d="M107.398 61.748H107.072C107.008 61.748 106.959 61.714 106.967 61.6724L107.118 60.2927C107.118 60.2511 107.178 60.2171 107.243 60.2171H107.564C107.628 60.2171 107.677 60.2511 107.673 60.2927L107.522 61.6724C107.513 61.6969 107.495 61.7175 107.473 61.7311C107.45 61.7448 107.424 61.7507 107.398 61.748Z"
            fill="#FFCA40" />
        <path opacity="0.4"
            d="M107.398 61.748H107.072C107.008 61.748 106.959 61.714 106.967 61.6724L107.118 60.2927C107.118 60.2511 107.178 60.2171 107.243 60.2171H107.564C107.628 60.2171 107.677 60.2511 107.673 60.2927L107.522 61.6724C107.513 61.6969 107.495 61.7175 107.473 61.7311C107.45 61.7448 107.424 61.7507 107.398 61.748Z"
            fill="black" />
        <path
            d="M102.639 61.748H102.317C102.253 61.748 102.204 61.714 102.208 61.6724L102.359 60.2927C102.359 60.2511 102.419 60.2171 102.484 60.2171H102.816C102.88 60.2171 102.93 60.2511 102.926 60.2927L102.775 61.6724C102.759 61.7102 102.703 61.748 102.639 61.748Z"
            fill="#FFCA40" />
        <path opacity="0.4"
            d="M102.639 61.748H102.317C102.253 61.748 102.204 61.714 102.208 61.6724L102.359 60.2927C102.359 60.2511 102.419 60.2171 102.484 60.2171H102.816C102.88 60.2171 102.93 60.2511 102.926 60.2927L102.775 61.6724C102.759 61.7102 102.703 61.748 102.639 61.748Z"
            fill="black" />
        <path
            d="M95.846 47.2177C95.7477 48.2232 95.6229 49.2287 95.5133 50.2417L95.1353 53.2657C95.0144 54.2674 94.8556 55.2691 94.7195 56.2897L94.5041 57.8017L94.436 58.278C94.4403 58.3521 94.4609 58.4244 94.4965 58.4897C94.6611 58.7788 94.8777 59.0351 95.1353 59.2457C95.4716 59.5235 95.8279 59.7761 96.2013 60.0017C97.0167 60.4981 97.864 60.94 98.7377 61.3247C99.6297 61.7291 100.548 62.0807 101.482 62.4322C102.416 62.7837 103.372 63.105 104.298 63.4112L103.965 64.8552C101.918 64.5252 99.9017 64.027 97.9363 63.3659C96.9191 63.0331 95.9305 62.6185 94.9803 62.126C94.4715 61.8612 93.986 61.5539 93.5288 61.2075C92.9806 60.8081 92.5179 60.303 92.168 59.7219C91.9619 59.3415 91.8334 58.9239 91.79 58.4934C91.79 58.3763 91.7711 58.2591 91.79 58.1419C91.8089 58.0247 91.79 57.8773 91.8089 57.8395L91.8429 57.4615L91.9715 55.9495C92.066 54.944 92.1378 53.9348 92.2474 52.9255L92.5536 49.9015C92.6745 48.896 92.7766 47.8905 92.9089 46.8775L95.846 47.2177Z"
            fill="#FF8B7B" />
        <path
            d="M94.2583 43.3583C93.0676 43.7363 91.6388 47.8187 91.6388 47.8187L95.7968 52.1052C95.7968 52.1052 97.9325 47.6978 97.4298 46.1593C96.9195 44.5566 95.6343 42.9425 94.2583 43.3583Z"
            fill="#FFCA40" />
    </g>
    <path opacity="0.2"
        d="M84.1125 47.2555C83.1427 43.6555 83.2621 39.8489 84.4558 36.3168C85.6494 32.7848 87.8636 29.686 90.8183 27.4124C93.773 25.1387 97.3356 23.7922 101.056 23.5433C104.775 23.2943 108.486 24.154 111.717 26.0136C114.948 27.8732 117.556 30.6493 119.21 33.9908C120.863 37.3322 121.489 41.089 121.007 44.7861C120.526 48.4831 118.959 51.9544 116.505 54.761C114.051 57.5676 110.819 59.5834 107.22 60.5535C104.829 61.1977 102.335 61.3647 99.8804 61.0451C97.4254 60.7254 95.0575 59.9253 92.9117 58.6905C90.766 57.4556 88.8845 55.8102 87.3747 53.8482C85.865 51.8861 84.7564 49.6459 84.1125 47.2555Z"
        fill="#FFCA40" />
    <path opacity="0.2"
        d="M115.978 29.361L100.453 61.113C101.785 61.249 103.127 61.2376 104.456 61.079L118.416 32.54C117.72 31.3957 116.903 30.3299 115.978 29.361ZM120.514 37.4427L120.412 37.0647L109.265 59.8656C113.564 58.1587 117.085 54.9309 119.16 50.7965C121.234 46.662 121.716 41.9094 120.514 37.4427ZM97.4068 24.1484C94.1163 25.0354 91.1277 26.7976 88.7589 29.2477C86.3901 31.6977 84.7297 34.744 83.9541 38.0625C83.1786 41.381 83.317 44.8477 84.3546 48.0938C85.3922 51.34 87.2902 54.2442 89.8468 56.4976L105.84 23.8271C103.041 23.2923 100.157 23.4022 97.4068 24.1484Z"
        fill="white" />
    <path
        d="M81.1036 40.304L80.7256 40.2662C80.7861 39.6199 80.8806 38.9697 81.0015 38.3347L81.3795 38.4065C81.2699 39.0302 81.1678 39.669 81.1036 40.304ZM81.8369 36.4673L81.4589 36.3615C81.9568 34.6777 82.6547 33.0596 83.5379 31.542L83.8668 31.731C83.0034 33.223 82.3219 34.8131 81.8369 36.4673Z"
        fill="#FFCA40" />
    <path
        d="M121.965 37.0533C120.918 33.1671 118.742 29.6787 115.713 27.0291C112.683 24.3795 108.936 22.6876 104.945 22.1675C100.954 21.6474 96.8982 22.3223 93.2907 24.1069C89.6833 25.8915 86.6859 28.7057 84.6777 32.1937C82.6695 35.6816 81.7406 39.6867 82.0084 43.7026C82.2762 47.7184 83.7287 51.5647 86.1823 54.7551C88.6359 57.9455 91.9804 60.3368 95.7929 61.6266C99.6054 62.9164 103.715 63.0468 107.601 62.0013C110.183 61.3068 112.602 60.1106 114.722 58.4808C116.841 56.8511 118.618 54.8198 119.952 52.503C121.286 50.1863 122.15 47.6294 122.496 44.9785C122.841 42.3275 122.661 39.6345 121.965 37.0533ZM84.1125 47.2593C83.1427 43.6593 83.2621 39.8527 84.4558 36.3206C85.6494 32.7886 87.8636 29.6898 90.8183 27.4161C93.773 25.1425 97.3356 23.796 101.056 23.547C104.775 23.2981 108.486 24.1577 111.717 26.0174C114.948 27.877 117.556 30.6531 119.21 33.9945C120.863 37.336 121.489 41.0928 121.007 44.7899C120.526 48.4869 118.959 51.9582 116.505 54.7648C114.051 57.5714 110.819 59.5872 107.22 60.5573C104.829 61.2014 102.335 61.3683 99.8797 61.0484C97.4245 60.7285 95.0564 59.9281 92.9107 58.6928C90.7649 57.4576 88.8835 55.8118 87.3739 53.8493C85.8643 51.8869 84.756 49.6463 84.1125 47.2555V47.2593Z"
        fill="#FFCA40" />
    <path
        d="M84.415 50.374C84.415 51.2396 84.1919 51.353 83.9538 51.3795L83.2696 51.5609L81.8975 51.9389L79.1532 52.6647L73.6533 54.0746C69.9817 54.9969 66.305 55.8953 62.6232 56.7698L51.5781 59.4158L46.0631 60.7539C44.226 61.2113 42.3814 61.6346 40.5632 62.1638C40.3788 62.2179 40.1855 62.2352 39.9944 62.2146C39.8033 62.194 39.6182 62.136 39.4495 62.0439C39.2809 61.9517 39.132 61.8273 39.0114 61.6776C38.8909 61.5279 38.801 61.356 38.7469 61.1716C38.6928 60.9872 38.6755 60.7939 38.6961 60.6028C38.7167 60.4117 38.7747 60.2266 38.8668 60.0579C38.959 59.8893 39.0834 59.7404 39.2331 59.6199C39.3828 59.4993 39.5547 59.4094 39.7391 59.3553H39.7996C41.6405 58.9017 43.4473 58.3385 45.2617 57.813L50.7049 56.199L61.58 52.9255C65.2063 51.8293 68.8363 50.757 72.4701 49.7087L77.9323 48.14L80.669 47.384L82.0373 47.006L82.7215 46.817C82.9408 46.7225 83.1827 46.7112 83.6287 47.4558C84.153 48.3382 84.425 49.3477 84.415 50.374Z"
        fill="#FFCA40" />
    <path
        d="M60.6311 22.1714C60.6311 22.3944 60.7483 22.5759 60.8957 22.5759C61.0431 22.5759 61.1603 22.3944 61.1603 22.1714C61.1603 21.9484 61.0431 21.7632 60.8957 21.7632C60.7483 21.7632 60.6311 21.9446 60.6311 22.1714Z"
        fill="#263238" />
    <path
        d="M60.7294 22.5759C60.995 23.2606 61.3537 23.9055 61.7953 24.4923C61.6424 24.6017 61.4674 24.6763 61.2826 24.7109C61.0978 24.7455 60.9077 24.7393 60.7256 24.6927L60.7294 22.5759Z"
        fill="#630F0F" />
    <path
        d="M59.8373 20.924C59.8099 20.9232 59.7834 20.9139 59.7614 20.8974C59.7395 20.8809 59.7233 20.8579 59.7149 20.8318C59.7066 20.8056 59.7067 20.7775 59.7151 20.7513C59.7234 20.7252 59.7398 20.7023 59.7617 20.6858C59.9287 20.5606 60.1231 20.4769 60.3287 20.4414C60.5344 20.4059 60.7456 20.4197 60.9449 20.4817C60.9773 20.4944 61.0035 20.5194 61.0176 20.5512C61.0318 20.5831 61.0328 20.6192 61.0205 20.6518C61.0078 20.6843 60.9828 20.7104 60.951 20.7246C60.9191 20.7387 60.883 20.7398 60.8504 20.7274C60.6917 20.6802 60.5242 20.671 60.3613 20.7006C60.1985 20.7301 60.0449 20.7976 59.9129 20.8975C59.8916 20.9149 59.8649 20.9243 59.8373 20.924Z"
        fill="#263238" />
    <path
        d="M53.419 23.6191C53.6194 25.8078 53.6458 29.7881 52.0998 31.0922C52.0998 31.0922 52.4513 33.3262 56.2087 33.6739C60.3402 34.0519 58.3859 31.6743 58.3859 31.6743C56.1822 30.8919 56.4052 29.1153 56.9533 27.4823L53.419 23.6191Z"
        fill="#7F3E3B" />
    <path
        d="M47.3748 113.273C47.0497 113.409 46.305 113.08 46.0669 112.941C46.056 112.935 46.0472 112.926 46.0418 112.915C46.0363 112.904 46.0345 112.892 46.0366 112.88C46.0376 112.867 46.0424 112.855 46.0505 112.845C46.0586 112.835 46.0696 112.827 46.082 112.823C46.1198 112.823 47.0043 112.528 47.3634 112.736C47.4029 112.758 47.4372 112.787 47.464 112.823C47.4908 112.859 47.5093 112.9 47.5184 112.944C47.5373 112.997 47.5391 113.054 47.5234 113.108C47.5078 113.161 47.4756 113.209 47.4315 113.243C47.4138 113.255 47.3948 113.265 47.3748 113.273ZM46.2748 112.895C46.6528 113.084 47.1933 113.243 47.3521 113.13C47.3521 113.13 47.4163 113.084 47.3899 112.963C47.3843 112.938 47.3734 112.914 47.3577 112.893C47.3421 112.872 47.3221 112.855 47.2992 112.842C46.9591 112.762 46.603 112.783 46.2748 112.903V112.895Z"
        fill="#FFCA40" />
    <path
        d="M46.3086 112.888C46.2464 112.914 46.1818 112.934 46.1159 112.948C46.1045 112.952 46.0922 112.953 46.0806 112.949C46.0691 112.946 46.0589 112.939 46.0516 112.929C46.046 112.919 46.043 112.907 46.043 112.895C46.043 112.883 46.046 112.872 46.0516 112.861C46.0516 112.831 46.3578 112.082 46.7433 111.924C46.7891 111.903 46.8387 111.893 46.8889 111.893C46.939 111.893 46.9886 111.903 47.0344 111.924C47.082 111.937 47.1233 111.967 47.151 112.007C47.1787 112.048 47.191 112.098 47.1856 112.147C47.1478 112.4 46.6602 112.74 46.3086 112.888ZM46.2179 112.782C46.5581 112.653 47.0231 112.321 47.0457 112.135C47.0457 112.116 47.0457 112.079 46.9701 112.041C46.9406 112.027 46.9083 112.019 46.8756 112.019C46.8429 112.019 46.8106 112.027 46.7811 112.041C46.5354 112.147 46.3162 112.566 46.2179 112.778V112.782Z"
        fill="#FFCA40" />
    <path
        d="M64.5473 117.734C64.2622 117.732 63.9777 117.707 63.6968 117.658C63.6838 117.655 63.6718 117.649 63.6624 117.639C63.653 117.63 63.6465 117.618 63.6439 117.605C63.6409 117.592 63.6427 117.577 63.6488 117.565C63.655 117.553 63.6653 117.543 63.6779 117.537C63.7195 117.511 64.6871 116.959 65.1521 117.083C65.2391 117.106 65.3139 117.161 65.36 117.238C65.3896 117.28 65.4055 117.331 65.4055 117.382C65.4055 117.433 65.3896 117.484 65.36 117.526C65.2504 117.692 64.9064 117.734 64.5473 117.734ZM63.9085 117.56C64.4263 117.632 65.1294 117.628 65.2579 117.45C65.2579 117.427 65.2919 117.386 65.2579 117.303C65.2441 117.279 65.2255 117.259 65.2033 117.244C65.1812 117.228 65.156 117.217 65.1294 117.212C64.8308 117.133 64.26 117.386 63.9085 117.56Z"
        fill="#FFCA40" />
    <path
        d="M63.7081 117.658C63.6958 117.661 63.6827 117.661 63.6704 117.658C63.6609 117.651 63.6534 117.642 63.6488 117.631C63.6441 117.621 63.6424 117.609 63.6439 117.597C63.6439 117.567 63.7233 116.819 64.0748 116.528C64.1269 116.484 64.1873 116.452 64.2522 116.432C64.3172 116.413 64.3854 116.407 64.4528 116.414C64.6305 116.433 64.6834 116.524 64.6947 116.6C64.7476 116.913 64.0824 117.514 63.7497 117.666L63.7081 117.658ZM64.3885 116.524C64.3041 116.526 64.223 116.557 64.158 116.611C63.9481 116.851 63.8163 117.149 63.78 117.465C64.1239 117.261 64.5738 116.789 64.536 116.6C64.536 116.6 64.536 116.539 64.4075 116.528L64.3885 116.524Z"
        fill="#FFCA40" />
    <path d="M60.6575 117.594H63.432L63.7079 111.164H60.9334L60.6575 117.594Z" fill="#7F3E3B" />
    <path d="M42.9673 112.287L45.6964 112.801L48.7696 106.832L46.0404 106.322L42.9673 112.287Z" fill="#7F3E3B" />
    <path
        d="M45.995 112.517L43.0088 111.618C42.9563 111.602 42.9 111.605 42.8491 111.625C42.7983 111.646 42.756 111.683 42.7291 111.731L41.4893 113.938C41.4597 113.992 41.4427 114.052 41.4396 114.114C41.4365 114.176 41.4474 114.237 41.4713 114.294C41.4953 114.35 41.5319 114.401 41.5782 114.442C41.6245 114.482 41.6794 114.512 41.7388 114.528C42.7858 114.823 43.3113 114.906 44.6229 115.311C45.4318 115.553 47.5562 116.445 48.6751 116.773C49.794 117.102 50.2665 116.048 49.8393 115.81C47.9266 114.747 46.8569 113.598 46.3768 112.812C46.2909 112.669 46.1547 112.564 45.995 112.517Z"
        fill="#263238" />
    <path
        d="M63.4131 117.272H60.3891C60.3342 117.272 60.2809 117.291 60.2382 117.325C60.1955 117.36 60.166 117.408 60.1547 117.461L59.6066 119.93C59.5928 119.989 59.5927 120.051 59.6063 120.11C59.6199 120.169 59.6469 120.225 59.6852 120.272C59.7234 120.32 59.772 120.358 59.8271 120.384C59.8823 120.409 59.9426 120.422 60.0035 120.421C61.0997 120.421 62.6798 120.342 64.0557 120.342C65.6622 120.342 67.0494 120.429 68.9356 120.429C70.0696 120.429 70.391 119.276 69.9147 119.17C67.7412 118.698 65.9684 118.645 64.0897 117.488C63.8888 117.354 63.6543 117.28 63.4131 117.272Z"
        fill="#263238" />
    <path
        d="M46.872 31.7991C44.4604 32.9331 43.47 40.7048 43.47 40.7048L49.0077 42.8783C49.867 40.7743 50.5621 38.6069 51.0867 36.3956C51.8805 32.8877 49.3479 30.6197 46.872 31.7991Z"
        fill="#FFCA40" />
    <path opacity="0.3"
        d="M46.872 31.7991C44.4604 32.9331 43.47 40.7048 43.47 40.7048L49.0077 42.8783C49.867 40.7743 50.5621 38.6069 51.0867 36.3956C51.8805 32.8877 49.3479 30.6197 46.872 31.7991Z"
        fill="black" />
    <path opacity="0.2"
        d="M50.4743 34.0784C50.663 33.9867 50.8606 33.9145 51.0639 33.8629C51.2849 34.6917 51.2927 35.5629 51.0866 36.3955C50.562 38.6068 49.8669 40.7742 49.0076 42.8782L47.1819 42.1638C47.5183 40.1339 48.5502 35.0007 50.4743 34.0784Z"
        fill="black" />
    <path
        d="M62.9447 31.7386C62.9447 31.7386 65.9007 35.0763 63.1072 55.7416H48.2556C48.1536 53.4736 49.5862 42.3377 47.3862 31.5949C49.0292 31.2789 50.6908 31.0694 52.3607 30.9674C54.4632 30.8464 56.5709 30.8464 58.6733 30.9674C60.115 31.1127 61.5432 31.3705 62.9447 31.7386Z"
        fill="#FFCA40" />
    <path opacity="0.3"
        d="M62.9447 31.7386C62.9447 31.7386 65.9007 35.0763 63.1072 55.7416H48.2556C48.1536 53.4736 49.5862 42.3377 47.3862 31.5949C49.0292 31.2789 50.6908 31.0694 52.3607 30.9674C54.4632 30.8464 56.5709 30.8464 58.6733 30.9674C60.115 31.1127 61.5432 31.3705 62.9447 31.7386Z"
        fill="black" />
    <path opacity="0.2"
        d="M59.9546 36.1687C60.6275 34.1502 62.2453 33.5038 63.8934 34.7021C64.226 36.6601 64.4604 39.8164 64.192 44.8212L61.2927 44.7947C61.2927 44.7947 58.968 39.1738 59.9546 36.1687Z"
        fill="black" />
    <path
        d="M64.6608 34.7891C64.8044 35.6547 64.9632 36.5997 65.1409 37.4993C65.3185 38.399 65.5189 39.3137 65.7305 40.2058C66.122 41.9606 66.6541 43.6811 67.3219 45.3504C67.492 45.7284 67.6659 46.1291 67.8587 46.4844L68.1044 46.9304C68.1663 47.0309 68.2385 47.1246 68.3199 47.2101C68.8827 47.7442 69.5192 48.1948 70.2099 48.5483C71.8419 49.3969 73.5247 50.1442 75.2486 50.786L74.8366 52.8272C72.8033 52.6865 70.7976 52.2772 68.8717 51.6101C68.3544 51.43 67.8494 51.2167 67.3597 50.9712C66.8235 50.6976 66.3168 50.3696 65.8477 49.9922C65.5718 49.7654 65.3186 49.5122 65.0917 49.2362L64.9103 48.9981L64.7931 48.8204C64.7137 48.7032 64.6343 48.5861 64.5625 48.4689C64.2677 47.9964 64.0069 47.5239 63.7649 47.0476C62.88 45.1966 62.1786 43.2634 61.6708 41.2755C61.4176 40.3041 61.1832 39.3364 60.9942 38.3574C60.8052 37.3784 60.6162 36.422 60.5028 35.3787L64.6608 34.7891Z"
        fill="#7F3E3B" />
    <path
        d="M59.2324 33.776C58.45 36.3124 61.6252 43.8724 61.6252 43.8724L68.312 42.1903C67.9026 39.8007 67.2137 37.4675 66.2595 35.2388C64.0897 30.5214 60.1737 30.718 59.2324 33.776Z"
        fill="#FFCA40" />
    <path opacity="0.3"
        d="M59.2324 33.776C58.45 36.3124 61.6252 43.8724 61.6252 43.8724L68.312 42.1903C67.9026 39.8007 67.2137 37.4675 66.2595 35.2388C64.0897 30.5214 60.1737 30.718 59.2324 33.776Z"
        fill="black" />
    <path
        d="M75.2899 50.786L78.1589 52.075L75.3769 54.3694C75.3769 54.3694 74.1521 53.9688 73.9518 51.9578L73.5247 50.287L74.7834 50.6084C74.9572 50.6522 75.1268 50.7117 75.2899 50.786Z"
        fill="#7F3E3B" />
    <path d="M79.6824 53.466L76.889 55.133L75.377 54.3543L78.1552 52.0598L79.6824 53.466Z" fill="#7F3E3B" />
    <path
        d="M59.9356 30.7218C58.7373 29.7087 55.8267 28.9792 52.5684 28.7977C50.7048 28.6957 48.7884 29.0019 47.9908 29.3572C47.1932 29.7125 48.1382 32.2791 49.1815 32.3358C48.6296 33.2052 49.431 34.8835 50.6292 35.2124C50.4402 36.6639 54.0993 36.8 56.2992 35.6282C58.0758 34.6945 61.372 31.9351 59.9356 30.7218Z"
        fill="#263238" />
    <path opacity="0.2" d="M63.7081 111.164L63.5683 114.479H60.79L60.9298 111.164H63.7081Z" fill="black" />
    <path opacity="0.2" d="M46.0367 106.322L48.7696 106.836L47.1858 109.909L44.4529 109.395L46.0367 106.322Z"
        fill="black" />
    <path
        d="M53.1619 21.68C53.3282 24.4319 53.2829 26.0497 54.6739 27.4634C56.7605 29.5878 60.1587 28.3328 60.8164 25.5734C61.4099 23.1013 61.0356 19.0189 58.3443 17.9189C57.7508 17.6734 57.1043 17.5842 56.4665 17.6596C55.8287 17.7351 55.2209 17.9728 54.7012 18.35C54.1814 18.7273 53.767 19.2314 53.4975 19.8144C53.228 20.3974 53.1125 21.0397 53.1619 21.68Z"
        fill="#7F3E3B" />
    <path
        d="M58.3102 23.2147C59.3497 22.1638 61.0583 19.8731 60.461 18.1532C59.5803 15.6093 56.9532 16.4711 57.3728 16.9777C55.8608 15.9797 52.8065 15.9306 53.4454 17.2687C50.6973 17.6467 50.4743 18.7618 51.2378 19.1814C49.2798 21.0487 49.3743 22.9803 50.8598 22.8367C49.7258 23.9707 51.8124 26.216 54.1447 27.2857C54.9385 25.2067 59.1872 24.8287 58.3102 23.2147Z"
        fill="#263238" />
    <path
        d="M57.1045 24.2088C57.0872 24.2139 57.0688 24.2139 57.0515 24.2088C57.0413 24.2017 57.0326 24.1926 57.0259 24.182C57.0193 24.1715 57.0147 24.1597 57.0126 24.1474C57.0105 24.1351 57.0109 24.1225 57.0137 24.1104C57.0164 24.0982 57.0216 24.0867 57.0289 24.0765C57.6261 23.1996 58.2082 22.4965 58.7223 21.8766C59.7051 20.6897 60.4157 19.8316 60.4762 18.6674C60.4904 18.1903 60.3551 17.7208 60.0895 17.3244C59.8238 16.9279 59.441 16.6244 58.9945 16.4561C58.2914 16.1385 57.5354 16.1196 57.2368 16.4145C57.078 16.5695 57.0629 16.7925 57.1914 17.1024C57.1969 17.1135 57.2 17.1256 57.2005 17.1379C57.201 17.1503 57.1988 17.1626 57.1942 17.174C57.1895 17.1855 57.1825 17.1958 57.1735 17.2043C57.1646 17.2128 57.1539 17.2193 57.1423 17.2234C57.1308 17.2284 57.1186 17.2311 57.1061 17.2313C57.0936 17.2316 57.0813 17.2293 57.0697 17.2248C57.0581 17.2202 57.0475 17.2134 57.0385 17.2047C57.0296 17.1961 57.0224 17.1857 57.0175 17.1743C56.9341 17.0353 56.8975 16.8733 56.9131 16.712C56.9288 16.5507 56.9959 16.3987 57.1045 16.2784C57.4598 15.9306 58.2876 15.9306 59.0738 16.2784C59.5551 16.461 59.9672 16.7894 60.2525 17.2178C60.5378 17.6461 60.6821 18.1529 60.6652 18.6674C60.601 19.8959 59.8752 20.7728 58.8697 21.9862C58.3556 22.6061 57.7773 23.3054 57.1838 24.1786C57.1739 24.1895 57.1615 24.1979 57.1477 24.2031C57.134 24.2084 57.1191 24.2103 57.1045 24.2088Z"
        fill="#263238" />
    <path
        d="M57.2405 22.9047C57.2908 23.5872 57.5645 24.2341 58.0192 24.7455C58.624 25.4108 59.2591 24.995 59.3649 24.1861C59.4594 23.4528 59.2628 22.2243 58.522 21.8576C57.7811 21.491 57.1914 22.0806 57.2405 22.9047Z"
        fill="#7F3E3B" />
    <path
        d="M57.8341 55.7416C57.8341 55.7416 58.7715 74.4601 56.9457 82.3906C54.054 94.9477 48.5239 109.512 48.5239 109.512L43.3755 108.541C43.3755 108.541 47.7112 93.9574 48.6675 83.5019C49.5105 74.1124 48.2631 63.328 48.2631 55.7416H57.8341Z"
        fill="#263238" />
    <path opacity="0.2"
        d="M56.4466 61.2868C56.8246 60.5573 57.5617 62.7308 58.0758 65.5204C58.0758 69.3685 58.0077 73.7457 57.6713 77.4539C55.1009 72.71 55.649 62.7988 56.4466 61.2868Z"
        fill="black" />
    <path
        d="M49.7864 107.932C49.8091 107.932 48.9813 109.716 48.9813 109.716L43.024 108.556L43.6741 106.76L49.7864 107.932Z"
        fill="#2C6BDB" />
    <path
        d="M63.1258 55.7416C63.1258 55.7416 67.2838 73.466 67.5862 81.937C67.9151 91.4361 64.6 113.836 64.6 113.836H59.8977C59.8977 113.836 59.3194 91.2622 59.1077 82.6098C58.8809 73.1787 53.347 55.7416 53.347 55.7416H63.1258Z"
        fill="#263238" />
    <path d="M65.5074 111.962C65.53 111.962 65.2428 113.916 65.2428 113.916H59.5198L59.3649 112.173L65.5074 111.962Z"
        fill="#2C6BDB" />
</svg>