<svg width="198" height="116" viewBox="0 0 198 116" fill="none" xmlns="http://www.w3.org/2000/svg">
<path d="M66.2298 61.5415C83.268 66.1705 95.8766 91.1918 115.578 83.992C132.794 77.6966 120.919 54.7939 141.347 54.0818C153.735 53.6438 178.475 56.6811 169.306 32.9025C163.737 18.4637 148.54 5.8658 133.759 1.21191C110.867 -6.00215 116.821 22.5372 100.901 27.775C93.7437 30.1287 89.3711 25.4392 83.4211 22.4339C74.6688 18.015 63.0644 13.1475 53.1085 12.9659C37.2668 12.6775 23.1983 29.4842 23.9104 45.2868C25.1674 72.8647 50.527 57.2793 66.2298 61.5415Z" fill="#FFCA40"/>
<path opacity="0.9" d="M66.2298 61.5415C83.268 66.1705 95.8766 91.1918 115.578 83.992C132.794 77.6966 120.919 54.7939 141.347 54.0818C153.735 53.6438 178.475 56.6811 169.306 32.9025C163.737 18.4637 148.54 5.8658 133.759 1.21191C110.867 -6.00215 116.821 22.5372 100.901 27.775C93.7437 30.1287 89.3711 25.4392 83.4211 22.4339C74.6688 18.015 63.0644 13.1475 53.1085 12.9659C37.2668 12.6775 23.1983 29.4842 23.9104 45.2868C25.1674 72.8647 50.527 57.2793 66.2298 61.5415Z" fill="#292929"/>
<path d="M141.055 14.433C138.919 15.6009 138.207 19.0619 139.207 20.5681C135.504 21.6791 137.427 28.0457 143.48 28.4018C149.533 28.7578 154.141 26.5466 151.168 21.8251C154.109 17.862 152.756 13.436 150.178 13.9238C147.411 8.37971 138.146 8.5435 141.055 14.433Z" fill="#263238"/>
<path d="M147.5 28.8291C146.566 28.8261 145.651 28.5702 144.851 28.0884C144.838 28.0838 144.827 28.0764 144.817 28.0668C144.807 28.0571 144.8 28.0455 144.795 28.0327C144.791 28.0199 144.789 28.0062 144.79 27.9927C144.792 27.9791 144.796 27.966 144.803 27.9543C144.81 27.9426 144.819 27.9326 144.83 27.9249C144.842 27.9172 144.854 27.9122 144.868 27.91C144.881 27.9079 144.895 27.9087 144.908 27.9125C144.921 27.9162 144.933 27.9228 144.943 27.9318C145.975 28.5493 147.194 28.776 148.379 28.5709C149.564 28.3657 150.635 27.7422 151.399 26.8137C152.371 25.6102 152.823 23.6802 151.125 21.8785C151.117 21.8699 151.11 21.8597 151.106 21.8486C151.102 21.8374 151.1 21.8256 151.1 21.8137C151.101 21.8018 151.103 21.7901 151.108 21.7792C151.113 21.7683 151.12 21.7585 151.129 21.7503C151.137 21.7421 151.147 21.7357 151.158 21.7315C151.17 21.7272 151.181 21.7252 151.193 21.7256C151.205 21.7259 151.217 21.7286 151.228 21.7334C151.239 21.7383 151.248 21.7452 151.257 21.7539C153.016 23.6411 152.556 25.6707 151.538 26.9276C151.045 27.5203 150.428 27.9978 149.73 28.3263C149.032 28.6548 148.271 28.8264 147.5 28.8291Z" fill="#263238"/>
<path d="M138.538 21.7503C138.519 21.7498 138.502 21.7437 138.487 21.7329C138.473 21.7221 138.462 21.707 138.456 21.6898C137.509 18.9765 138.776 15.3339 141.016 14.3368C141.038 14.3291 141.062 14.3295 141.083 14.338C141.105 14.3465 141.123 14.3625 141.133 14.3831C141.138 14.3939 141.141 14.4055 141.141 14.4172C141.141 14.4289 141.139 14.4406 141.135 14.4515C141.13 14.4624 141.124 14.4724 141.116 14.4808C141.108 14.4893 141.098 14.496 141.087 14.5006C138.922 15.462 137.701 18.9943 138.623 21.6221C138.627 21.6333 138.629 21.6452 138.628 21.6571C138.627 21.6689 138.624 21.6805 138.619 21.6911C138.613 21.7017 138.606 21.7112 138.597 21.7189C138.588 21.7266 138.577 21.7324 138.566 21.7361L138.538 21.7503Z" fill="#263238"/>
<path d="M137.957 17.8299H137.925C137.903 17.8212 137.886 17.8046 137.876 17.7834C137.866 17.7623 137.865 17.7382 137.872 17.716C138.513 16.0175 139.723 14.725 141.027 14.3404C141.049 14.3338 141.074 14.3365 141.094 14.3478C141.115 14.3592 141.13 14.3783 141.137 14.4009C141.144 14.4236 141.141 14.448 141.129 14.4687C141.118 14.4894 141.099 14.5047 141.076 14.5113C139.827 14.8674 138.662 16.1315 138.039 17.7801C138.032 17.7953 138.02 17.8081 138.005 17.817C137.991 17.8258 137.974 17.8303 137.957 17.8299Z" fill="#263238"/>
<path d="M142.942 112.546L140.884 112.549L140.539 104.819L144.003 104.904L142.942 112.546Z" fill="#FFB573"/>
<path d="M139.364 45.8387C139.364 45.8387 139.182 67.2922 138.73 76.632C138.712 76.9094 138.712 77.1878 138.73 77.4652C139.407 86.8264 140.528 104.819 140.528 104.819L144.014 104.908C144.014 104.908 147.051 90.5402 145.171 77.5257C148.194 62.8056 149.822 49.6701 147.084 45.8351L139.364 45.8387Z" fill="#FFCA40"/>
<path opacity="0.2" d="M145.203 54.3596C144.135 57.9417 145.175 69.4571 145.727 74.7697C146.478 70.9312 147.119 67.2388 147.593 63.8347L145.203 54.3596Z" fill="black"/>
<path d="M140.653 111.549H143.327C143.383 111.547 143.438 111.566 143.48 111.603C143.523 111.64 143.549 111.692 143.555 111.748L143.825 113.938C143.827 114.006 143.815 114.073 143.79 114.136C143.765 114.199 143.727 114.256 143.68 114.305C143.633 114.353 143.576 114.392 143.513 114.418C143.451 114.444 143.384 114.458 143.316 114.458C142.137 114.458 141.575 114.372 140.09 114.376C139.175 114.376 138.623 114.468 137.359 114.468C136.095 114.468 136.095 113.258 136.625 113.147C139.008 112.652 139.314 112.378 140.143 111.723C140.289 111.61 140.468 111.549 140.653 111.549Z" fill="#263238"/>
<path d="M141.532 30.0504C141.4 30.7874 141.251 31.4747 141.091 32.1868C140.93 32.899 140.767 33.6111 140.578 34.3233C140.204 35.7475 139.816 37.1434 139.303 38.5534C139.046 39.2824 138.746 39.9958 138.406 40.6899C138.217 41.0751 137.999 41.4453 137.754 41.7972C137.683 41.8934 137.619 41.986 137.526 42.0928C137.438 42.2062 137.339 42.3111 137.231 42.4061C136.958 42.6641 136.629 42.8555 136.269 42.9652C135.893 43.079 135.493 43.095 135.109 43.0115C134.806 42.9414 134.517 42.821 134.254 42.6554C133.855 42.3999 133.501 42.0798 133.207 41.7082C132.702 41.0798 132.3 40.3756 132.014 39.6216C131.952 39.4613 131.946 39.2844 131.999 39.1205C132.052 38.9567 132.159 38.8161 132.304 38.7224C132.448 38.6287 132.62 38.5876 132.791 38.6061C132.962 38.6246 133.122 38.7016 133.243 38.824L133.285 38.8703C133.727 39.3371 134.203 39.7703 134.71 40.1664C134.908 40.3175 135.127 40.4376 135.361 40.5225C135.447 40.5439 135.507 40.5439 135.514 40.5225C135.522 40.5011 135.465 40.4869 135.415 40.4905C135.365 40.494 135.333 40.5118 135.347 40.4905C135.364 40.4594 135.383 40.4297 135.404 40.4014C135.439 40.3583 135.47 40.3118 135.497 40.2626C135.646 40.0174 135.777 39.7615 135.888 39.497C136.148 38.887 136.376 38.2643 136.572 37.6312C136.978 36.328 137.348 34.9713 137.669 33.6075C137.989 32.2438 138.306 30.8515 138.591 29.4913C138.679 29.1153 138.909 28.7879 139.233 28.578C139.557 28.3681 139.95 28.2921 140.329 28.3659C140.708 28.4396 141.044 28.6575 141.265 28.9736C141.487 29.2898 141.578 29.6796 141.518 30.061L141.532 30.0504Z" fill="#FFB573"/>
<path d="M138.295 42.926C138.295 43.802 151.947 43.9729 151.947 42.8156L144.972 41.0353L138.295 42.926Z" fill="#263238"/>
<path d="M140.802 27.7537C144.402 27.1517 148.079 27.1878 151.666 27.8605C151.877 27.8938 152.078 27.9699 152.258 28.084C152.438 28.1981 152.592 28.3479 152.712 28.524C152.832 28.7002 152.914 28.899 152.954 29.1082C152.994 29.3175 152.991 29.5327 152.944 29.7406C151.015 38.3825 151.125 41.2881 151.31 45.8387H139.367C138.769 38.2472 138.452 33.9138 138.374 31.4533C138.31 29.5768 138.954 28.0279 140.802 27.7537Z" fill="#FFB573"/>
<path opacity="0.2" d="M151.631 30.264C151.555 31.4701 151.715 32.6794 152.101 33.8247C152.254 33.0022 152.432 32.1191 152.635 31.1542L151.631 30.264Z" fill="black"/>
<path d="M147.746 21.4441C147.39 23.1711 147.066 26.3437 148.276 27.4974C148.276 27.4974 147.803 29.2528 144.591 29.2528C141.055 29.2528 142.899 27.4974 142.899 27.4974C144.829 27.0345 144.78 25.603 144.445 24.2606L147.746 21.4441Z" fill="#FFB573"/>
<path opacity="0.2" d="M146.4 22.5941L144.445 24.2712C144.528 24.5839 144.584 24.9032 144.612 25.2255C145.349 25.1187 146.36 24.3104 146.439 23.5377C146.483 23.2234 146.469 22.9037 146.4 22.5941Z" fill="black"/>
<path d="M149.612 18.4459C148.949 21.2625 148.732 22.4696 147.044 23.6838C144.509 25.514 141.19 24.0897 140.991 21.1307C140.813 18.4708 141.92 14.3083 144.908 13.6532C145.564 13.5052 146.247 13.5273 146.892 13.7174C147.538 13.9075 148.124 14.2593 148.595 14.7394C149.066 15.2194 149.407 15.8119 149.585 16.4606C149.763 17.1092 149.772 17.7926 149.612 18.4459Z" fill="#FFB573"/>
<path d="M148.536 14.2086C145.552 14.5398 146.46 20.1016 148.703 20.6393C151.331 19.3539 152.951 14.4721 148.536 14.2086Z" fill="#263238"/>
<path d="M163.143 107.454L161.081 108.08L158.072 101.778L161.245 100.913L163.143 107.454Z" fill="#FFB573"/>
<path d="M160.486 107.45L163.135 106.425C163.182 106.407 163.233 106.406 163.28 106.422C163.327 106.439 163.366 106.471 163.392 106.514L164.577 108.515C164.606 108.565 164.623 108.62 164.628 108.677C164.633 108.735 164.626 108.792 164.607 108.846C164.587 108.9 164.557 108.95 164.517 108.991C164.476 109.032 164.428 109.064 164.374 109.085C163.445 109.441 162.996 109.622 161.832 110.074C161.12 110.352 160.002 111.278 159.012 111.659C158.022 112.04 157.588 111.136 157.944 110.822C158.908 109.98 159.668 108.929 160.166 107.749C160.196 107.68 160.24 107.618 160.295 107.567C160.35 107.515 160.415 107.476 160.486 107.45Z" fill="#263238"/>
<path d="M142.643 45.8386C142.643 45.8386 147.034 68.2962 148.696 77.1732C150.416 86.4311 158.079 101.764 158.079 101.764L161.259 100.895C161.259 100.895 156.904 84.494 154.874 76.3649C154.476 61.6448 154.946 49.6593 151.314 45.8244L142.643 45.8386Z" fill="#FFCA40"/>
<path d="M144.94 18.4284C144.901 18.66 144.748 18.8275 144.584 18.7847C144.42 18.742 144.342 18.5496 144.381 18.318C144.42 18.0864 144.577 17.9189 144.737 17.9439C144.897 17.9688 144.983 18.1968 144.94 18.4284Z" fill="#263238"/>
<path d="M142.323 17.9833C142.284 18.2149 142.127 18.3824 141.967 18.3396C141.806 18.2968 141.724 18.108 141.764 17.8729C141.803 17.6377 141.96 17.4738 142.12 17.5166C142.28 17.5593 142.362 17.7517 142.323 17.9833Z" fill="#263238"/>
<path d="M142.184 17.5416L141.653 17.2851C141.653 17.2851 141.867 17.7697 142.184 17.5416Z" fill="#263238"/>
<path d="M143.056 18.5385C142.762 19.031 142.403 19.4813 141.988 19.8774C142.092 19.9812 142.217 20.0614 142.355 20.1124C142.492 20.1634 142.639 20.184 142.786 20.1729L143.056 18.5385Z" fill="#ED893E"/>
<path d="M143.889 21.2945C143.77 21.2946 143.651 21.2839 143.533 21.2625C143.524 21.2612 143.516 21.2581 143.508 21.2534C143.5 21.2488 143.494 21.2426 143.488 21.2353C143.483 21.228 143.479 21.2197 143.477 21.2109C143.475 21.2021 143.475 21.193 143.476 21.1841C143.48 21.1665 143.49 21.1508 143.504 21.1403C143.519 21.1297 143.537 21.125 143.555 21.1271C143.842 21.1819 144.138 21.1686 144.42 21.0882C144.701 21.0078 144.96 20.8626 145.175 20.6642C145.181 20.6573 145.189 20.6518 145.197 20.6481C145.206 20.6443 145.215 20.6423 145.225 20.6423C145.234 20.6423 145.243 20.6443 145.252 20.6481C145.26 20.6518 145.268 20.6573 145.274 20.6642C145.286 20.6774 145.293 20.6945 145.293 20.7123C145.293 20.7301 145.286 20.7473 145.274 20.7604C144.902 21.1146 144.404 21.3067 143.889 21.2945Z" fill="#263238"/>
<path d="M150.017 20.8744C149.734 21.3565 149.272 21.708 148.732 21.8536C148.02 22.0352 147.664 21.3907 147.885 20.7212C148.073 20.1195 148.679 19.2969 149.394 19.4073C149.55 19.4357 149.696 19.5023 149.819 19.601C149.942 19.6997 150.039 19.8276 150.101 19.973C150.163 20.1184 150.188 20.2769 150.173 20.4342C150.158 20.5915 150.105 20.7428 150.017 20.8744Z" fill="#FFB573"/>
<path d="M146.077 18.0728C146.048 18.0725 146.02 18.063 145.997 18.0457C145.974 18.0284 145.957 18.0042 145.948 17.9766C145.759 17.3674 144.979 17.1037 144.972 17.1037C144.955 17.0985 144.938 17.0897 144.924 17.078C144.91 17.0663 144.898 17.0518 144.89 17.0355C144.882 17.0192 144.877 17.0013 144.876 16.983C144.874 16.9647 144.877 16.9464 144.883 16.9291C144.888 16.9115 144.897 16.8952 144.909 16.8811C144.92 16.8671 144.935 16.8555 144.951 16.8472C144.968 16.8389 144.985 16.8339 145.004 16.8327C145.022 16.8315 145.04 16.834 145.058 16.84C145.093 16.84 145.98 17.15 146.212 17.9089C146.217 17.9265 146.219 17.9449 146.218 17.9632C146.216 17.9815 146.211 17.9993 146.202 18.0156C146.193 18.0318 146.182 18.0462 146.168 18.0578C146.153 18.0695 146.137 18.0782 146.119 18.0835L146.077 18.0728Z" fill="#263238"/>
<path d="M141.739 16.6373C141.715 16.637 141.692 16.6306 141.671 16.6188C141.651 16.6069 141.634 16.59 141.621 16.5696C141.603 16.5375 141.599 16.4995 141.609 16.4641C141.619 16.4287 141.643 16.3988 141.675 16.3808C141.862 16.2673 142.074 16.2003 142.293 16.1854C142.512 16.1705 142.731 16.2082 142.932 16.2953C142.965 16.312 142.989 16.3408 143.001 16.3755C143.012 16.4101 143.009 16.4479 142.993 16.4805C142.976 16.5129 142.947 16.5374 142.913 16.5487C142.878 16.5601 142.84 16.5573 142.808 16.5411C142.647 16.4753 142.473 16.4481 142.3 16.4617C142.126 16.4753 141.959 16.5293 141.81 16.6195C141.789 16.6324 141.764 16.6386 141.739 16.6373Z" fill="#263238"/>
<path d="M152.642 28.3555C153.657 29.6836 154.579 31.026 155.455 32.4432C155.889 33.1553 156.316 33.8675 156.708 34.6259C157.134 35.4118 157.485 36.2355 157.758 37.0864C157.798 37.2003 157.826 37.3321 157.858 37.4425L157.883 37.5457L157.915 37.6953C157.93 37.7885 157.939 37.8824 157.944 37.9766C157.96 38.2856 157.937 38.5955 157.876 38.8988C157.775 39.3798 157.623 39.8488 157.424 40.2982C157.073 41.0921 156.658 41.8566 156.185 42.5842C155.283 43.9826 154.27 45.3056 153.154 46.5402C153.032 46.6769 152.864 46.7635 152.681 46.7831C152.499 46.8027 152.316 46.7539 152.167 46.6462C152.019 46.5385 151.916 46.3796 151.878 46.2001C151.84 46.0207 151.87 45.8335 151.962 45.6749V45.6571C152.749 44.2862 153.528 42.8762 154.201 41.4804C154.531 40.8074 154.818 40.114 155.059 39.4044C155.163 39.1031 155.235 38.7916 155.273 38.4751C155.286 38.3818 155.286 38.2871 155.273 38.1938V38.1724V38.1297C155.248 38.0585 155.23 37.9944 155.198 37.9196C154.921 37.252 154.595 36.6058 154.223 35.9861C153.831 35.3274 153.414 34.6687 152.987 34.0099C152.118 32.7067 151.207 31.3963 150.281 30.1287C150.059 29.8107 149.97 29.4187 150.032 29.036C150.094 28.6532 150.303 28.3097 150.614 28.0783C150.925 27.8468 151.314 27.7455 151.699 27.7959C152.083 27.8464 152.433 28.0445 152.674 28.3483L152.642 28.3555Z" fill="#FFB573"/>
<path d="M144.805 17.9868L144.274 17.7302C144.274 17.7302 144.484 18.2183 144.805 17.9868Z" fill="#263238"/>
<path d="M138.708 30.6023C138.928 29.7039 139.212 28.8222 139.556 27.9638C140.102 27.8006 140.661 27.6815 141.226 27.6077C142.378 28.6283 143.325 29.8584 144.018 31.2325C145.545 29.6872 148.468 28.124 150.249 27.5543C150.851 27.5163 151.455 27.5924 152.029 27.7786C150.815 31.61 149.576 35.4627 151.773 36.4526C151.734 38.2721 151.837 40.5296 151.929 42.8121C149.854 42.5842 141.621 42.1889 138.278 42.9225C138.107 40.608 138.046 38.6496 138.057 36.9582C136.501 34.9749 138.06 32.2758 138.708 30.6023Z" fill="#263238"/>
<mask id="mask0_1_7696" style="mask-type:luminance" maskUnits="userSpaceOnUse" x="137" y="27" width="16" height="16">
<path d="M138.708 30.6023C138.928 29.7039 139.212 28.8222 139.556 27.9638C140.102 27.8006 140.661 27.6815 141.226 27.6077C142.378 28.6283 143.325 29.8584 144.018 31.2325C145.545 29.6872 148.468 28.124 150.249 27.5543C150.851 27.5163 151.455 27.5924 152.029 27.7786C150.815 31.61 149.576 35.4627 151.773 36.4526C151.734 38.2721 151.837 40.5296 151.929 42.8121C149.854 42.5842 141.621 42.1889 138.278 42.9225C138.107 40.608 138.046 38.6496 138.057 36.9582C136.501 34.9749 138.06 32.2758 138.708 30.6023Z" fill="white"/>
</mask>
<g mask="url(#mask0_1_7696)">
<g opacity="0.2">
<path d="M141.981 37.7273C141.962 37.7295 141.945 37.7367 141.93 37.7479C141.915 37.7592 141.903 37.7742 141.896 37.7914C141.643 38.4996 141.651 39.2745 141.917 39.9777C141.671 39.7712 141.429 39.5682 141.205 39.3617C141.405 38.9329 141.483 38.4569 141.429 37.9866C141.375 37.5164 141.191 37.0703 140.899 36.6983C140.887 36.6837 140.873 36.6722 140.856 36.6647C140.839 36.6572 140.821 36.6541 140.802 36.6555C140.784 36.657 140.766 36.6638 140.75 36.6752C140.735 36.6865 140.724 36.7019 140.717 36.7196C140.456 37.4477 140.473 38.2462 140.763 38.9629C140.443 38.6709 140.137 38.3789 139.855 38.0976C140.066 37.6667 140.15 37.1852 140.099 36.7084C140.048 36.2316 139.864 35.7788 139.567 35.4021C139.556 35.3876 139.541 35.376 139.524 35.3686C139.507 35.3611 139.489 35.358 139.471 35.3594C139.452 35.3609 139.434 35.3677 139.419 35.3791C139.404 35.3904 139.392 35.4058 139.385 35.4235C139.126 36.1531 139.143 36.9521 139.432 37.6703C138.944 37.1612 138.538 36.6983 138.235 36.3137C138.126 35.8831 137.91 35.4872 137.607 35.1628C137.304 34.8383 136.923 34.5961 136.501 34.4585C136.484 34.4556 136.466 34.4567 136.45 34.4618C136.433 34.467 136.418 34.476 136.405 34.4881C136.393 34.5003 136.383 34.5153 136.378 34.5318C136.372 34.5483 136.37 34.5659 136.373 34.5832C136.693 36.1606 137.854 36.4348 138.089 36.4739C138.256 36.684 138.445 36.9155 138.673 37.1647C138.115 36.9146 137.494 36.8401 136.893 36.9511C136.874 36.9553 136.858 36.9645 136.845 36.9777C136.831 36.9909 136.822 37.0076 136.818 37.0258C136.813 37.0435 136.812 37.0622 136.816 37.0802C136.819 37.0982 136.827 37.115 136.839 37.1291C137.145 37.4782 137.543 37.7348 137.987 37.8701C138.431 38.0053 138.904 38.0139 139.353 37.8947C139.553 38.1012 139.766 38.3113 139.991 38.5285C139.236 38.3129 138.431 38.3606 137.708 38.6638C137.691 38.6729 137.677 38.6865 137.667 38.7031C137.657 38.7197 137.651 38.7387 137.651 38.7581C137.651 38.7775 137.657 38.7966 137.667 38.8132C137.677 38.8298 137.691 38.8434 137.708 38.8525C138.115 39.1056 138.58 39.2477 139.059 39.2646C139.538 39.2815 140.012 39.1725 140.436 38.9486C140.735 39.2299 141.052 39.5112 141.379 39.7925C140.65 39.4633 139.824 39.4151 139.061 39.6572C139.044 39.6644 139.028 39.676 139.016 39.691C139.004 39.706 138.996 39.7238 138.994 39.7427C138.992 39.7612 138.994 39.7799 139.001 39.7973C139.008 39.8146 139.019 39.8301 139.033 39.8424C139.408 40.146 139.859 40.34 140.337 40.4028C140.816 40.4657 141.302 40.3949 141.742 40.1985L141.771 40.1807C141.782 40.1689 141.79 40.154 141.792 40.1379L142.195 40.4655C142.207 40.4823 142.225 40.4948 142.245 40.5011C142.458 40.672 142.675 40.8394 142.896 41.0032C142.915 41.0197 142.94 41.0288 142.966 41.0288C142.991 41.0288 143.016 41.0197 143.035 41.0032C143.043 40.9918 143.049 40.9788 143.052 40.9651C143.056 40.9513 143.056 40.9371 143.054 40.9232C143.051 40.9093 143.046 40.896 143.039 40.8841C143.031 40.8721 143.022 40.8618 143.01 40.8536C142.807 40.7005 142.604 40.5474 142.408 40.3872C142.593 39.963 142.66 39.4967 142.601 39.0377C142.542 38.5788 142.36 38.1444 142.074 37.7807C142.064 37.7645 142.051 37.751 142.034 37.7416C142.018 37.7322 142 37.7273 141.981 37.7273Z" fill="white"/>
<path d="M138.47 32.2117C138.489 32.2094 138.506 32.2023 138.521 32.1911C138.536 32.1798 138.548 32.1648 138.556 32.1476C138.808 31.4394 138.8 30.6644 138.534 29.9613C138.78 30.1678 139.022 30.3708 139.246 30.5773C139.046 31.0061 138.968 31.4821 139.022 31.9524C139.076 32.4226 139.26 32.8687 139.553 33.2407C139.564 33.2553 139.578 33.2668 139.595 33.2743C139.612 33.2818 139.63 33.2849 139.649 33.2835C139.668 33.282 139.686 33.2752 139.701 33.2638C139.716 33.2525 139.727 33.2371 139.734 33.2194C139.995 32.4913 139.978 31.6928 139.688 30.9761C140.008 31.2681 140.315 31.5601 140.596 31.8414C140.386 32.2723 140.301 32.7538 140.352 33.2306C140.403 33.7074 140.588 34.1601 140.884 34.5368C140.896 34.5514 140.91 34.5629 140.927 34.5704C140.944 34.5779 140.962 34.581 140.98 34.5796C140.999 34.5781 141.017 34.5713 141.032 34.5599C141.048 34.5486 141.059 34.5332 141.066 34.5155C141.325 33.7859 141.308 32.9869 141.02 32.2687C141.507 32.7778 141.913 33.2407 142.216 33.6253C142.325 34.0559 142.541 34.4518 142.844 34.7762C143.147 35.1007 143.528 35.3429 143.95 35.4804C143.967 35.4834 143.985 35.4823 144.002 35.4772C144.018 35.472 144.033 35.463 144.046 35.4508C144.059 35.4387 144.068 35.4237 144.074 35.4072C144.079 35.3907 144.081 35.3731 144.078 35.3558C143.758 33.7784 142.597 33.5042 142.362 33.4651C142.195 33.255 142.006 33.0235 141.778 32.7743C142.336 33.0254 142.957 33.0987 143.558 32.9844C143.577 32.9813 143.593 32.9728 143.607 32.9601C143.62 32.9475 143.629 32.9311 143.633 32.9131C143.639 32.8955 143.639 32.8768 143.636 32.8588C143.632 32.8408 143.624 32.8239 143.612 32.8099C143.306 32.4608 142.908 32.2042 142.464 32.0689C142.02 31.9336 141.547 31.9251 141.098 32.0443C140.899 31.8378 140.685 31.6277 140.461 31.4105C141.215 31.6261 142.02 31.5784 142.743 31.2752C142.76 31.2661 142.774 31.2525 142.784 31.2359C142.794 31.2193 142.8 31.2002 142.8 31.1808C142.8 31.1614 142.794 31.1424 142.784 31.1258C142.774 31.1092 142.76 31.0956 142.743 31.0865C142.336 30.8333 141.871 30.6912 141.392 30.6744C140.913 30.6575 140.439 30.7665 140.015 30.9903C139.716 30.709 139.399 30.4277 139.072 30.1465C139.801 30.4757 140.627 30.5239 141.39 30.2818C141.407 30.274 141.422 30.2622 141.434 30.2473C141.446 30.2325 141.454 30.215 141.458 30.1963C141.459 30.1778 141.457 30.1591 141.45 30.1417C141.443 30.1244 141.432 30.1089 141.418 30.0966C141.044 29.793 140.592 29.599 140.114 29.5362C139.636 29.4733 139.149 29.544 138.709 29.7405L138.68 29.7583C138.669 29.7701 138.662 29.785 138.659 29.8011L138.256 29.4735C138.244 29.4567 138.227 29.4442 138.207 29.4379C137.993 29.2669 137.776 29.0996 137.555 28.9358C137.536 28.9193 137.511 28.9102 137.486 28.9102C137.46 28.9102 137.435 28.9193 137.416 28.9358C137.4 28.9588 137.393 28.987 137.397 29.0148C137.401 29.0426 137.416 29.0678 137.437 29.0854C137.644 29.2385 137.847 29.3916 138.043 29.5518C137.858 29.976 137.791 30.4423 137.85 30.9013C137.909 31.3602 138.091 31.7946 138.378 32.1583C138.387 32.1745 138.4 32.188 138.417 32.1974C138.433 32.2068 138.451 32.2117 138.47 32.2117Z" fill="white"/>
<path d="M149.448 40.3266C149.43 40.3291 149.413 40.336 149.398 40.3465C149.383 40.357 149.371 40.371 149.362 40.3872C149.113 41.0959 149.12 41.8697 149.384 42.5734C149.138 42.3705 148.896 42.164 148.672 41.9574C148.872 41.5293 148.95 41.0538 148.896 40.5841C148.842 40.1144 148.658 39.6689 148.365 39.2976C148.354 39.2829 148.34 39.2714 148.323 39.264C148.306 39.2566 148.288 39.2537 148.269 39.2555C148.251 39.2572 148.234 39.2637 148.219 39.2742C148.204 39.2847 148.192 39.2989 148.184 39.3154C147.925 40.0449 147.941 40.8439 148.23 41.5622C147.91 41.2667 147.603 40.9782 147.322 40.6969C147.533 40.2668 147.618 39.7857 147.567 39.3093C147.516 38.8328 147.331 38.3806 147.034 38.005C147.023 37.9896 147.009 37.9775 146.992 37.9699C146.975 37.9624 146.956 37.9597 146.937 37.9623C146.919 37.9645 146.902 37.9712 146.887 37.9818C146.872 37.9923 146.86 38.0064 146.852 38.0228C146.593 38.7524 146.61 39.5514 146.898 40.2696C146.41 39.764 146.005 39.2976 145.702 38.913C145.592 38.483 145.375 38.0877 145.072 37.7634C144.769 37.4392 144.389 37.1966 143.968 37.0579C143.951 37.0544 143.933 37.0552 143.916 37.0601C143.899 37.0651 143.884 37.0741 143.872 37.0864C143.859 37.0992 143.849 37.115 143.843 37.1323C143.838 37.1496 143.837 37.1681 143.84 37.1861C144.16 38.7599 145.324 39.0341 145.556 39.0732C145.723 39.2833 145.912 39.5183 146.14 39.7676C145.582 39.5173 144.961 39.4428 144.359 39.5539C144.342 39.5588 144.325 39.5683 144.312 39.5814C144.299 39.5945 144.29 39.6108 144.285 39.6287C144.279 39.6458 144.278 39.6639 144.282 39.6814C144.286 39.6989 144.294 39.7151 144.306 39.7284C144.61 40.0799 145.008 40.3382 145.453 40.4737C145.897 40.6091 146.371 40.6162 146.82 40.494C147.019 40.7005 147.233 40.9141 147.457 41.1314C146.703 40.9137 145.898 40.9615 145.175 41.2667C145.159 41.2764 145.145 41.2898 145.135 41.306C145.125 41.3221 145.119 41.3404 145.118 41.3592C145.118 41.3781 145.122 41.3967 145.132 41.413C145.141 41.4293 145.155 41.4427 145.171 41.4518C145.578 41.7052 146.043 41.8477 146.522 41.8652C147 41.8827 147.475 41.7745 147.899 41.5515C148.198 41.8293 148.515 42.1106 148.842 42.3954C148.113 42.0662 147.287 42.018 146.524 42.2601C146.507 42.2673 146.491 42.2789 146.479 42.2939C146.467 42.3089 146.46 42.3267 146.457 42.3456C146.455 42.3639 146.457 42.3826 146.465 42.3995C146.472 42.4164 146.484 42.431 146.499 42.4417C146.874 42.7453 147.326 42.9393 147.804 43.0022C148.282 43.065 148.769 42.9943 149.209 42.7978L149.234 42.7764C149.244 42.7648 149.253 42.7515 149.259 42.7372L149.661 43.0648C149.673 43.0814 149.689 43.0939 149.708 43.1004C149.921 43.2714 150.139 43.4387 150.359 43.6061C150.379 43.6226 150.403 43.6317 150.429 43.6317C150.454 43.6317 150.479 43.6226 150.498 43.6061C150.515 43.5834 150.522 43.5549 150.518 43.5269C150.514 43.4988 150.499 43.4735 150.477 43.4565C150.27 43.3034 150.071 43.1467 149.871 42.9901C150.057 42.5663 150.125 42.1001 150.066 41.641C150.008 41.182 149.826 40.7474 149.54 40.3836C149.531 40.3669 149.518 40.3529 149.502 40.3429C149.485 40.3329 149.467 40.3273 149.448 40.3266Z" fill="white"/>
<path d="M156.295 42.7871C156.276 42.7886 156.258 42.7954 156.243 42.8067C156.228 42.8181 156.216 42.8335 156.21 42.8512C155.956 43.5589 155.962 44.334 156.227 45.0375C155.982 44.831 155.743 44.6244 155.515 44.4215C155.717 43.9931 155.795 43.5172 155.742 43.0468C155.688 42.5765 155.505 42.1303 155.213 41.758C155.201 41.7429 155.186 41.7311 155.168 41.7236C155.151 41.7161 155.132 41.7132 155.113 41.7153C155.094 41.7179 155.077 41.7251 155.062 41.7363C155.047 41.7475 155.035 41.7624 155.027 41.7794C154.768 42.5077 154.785 43.3056 155.074 44.0227C154.753 43.7307 154.451 43.4387 154.169 43.1574C154.38 42.7264 154.464 42.2449 154.413 41.7682C154.362 41.2914 154.178 40.8386 153.881 40.4619C153.87 40.4474 153.855 40.4358 153.838 40.4284C153.821 40.4209 153.803 40.4178 153.785 40.4192C153.766 40.4207 153.748 40.4275 153.733 40.4388C153.718 40.4502 153.706 40.4656 153.699 40.4833C153.439 41.2126 153.455 42.0122 153.746 42.7301C153.258 42.2209 152.848 41.758 152.549 41.3735C152.44 40.9429 152.224 40.5469 151.921 40.2225C151.618 39.8981 151.237 39.6558 150.815 39.5183C150.798 39.5145 150.78 39.5149 150.763 39.5198C150.746 39.5246 150.73 39.5336 150.717 39.546C150.705 39.5583 150.695 39.5737 150.69 39.5906C150.685 39.6075 150.684 39.6255 150.687 39.6429C151.007 41.2204 152.168 41.4945 152.403 41.5337C152.567 41.7438 152.759 41.9752 152.987 42.2245C152.429 41.9751 151.808 41.9006 151.207 42.0108C151.189 42.0163 151.173 42.026 151.16 42.039C151.147 42.0521 151.137 42.068 151.132 42.0856C151.127 42.1035 151.127 42.1224 151.131 42.1404C151.136 42.1585 151.144 42.1752 151.157 42.1889C151.463 42.5373 151.86 42.7936 152.303 42.9288C152.747 43.064 153.219 43.0729 153.667 42.9544C153.87 43.161 154.08 43.371 154.305 43.5882C153.552 43.3726 152.748 43.4203 152.026 43.7236C152.009 43.7322 151.994 43.7454 151.984 43.7617C151.974 43.7781 151.969 43.7969 151.969 43.8161C151.968 43.835 151.973 43.8537 151.982 43.8705C151.99 43.8873 152.003 43.9016 152.019 43.9123C152.426 44.1644 152.892 44.3058 153.371 44.3227C153.85 44.3396 154.325 44.2312 154.75 44.0084C155.049 44.2885 155.362 44.5698 155.69 44.8523C154.96 44.5231 154.135 44.4749 153.372 44.717C153.354 44.7237 153.339 44.7353 153.327 44.7504C153.316 44.7656 153.309 44.7836 153.308 44.8025C153.306 44.821 153.308 44.8397 153.315 44.857C153.322 44.8744 153.333 44.8898 153.347 44.9022C153.722 45.2054 154.173 45.3992 154.651 45.462C155.13 45.5248 155.616 45.4543 156.056 45.2582C156.065 45.2599 156.073 45.2599 156.081 45.2582C156.095 45.2477 156.104 45.2324 156.106 45.2155L156.509 45.5431C156.521 45.5589 156.537 45.5712 156.555 45.5787C156.769 45.7496 156.986 45.917 157.207 46.0808C157.226 46.0973 157.251 46.1064 157.276 46.1064C157.302 46.1064 157.326 46.0973 157.345 46.0808C157.354 46.0697 157.361 46.057 157.365 46.0433C157.368 46.0297 157.369 46.0154 157.367 46.0013C157.365 45.9873 157.36 45.9739 157.353 45.9618C157.346 45.9497 157.336 45.9393 157.324 45.9312L156.719 45.4648C156.905 45.041 156.972 44.5748 156.914 44.1157C156.855 43.6567 156.674 43.2221 156.388 42.8583C156.38 42.839 156.368 42.822 156.352 42.8094C156.335 42.7969 156.316 42.7891 156.295 42.7871Z" fill="white"/>
<path d="M140.638 43.1894C140.62 43.191 140.602 43.1974 140.587 43.208C140.572 43.2187 140.56 43.2332 140.553 43.25C140.299 43.9577 140.305 44.7327 140.571 45.4362C140.325 45.2333 140.086 45.0268 139.859 44.8202C140.06 44.3919 140.138 43.9159 140.085 43.4456C140.031 42.9753 139.848 42.5291 139.556 42.1568C139.544 42.1424 139.529 42.1311 139.512 42.1241C139.495 42.117 139.476 42.1145 139.457 42.1166C139.439 42.1187 139.421 42.1255 139.406 42.1363C139.391 42.147 139.379 42.1614 139.371 42.1782C139.112 42.9077 139.128 43.7067 139.417 44.425C139.097 44.1295 138.794 43.841 138.513 43.5597C138.723 43.1288 138.807 42.6473 138.756 42.1705C138.705 41.6937 138.521 41.241 138.224 40.8643C138.213 40.8495 138.199 40.8381 138.182 40.8312C138.165 40.8243 138.146 40.8222 138.128 40.8251C138.109 40.8258 138.092 40.832 138.076 40.8427C138.061 40.8534 138.049 40.8684 138.043 40.8856C137.782 41.6149 137.799 42.4145 138.089 43.1324C137.667 42.701 137.268 42.2482 136.892 41.7758C136.783 41.3458 136.566 40.9505 136.263 40.6262C135.96 40.302 135.58 40.0593 135.158 39.9207C135.141 39.9172 135.122 39.9179 135.105 39.9229C135.088 39.9279 135.072 39.9368 135.059 39.9491C135.047 39.9622 135.039 39.9775 135.034 39.9941C135.029 40.0107 135.028 40.0282 135.03 40.0453C135.351 41.6227 136.511 41.8969 136.746 41.936C136.91 42.1461 137.103 42.3776 137.33 42.6482C136.773 42.3952 136.151 42.3206 135.55 42.4345C135.533 42.4391 135.517 42.4481 135.504 42.4605C135.49 42.473 135.481 42.4885 135.475 42.5058C135.47 42.5237 135.47 42.5425 135.475 42.5606C135.479 42.5786 135.488 42.5953 135.5 42.609C135.804 42.9605 136.201 43.219 136.645 43.3544C137.089 43.4899 137.563 43.4969 138.011 43.3746C138.214 43.5811 138.424 43.7947 138.648 44.012C137.895 43.7928 137.09 43.8406 136.369 44.1473C136.352 44.1553 136.338 44.1679 136.328 44.1836C136.318 44.1993 136.312 44.2176 136.312 44.2363C136.311 44.2552 136.316 44.274 136.324 44.2909C136.333 44.3077 136.346 44.322 136.362 44.3324C136.769 44.5857 137.235 44.7282 137.714 44.7457C138.193 44.7632 138.669 44.6551 139.093 44.4321C139.392 44.7099 139.705 44.9912 140.033 45.2725C139.303 44.944 138.477 44.8971 137.715 45.1407C137.698 45.1471 137.683 45.1582 137.671 45.1726C137.66 45.1871 137.653 45.2044 137.651 45.2226C137.648 45.2412 137.651 45.2601 137.658 45.2775C137.664 45.295 137.676 45.3104 137.69 45.3223C138.065 45.6256 138.517 45.8193 138.995 45.8821C139.473 45.945 139.959 45.8745 140.4 45.6784C140.408 45.68 140.417 45.68 140.425 45.6784C140.437 45.6687 140.446 45.6548 140.45 45.6392L140.852 45.9668C140.864 45.9826 140.88 45.9949 140.898 46.0024C141.116 46.1733 141.329 46.3407 141.55 46.508C141.569 46.5246 141.594 46.5337 141.619 46.5337C141.645 46.5337 141.669 46.5246 141.689 46.508C141.698 46.497 141.704 46.4843 141.708 46.4706C141.712 46.4569 141.713 46.4426 141.711 46.4286C141.709 46.4146 141.704 46.4011 141.696 46.3891C141.689 46.377 141.679 46.3666 141.667 46.3585L141.062 45.892C141.248 45.4676 141.315 45.0009 141.257 44.5413C141.199 44.0817 141.017 43.6465 140.731 43.282C140.729 43.258 140.719 43.2354 140.702 43.2184C140.685 43.2014 140.662 43.1911 140.638 43.1894Z" fill="white"/>
<path d="M149.22 28.1881C149.201 28.1906 149.184 28.1979 149.169 28.2091C149.154 28.2203 149.142 28.2351 149.134 28.2522C148.885 28.9609 148.893 29.7347 149.156 30.4385C148.91 30.2319 148.668 30.029 148.444 29.8224C148.644 29.3937 148.722 28.9176 148.668 28.4474C148.614 27.9771 148.43 27.5311 148.137 27.159C148.126 27.1444 148.112 27.1329 148.095 27.1255C148.078 27.118 148.06 27.1148 148.041 27.1163C148.022 27.1178 148.004 27.1246 147.989 27.1359C147.974 27.1473 147.963 27.1627 147.956 27.1804C147.697 27.9087 147.713 28.7066 148.002 29.4236C147.682 29.1317 147.375 28.8397 147.094 28.5584C147.304 28.1274 147.389 27.6459 147.338 27.1691C147.287 26.6923 147.102 26.2396 146.806 25.8629C146.795 25.8481 146.78 25.8364 146.763 25.8289C146.746 25.8214 146.728 25.8184 146.71 25.8202C146.691 25.8216 146.673 25.8285 146.658 25.8398C146.642 25.8512 146.631 25.8666 146.624 25.8843C146.365 26.6138 146.382 27.4128 146.67 28.1311C146.183 27.6219 145.777 27.159 145.474 26.7744C145.365 26.3439 145.149 25.9479 144.846 25.6235C144.543 25.2991 144.162 25.0568 143.74 24.9193C143.723 24.9163 143.705 24.9174 143.688 24.9226C143.672 24.9277 143.657 24.9367 143.644 24.9489C143.632 24.9611 143.622 24.976 143.616 24.9925C143.611 25.0091 143.609 25.0267 143.612 25.0439C143.932 26.6213 145.097 26.8955 145.328 26.9347C145.495 27.1448 145.684 27.3762 145.912 27.6255C145.354 27.3752 144.733 27.3007 144.132 27.4118C144.114 27.4173 144.098 27.427 144.085 27.44C144.072 27.453 144.062 27.469 144.057 27.4866C144.051 27.5042 144.051 27.5229 144.054 27.5409C144.058 27.559 144.066 27.5758 144.078 27.5899C144.384 27.9389 144.782 28.1956 145.226 28.3308C145.67 28.4661 146.143 28.4746 146.592 28.3554C146.791 28.5619 147.005 28.772 147.229 28.9892C146.475 28.7736 145.67 28.8213 144.947 29.1245C144.931 29.1342 144.917 29.1477 144.907 29.1638C144.897 29.18 144.891 29.1982 144.89 29.2171C144.89 29.2364 144.895 29.2554 144.904 29.2723C144.913 29.2892 144.927 29.3033 144.943 29.3133C145.35 29.5664 145.816 29.7085 146.294 29.7254C146.773 29.7422 147.248 29.6333 147.671 29.4094C147.97 29.6907 148.287 29.972 148.615 30.2533C147.885 29.924 147.059 29.8759 146.297 30.118C146.279 30.1252 146.263 30.1368 146.251 30.1518C146.24 30.1668 146.232 30.1846 146.229 30.2034C146.227 30.2223 146.23 30.2414 146.237 30.2589C146.245 30.2764 146.257 30.2916 146.272 30.3031C146.646 30.6065 147.097 30.8003 147.574 30.8631C148.052 30.926 148.538 30.8554 148.978 30.6592L149.006 30.6414C149.017 30.6296 149.025 30.6147 149.028 30.5987L149.43 30.9263C149.443 30.9423 149.46 30.9546 149.48 30.9619C149.693 31.1328 149.911 31.3001 150.131 31.4639C150.151 31.4805 150.175 31.4896 150.201 31.4896C150.226 31.4896 150.251 31.4805 150.27 31.4639C150.287 31.4413 150.295 31.4128 150.291 31.3847C150.287 31.3567 150.272 31.3314 150.249 31.3144C150.042 31.1613 149.843 31.0082 149.644 30.8479C149.829 30.4242 149.897 29.9579 149.839 29.4989C149.78 29.0399 149.598 28.6053 149.312 28.2415C149.302 28.2259 149.289 28.2129 149.273 28.2036C149.257 28.1943 149.238 28.189 149.22 28.1881Z" fill="white"/>
<path d="M145.837 34.9535C145.855 34.952 145.873 34.9455 145.888 34.9349C145.903 34.9242 145.915 34.9098 145.923 34.893C146.177 34.1852 146.17 33.4102 145.905 32.7067C146.15 32.9096 146.389 33.1162 146.617 33.3227C146.416 33.7511 146.337 34.227 146.391 34.6973C146.444 35.1677 146.627 35.6139 146.92 35.9861C146.931 36.0006 146.946 36.0118 146.964 36.0189C146.981 36.0259 147 36.0285 147.018 36.0263C147.037 36.0242 147.054 36.0174 147.069 36.0067C147.084 35.9959 147.097 35.9815 147.105 35.9648C147.364 35.2352 147.347 34.4362 147.058 33.7179C147.379 34.0123 147.682 34.3007 147.966 34.5832C147.756 35.0141 147.672 35.4956 147.723 35.9724C147.774 36.4492 147.958 36.902 148.255 37.2787C148.267 37.2931 148.282 37.3044 148.299 37.3114C148.316 37.3184 148.335 37.321 148.353 37.3189C148.372 37.3167 148.389 37.31 148.405 37.2992C148.42 37.2885 148.432 37.274 148.44 37.2573C148.699 36.5276 148.682 35.728 148.39 35.0105C148.812 35.4419 149.211 35.8947 149.587 36.3671C149.697 36.7976 149.914 37.1934 150.217 37.5177C150.521 37.842 150.902 38.0844 151.324 38.2223C151.341 38.2257 151.359 38.225 151.376 38.22C151.393 38.215 151.408 38.206 151.42 38.1938C151.433 38.1806 151.442 38.1647 151.447 38.1474C151.452 38.13 151.452 38.1118 151.449 38.0941C151.132 36.5202 149.968 36.2461 149.733 36.2069C149.569 35.9968 149.377 35.7654 149.149 35.4947C149.706 35.7477 150.328 35.8223 150.929 35.7084C150.946 35.7038 150.962 35.6949 150.976 35.6824C150.989 35.67 150.998 35.6544 151.004 35.6372C151.009 35.6192 151.009 35.6004 151.005 35.5823C151 35.5643 150.991 35.5476 150.979 35.5339C150.675 35.1824 150.279 34.924 149.834 34.7885C149.39 34.653 148.917 34.646 148.469 34.7683C148.269 34.5618 148.055 34.3482 147.831 34.131C148.584 34.3501 149.389 34.3023 150.11 33.9957C150.127 33.9871 150.142 33.9738 150.152 33.9575C150.162 33.9411 150.167 33.9223 150.167 33.9031C150.168 33.8845 150.164 33.866 150.155 33.8497C150.146 33.8333 150.133 33.8198 150.117 33.8105C149.71 33.5572 149.244 33.4147 148.765 33.3972C148.286 33.3797 147.81 33.4878 147.386 33.7108C147.087 33.4331 146.774 33.1518 146.446 32.8705C147.176 33.1972 148.001 33.2441 148.764 33.0022C148.781 32.9958 148.796 32.9847 148.808 32.9703C148.819 32.9558 148.826 32.9385 148.828 32.9203C148.831 32.9017 148.829 32.8826 148.823 32.865C148.816 32.8474 148.804 32.8321 148.789 32.8206C148.415 32.5163 147.963 32.3218 147.485 32.2589C147.006 32.1961 146.52 32.2673 146.079 32.4645C146.071 32.4629 146.063 32.4629 146.054 32.4645C146.044 32.4762 146.036 32.4894 146.029 32.5037L145.627 32.1761C145.616 32.1596 145.6 32.1471 145.581 32.1405C145.367 31.9696 145.15 31.7844 144.929 31.6349C144.91 31.6183 144.885 31.6093 144.86 31.6093C144.834 31.6093 144.81 31.6183 144.79 31.6349C144.773 31.6576 144.766 31.686 144.77 31.7141C144.774 31.7421 144.789 31.7674 144.812 31.7844L145.417 32.2509C145.231 32.6753 145.164 33.1421 145.222 33.6016C145.281 34.0612 145.462 34.4964 145.748 34.8609C145.751 34.8837 145.762 34.9049 145.778 34.9215C145.794 34.9381 145.814 34.9493 145.837 34.9535Z" fill="white"/>
</g>
</g>
<path d="M147.4 38.0157L123.543 40.4228C122.907 40.4875 122.322 40.8021 121.918 41.2975C121.513 41.7928 121.322 42.4285 121.386 43.0649L122.204 51.2225C122.826 50.7822 123.552 50.5125 124.31 50.4404C125.068 50.3682 125.832 50.4961 126.525 50.8113C127.218 51.1266 127.817 51.6181 128.261 52.2368C128.705 52.8556 128.979 53.5799 129.055 54.3376C129.132 55.0953 129.008 55.8598 128.697 56.5548C128.386 57.2499 127.898 57.8513 127.282 58.2988C126.666 58.7464 125.943 59.0246 125.186 59.1056C124.429 59.1867 123.663 59.0677 122.967 58.7606L123.789 66.9183C123.855 67.5544 124.169 68.1388 124.664 68.5437C125.159 68.9487 125.795 69.1413 126.431 69.0796L150.288 66.6761C150.925 66.6096 151.509 66.2941 151.914 65.7986C152.319 65.303 152.511 64.6675 152.449 64.0305L150.046 40.1736C149.979 39.5377 149.663 38.9543 149.167 38.5502C148.672 38.146 148.037 37.954 147.4 38.0157Z" fill="#FFCA40"/>
<path opacity="0.3" d="M147.4 38.0157L123.543 40.4228C122.907 40.4875 122.322 40.8021 121.918 41.2975C121.513 41.7928 121.322 42.4285 121.386 43.0649L122.204 51.2225C122.826 50.7822 123.552 50.5125 124.31 50.4404C125.068 50.3682 125.832 50.4961 126.525 50.8113C127.218 51.1266 127.817 51.6181 128.261 52.2368C128.705 52.8556 128.979 53.5799 129.055 54.3376C129.132 55.0953 129.008 55.8598 128.697 56.5548C128.386 57.2499 127.898 57.8513 127.282 58.2988C126.666 58.7464 125.943 59.0246 125.186 59.1056C124.429 59.1867 123.663 59.0677 122.967 58.7606L123.789 66.9183C123.855 67.5544 124.169 68.1388 124.664 68.5437C125.159 68.9487 125.795 69.1413 126.431 69.0796L150.288 66.6761C150.925 66.6096 151.509 66.2941 151.914 65.7986C152.319 65.303 152.511 64.6675 152.449 64.0305L150.046 40.1736C149.979 39.5377 149.663 38.9543 149.167 38.5502C148.672 38.146 148.037 37.954 147.4 38.0157Z" fill="black"/>
<path d="M153.909 45.3331L152.805 44.8524L150.213 45.5147C149.916 45.5924 149.653 45.7665 149.465 46.0096L148.917 46.7217C148.8 46.8778 148.741 47.0694 148.749 47.2641C148.758 47.4588 148.833 47.6446 148.963 47.79L149.583 48.4736C149.732 48.6365 149.938 48.735 150.158 48.7483C150.378 48.7616 150.594 48.6886 150.762 48.5448L152.168 47.3378C152.168 47.3378 153.863 46.5437 153.909 45.3331Z" fill="#FFB573"/>
<path d="M131.438 40.8857L132.584 40.7397C132.739 40.7222 132.883 40.6547 132.996 40.5473C133.108 40.4399 133.183 40.2986 133.207 40.1451L133.364 39.2335C133.385 39.125 133.38 39.013 133.35 38.9066C133.321 38.8001 133.266 38.7021 133.192 38.6202C133.118 38.5383 133.026 38.4749 132.923 38.4348C132.819 38.3948 132.709 38.3793 132.598 38.3896L131.26 38.4858C131.071 38.4959 130.895 38.5803 130.769 38.7205C130.642 38.8607 130.577 39.0452 130.587 39.2335L130.622 40.1949C130.624 40.296 130.648 40.3955 130.691 40.4868C130.734 40.5781 130.797 40.6591 130.874 40.7245C130.951 40.7898 131.041 40.838 131.138 40.8658C131.236 40.8936 131.338 40.9004 131.438 40.8857Z" fill="#FFB573"/>
<path d="M149.28 14.7178C146.453 16.1421 141.486 15.4869 141.486 15.4869C141.486 15.4869 144.256 10.9576 149.28 14.7178Z" fill="#263238"/>
<path d="M99.5297 105.061L98.1089 112.457L94.5126 111.588L95.9333 104.192L99.5297 105.061Z" fill="#7F3E3B"/>
<path d="M94.6266 110.085L98.6253 110.954C98.6873 110.966 98.7425 111.001 98.78 111.052C98.8176 111.102 98.8348 111.165 98.8283 111.228L98.5506 114.166C98.5414 114.24 98.517 114.311 98.4788 114.374C98.4406 114.438 98.3896 114.493 98.3289 114.536C98.2683 114.579 98.1993 114.609 98.1265 114.623C98.0537 114.638 97.9786 114.638 97.9061 114.622C96.6491 114.326 96.2753 114.141 94.6836 113.796C92.8285 113.386 92.1697 113.496 89.9905 113.019C88.6731 112.731 88.7336 111.349 89.3247 111.346C90.8858 111.35 92.4201 110.94 93.7721 110.16C94.037 110.027 94.3426 110 94.6266 110.085Z" fill="#263238"/>
<path opacity="0.2" d="M99.5333 105.065L98.7997 108.875L95.1998 108.006L95.9333 104.192L99.5333 105.065Z" fill="black"/>
<path d="M105.79 76.5786C110.009 64.1659 113.349 49.517 113.349 49.517L101.314 48.755C101.314 48.755 99.5333 67.7622 98.6146 76.5288C97.6532 85.6372 94.6658 106.2 94.6658 106.2L100.096 107.301C100.096 107.301 105.188 87.9374 105.79 76.5786Z" fill="#263238"/>
<path opacity="0.2" d="M107.798 56.4248L110.718 60.0354C109.973 62.8235 109.105 65.9569 108.15 69.158C107.603 64.9364 107.485 60.6702 107.798 56.4248Z" fill="#263238"/>
<path d="M94.744 106.973L99.729 108.063C99.8284 108.085 99.9325 108.069 100.021 108.019C100.11 107.969 100.177 107.888 100.21 107.792L100.758 106.186C100.777 106.132 100.784 106.074 100.779 106.017C100.775 105.959 100.758 105.903 100.73 105.853C100.702 105.803 100.664 105.759 100.618 105.724C100.572 105.689 100.519 105.665 100.463 105.652L95.0538 104.388C94.9969 104.375 94.9378 104.373 94.8804 104.384C94.823 104.395 94.7686 104.419 94.7208 104.452C94.673 104.486 94.6329 104.529 94.6032 104.58C94.5734 104.63 94.5547 104.686 94.5482 104.744L94.4235 106.524C94.4123 106.626 94.4388 106.727 94.498 106.81C94.5571 106.893 94.6447 106.951 94.744 106.973Z" fill="#263238"/>
<path opacity="0.1" d="M94.744 106.973L99.729 108.063C99.8284 108.085 99.9325 108.069 100.021 108.019C100.11 107.969 100.177 107.888 100.21 107.792L100.758 106.186C100.777 106.132 100.784 106.074 100.779 106.017C100.775 105.959 100.758 105.903 100.73 105.853C100.702 105.803 100.664 105.759 100.618 105.724C100.572 105.689 100.519 105.665 100.463 105.652L95.0538 104.388C94.9969 104.375 94.9378 104.373 94.8804 104.384C94.823 104.395 94.7686 104.419 94.7208 104.452C94.673 104.486 94.6329 104.529 94.6032 104.58C94.5734 104.63 94.5547 104.686 94.5482 104.744L94.4235 106.524C94.4123 106.626 94.4388 106.727 94.498 106.81C94.5571 106.893 94.6447 106.951 94.744 106.973Z" fill="white"/>
<path d="M119.327 104.805L119.552 112.435L115.902 112.385L115.678 104.755L119.327 104.805Z" fill="#7F3E3B"/>
<path d="M115.809 110.819L119.691 110.876C119.754 110.875 119.814 110.899 119.861 110.941C119.908 110.983 119.937 111.041 119.943 111.104L120.257 114.038C120.263 114.112 120.253 114.187 120.229 114.257C120.204 114.327 120.165 114.392 120.114 114.446C120.063 114.5 120.001 114.543 119.933 114.572C119.864 114.601 119.79 114.616 119.716 114.614C118.427 114.575 118.021 114.468 116.393 114.444C114.492 114.412 114.082 114.65 111.853 114.618C110.504 114.597 110.287 113.229 110.864 113.108C112.395 112.802 113.819 112.097 114.99 111.064C115.222 110.881 115.515 110.793 115.809 110.819Z" fill="#263238"/>
<path opacity="0.2" d="M119.331 104.808L119.445 108.739L115.792 108.689L115.678 104.755L119.331 104.808Z" fill="black"/>
<path d="M118.419 76.3258C117.387 63.2686 118.259 56.2254 116.742 49.7413L105.789 49.0612C105.789 49.0612 109.19 68.2536 111.066 76.9347C112.943 85.6158 114.962 106.702 114.962 106.702L120.346 106.77C120.346 106.77 121.004 86.5131 118.419 76.3258Z" fill="#263238"/>
<path d="M114.976 107.671L120.072 107.749C120.177 107.751 120.279 107.711 120.356 107.64C120.434 107.568 120.481 107.47 120.488 107.365L120.599 105.684C120.603 105.629 120.596 105.573 120.578 105.52C120.56 105.467 120.532 105.419 120.494 105.377C120.457 105.336 120.412 105.303 120.361 105.28C120.31 105.256 120.256 105.244 120.2 105.243L114.656 105.072C114.594 105.069 114.533 105.081 114.476 105.106C114.42 105.131 114.37 105.168 114.33 105.215C114.29 105.262 114.261 105.317 114.245 105.377C114.229 105.437 114.227 105.499 114.239 105.559L114.595 107.34C114.614 107.429 114.662 107.509 114.73 107.569C114.799 107.629 114.885 107.665 114.976 107.671Z" fill="#263238"/>
<path opacity="0.1" d="M114.976 107.671L120.072 107.749C120.177 107.751 120.279 107.711 120.356 107.64C120.434 107.568 120.481 107.47 120.488 107.365L120.599 105.684C120.603 105.629 120.596 105.573 120.578 105.52C120.56 105.467 120.532 105.419 120.494 105.377C120.457 105.336 120.412 105.303 120.361 105.28C120.31 105.256 120.256 105.244 120.2 105.243L114.656 105.072C114.594 105.069 114.533 105.081 114.476 105.106C114.42 105.131 114.37 105.168 114.33 105.215C114.29 105.262 114.261 105.317 114.245 105.377C114.229 105.437 114.227 105.499 114.239 105.559L114.595 107.34C114.614 107.429 114.662 107.509 114.73 107.569C114.799 107.629 114.885 107.665 114.976 107.671Z" fill="white"/>
<path d="M105.437 28.9751C105.017 29.8831 104.579 30.6878 104.102 31.5175C103.625 32.3471 103.122 33.1519 102.567 33.9423C102.005 34.7585 101.392 35.5375 100.73 36.2746C99.995 37.1233 99.1339 37.8535 98.1766 38.4396L98.052 38.5108C97.8391 38.636 97.6021 38.7147 97.3566 38.7417C97.1111 38.7687 96.8627 38.7434 96.6277 38.6674C95.9333 38.4431 95.2604 38.1903 94.6016 37.9197C93.9429 37.6491 93.3019 37.35 92.6717 37.0366C92.0414 36.7233 91.4254 36.3921 90.8201 36.0361C90.2148 35.68 89.6237 35.3239 89.0397 34.8931C88.8307 34.7448 88.6799 34.5282 88.6135 34.2806C88.5471 34.0331 88.5692 33.7701 88.676 33.5371C88.7828 33.3041 88.9676 33.1157 89.1984 33.0044C89.4293 32.8931 89.6918 32.8659 89.9406 32.9275H89.9798C90.6171 33.0806 91.2759 33.2658 91.9168 33.4332L93.8432 33.9423C94.4805 34.1168 95.1215 34.2628 95.7517 34.4195C96.382 34.5762 97.0122 34.6972 97.6318 34.8254L96.0971 35.0569C96.6302 34.6147 97.1084 34.1102 97.5214 33.5542C98.0092 32.9275 98.4793 32.2367 98.9457 31.5246C99.4122 30.8125 99.8359 30.0683 100.256 29.3134C100.676 28.5585 101.104 27.7787 101.481 27.0594L101.502 27.0203C101.786 26.5476 102.238 26.1991 102.767 26.0443C103.296 25.8895 103.864 25.9396 104.358 26.1848C104.852 26.4299 105.235 26.8521 105.432 27.3672C105.629 27.8823 105.624 28.4525 105.419 28.9644L105.437 28.9751Z" fill="#7F3E3B"/>
<path d="M106.313 22.7509C102.061 23.2351 98.8354 29.8189 98.8354 29.8189L103.222 34.4871C103.222 34.4871 105.177 32.1583 107.278 29.2136C109.571 26.0054 109.678 22.3699 106.313 22.7509Z" fill="#FFCA40"/>
<path d="M105.79 23.7373C107.424 23.1569 114.745 24.0933 114.745 24.0933C113.321 25.9307 112.131 41.1457 112 49.8909C110.443 50.1046 104.476 49.6951 103.098 49.3746C103.276 45.942 104.707 29.8404 105.79 23.7373Z" fill="white"/>
<path d="M101.064 28.352C101.256 26.7697 102.023 25.3131 103.218 24.2589C104.414 23.2046 105.955 22.6262 107.548 22.6334C110.607 22.6579 113.656 22.9943 116.646 23.6376C117.112 23.7361 117.553 23.9271 117.944 24.1992C118.335 24.4713 118.667 24.819 118.921 25.2217C119.175 25.6244 119.345 26.0739 119.422 26.5437C119.5 27.0135 119.482 27.494 119.37 27.9567C117.116 37.4105 117.711 46.38 117.109 50.5532C114.964 51.342 112.685 51.7049 110.401 51.6214C110.401 51.6214 110.454 48.0215 110.956 41.9433C111.355 37.1114 112.071 25.7491 113.545 23.8619C113.545 23.8619 108.261 23.1497 106.626 23.723C105.412 30.5774 104.522 51.3401 104.522 51.3437C101.937 51.1585 100.719 49.72 100.758 49.2927C100.235 40.8929 100.498 33.2765 101.064 28.352Z" fill="#FFCA40"/>
<path d="M113.734 17.8371C113.239 19.2614 112.665 21.786 113.58 23.2031C113.627 23.269 113.658 23.3443 113.672 23.4237C113.686 23.503 113.682 23.5845 113.66 23.6621C113.639 23.7398 113.6 23.8117 113.548 23.8727C113.495 23.9337 113.43 23.9823 113.356 24.015C111.885 24.8634 110.185 25.2295 108.496 25.0618C106.199 24.8767 106.359 23.8405 106.95 23.1675C107.09 23.0121 107.283 22.9154 107.492 22.8969C109.66 22.637 109.681 21.3302 109.368 20.0483L113.734 17.8371Z" fill="#7F3E3B"/>
<path opacity="0.2" d="M111.953 18.7451L109.371 20.059C109.453 20.3624 109.5 20.6742 109.51 20.9883C110.45 20.9883 111.782 20.3581 111.935 19.6352C112.014 19.3444 112.02 19.0388 111.953 18.7451Z" fill="black"/>
<path d="M110.291 12.8864C110.388 11.602 109.689 10.502 108.73 10.4296C107.771 10.3572 106.915 11.3397 106.818 12.6241C106.721 13.9085 107.42 15.0085 108.379 15.0809C109.338 15.1534 110.194 14.1709 110.291 12.8864Z" fill="#263238"/>
<path d="M115.129 13.9452C114.652 16.7546 114.513 18.4246 112.954 19.7314C110.607 21.6934 107.314 20.0341 106.957 17.1392C106.633 14.5363 107.467 10.3738 110.308 9.53343C113.15 8.6931 115.607 11.1322 115.129 13.9452Z" fill="#7F3E3B"/>
<path d="M114.517 16.3202C114.482 16.3202 114.439 16.2739 114.4 16.2953C113.125 17.0074 112.712 15.4763 112.79 14.4579C112.816 14.1182 112.914 13.7878 113.077 13.4884C113.239 13.189 113.463 12.9272 113.734 12.7203C112.352 12.877 111.013 11.9868 110.992 11.1571C109.464 11.8301 107.624 11.8693 106.794 10.445C105.964 9.02068 107.15 7.15842 108.731 7.65336C108.09 6.5068 110.8 4.21368 113.638 7.59639C113.727 5.14304 117.693 7.59639 117.042 10.007C118.879 10.6408 120.453 14.1303 117.337 14.8745C117.131 18.1077 114.517 16.3202 114.517 16.3202Z" fill="#263238"/>
<path d="M116.02 17.2034C115.588 17.7325 114.972 18.0786 114.296 18.1719C113.442 18.268 113.253 17.3992 113.691 16.6087C114.086 15.8966 115.005 14.9921 115.767 15.2699C116.529 15.5476 116.575 16.5268 116.02 17.2034Z" fill="#7F3E3B"/>
<path d="M111.056 14.1555C111.035 14.3907 110.896 14.5653 110.743 14.551C110.589 14.5368 110.483 14.3373 110.504 14.1021C110.525 13.867 110.664 13.6959 110.817 13.7102C110.971 13.7244 111.074 13.924 111.056 14.1555Z" fill="#263238"/>
<path d="M108.297 13.8493C108.275 14.0809 108.136 14.2555 107.983 14.2413C107.83 14.227 107.727 14.0275 107.744 13.7959C107.762 13.5643 107.905 13.3861 108.058 13.4004C108.211 13.4146 108.332 13.6142 108.297 13.8493Z" fill="#263238"/>
<path d="M109.375 13.9808C109.035 14.6634 108.602 15.296 108.09 15.8608C108.237 15.9896 108.411 16.0847 108.6 16.1394C108.788 16.1941 108.986 16.2072 109.179 16.1778L109.375 13.9808Z" fill="#630F0F"/>
<path d="M109.899 17.3101C110.157 17.3282 110.417 17.2937 110.662 17.2086C110.906 17.1236 111.131 16.9897 111.323 16.8151C111.329 16.8086 111.334 16.8009 111.338 16.7924C111.341 16.7839 111.343 16.7749 111.342 16.7658C111.342 16.7567 111.34 16.7477 111.337 16.7394C111.333 16.7311 111.328 16.7235 111.321 16.7172C111.315 16.7109 111.307 16.7059 111.298 16.7026C111.29 16.6993 111.281 16.6977 111.272 16.6978C111.263 16.698 111.254 16.6999 111.245 16.7036C111.237 16.7072 111.23 16.7124 111.223 16.719C111.006 16.9109 110.747 17.0486 110.467 17.121C110.186 17.1935 109.893 17.1984 109.61 17.1356C109.602 17.1335 109.593 17.1333 109.584 17.1349C109.575 17.1365 109.567 17.14 109.559 17.145C109.552 17.15 109.546 17.1565 109.541 17.1641C109.536 17.1717 109.533 17.1802 109.532 17.189C109.529 17.2069 109.532 17.2253 109.542 17.2406C109.552 17.2558 109.568 17.2667 109.585 17.2709C109.699 17.2887 109.799 17.303 109.899 17.3101Z" fill="#263238"/>
<path d="M111.968 13.5897C111.99 13.5949 112.013 13.5949 112.036 13.5897C112.052 13.5824 112.067 13.5719 112.08 13.5588C112.092 13.5456 112.102 13.5301 112.108 13.5132C112.114 13.4962 112.117 13.4782 112.116 13.4601C112.116 13.4421 112.111 13.4244 112.103 13.408C112.02 13.2065 111.89 13.0275 111.724 12.8857C111.558 12.7439 111.361 12.6433 111.149 12.5921C111.113 12.587 111.076 12.596 111.047 12.6173C111.018 12.6386 110.998 12.6705 110.992 12.7061C110.987 12.742 110.996 12.7784 111.017 12.8077C111.038 12.837 111.07 12.8568 111.106 12.8629C111.273 12.906 111.428 12.9878 111.558 13.1017C111.688 13.2155 111.789 13.3583 111.854 13.5185C111.866 13.5386 111.882 13.5556 111.902 13.568C111.922 13.5804 111.945 13.5879 111.968 13.5897Z" fill="#263238"/>
<path d="M107.139 12.7136C107.161 12.7195 107.184 12.72 107.207 12.715C107.229 12.71 107.25 12.6998 107.267 12.6851C107.394 12.57 107.547 12.4865 107.712 12.4413C107.877 12.3961 108.051 12.3905 108.219 12.425C108.253 12.4349 108.29 12.4307 108.322 12.4133C108.353 12.396 108.376 12.3668 108.386 12.3324C108.396 12.2974 108.392 12.2599 108.375 12.2279C108.357 12.196 108.328 12.1721 108.294 12.1613C108.082 12.1131 107.861 12.1167 107.651 12.1719C107.44 12.2271 107.247 12.3323 107.086 12.4784C107.073 12.491 107.063 12.506 107.056 12.5225C107.049 12.539 107.046 12.5568 107.046 12.5746C107.046 12.5925 107.049 12.6102 107.056 12.6268C107.063 12.6433 107.073 12.6583 107.086 12.6708C107.099 12.6897 107.118 12.7044 107.139 12.7136Z" fill="#263238"/>
<path d="M120.218 27.7644C120.449 28.2166 120.638 28.6083 120.823 29.032C121.008 29.4557 121.179 29.8652 121.364 30.2854C121.72 31.1257 122.03 31.9803 122.322 32.8456C122.916 34.5957 123.371 36.3899 123.682 38.2116L123.778 38.9238L123.828 39.2798V39.3653V39.522C123.828 39.6359 123.846 39.7499 123.846 39.878C123.832 40.5271 123.703 41.1685 123.465 41.7724C123.111 42.6945 122.659 43.5766 122.119 44.4037C121.629 45.1781 121.097 45.9257 120.527 46.6434C119.969 47.3578 119.375 48.0435 118.747 48.698C118.567 48.8889 118.324 49.0088 118.063 49.0358C117.801 49.0628 117.539 48.9951 117.323 48.845C117.108 48.695 116.953 48.4725 116.888 48.2181C116.822 47.9638 116.85 47.6943 116.967 47.4589V47.4304C117.704 45.8957 118.484 44.3432 119.103 42.8299C119.263 42.4525 119.406 42.075 119.53 41.7083C119.655 41.3658 119.758 41.0162 119.84 40.6614C119.898 40.4408 119.918 40.2122 119.901 39.9849L119.883 39.9136L119.815 39.6181L119.684 39.0306C119.273 37.4361 118.77 35.8667 118.177 34.3304C117.893 33.547 117.569 32.7744 117.255 31.9981C117.098 31.6136 116.931 31.229 116.764 30.848L116.265 29.737L116.237 29.673C115.987 29.1488 115.955 28.5468 116.148 27.9992C116.342 27.4516 116.745 27.0034 117.269 26.7531C117.794 26.5029 118.396 26.4711 118.943 26.6647C119.491 26.8584 119.939 27.2616 120.189 27.7858L120.218 27.7644Z" fill="#7F3E3B"/>
<path d="M117.013 23.7373C121.756 24.9337 123.066 30.9976 123.066 30.9976L117.177 35.2207C117.177 35.2207 115.717 33.6931 115.275 30.1039C115.072 28.3912 116.051 23.691 117.013 23.7373Z" fill="#FFCA40"/>
<path d="M117.743 46.704L115.001 47.7295L117.102 50.5425C117.102 50.5425 119.47 49.3141 119.021 47.9503L117.743 46.704Z" fill="#7F3E3B"/>
<path d="M112.961 48.1283C112.222 48.0042 111.464 48.0728 110.76 48.3277L112.12 40.2448C112.226 39.6137 112.076 38.9665 111.705 38.4453C111.334 37.924 110.771 37.5711 110.141 37.4639L86.4974 33.483C85.8673 33.3788 85.2215 33.5281 84.7012 33.8984C84.1808 34.2686 83.8281 34.8297 83.72 35.4592L82.3384 43.5599C83.0418 43.3016 83.8006 43.2329 84.5389 43.3605C85.1955 43.4706 85.818 43.7299 86.3585 44.1185C86.8991 44.507 87.3433 45.0144 87.657 45.6015C87.9707 46.1887 88.1454 46.84 88.1678 47.5054C88.1902 48.1707 88.0596 48.8323 87.7862 49.4392C87.5127 50.0462 87.1036 50.5823 86.5904 51.0063C86.0772 51.4303 85.4735 51.7308 84.8258 51.8849C84.1782 52.0389 83.5039 52.0423 82.8547 51.8947C82.2056 51.7472 81.5989 51.4527 81.0815 51.0339L79.7177 59.1167C79.6125 59.7479 79.7619 60.395 80.133 60.9163C80.5041 61.4376 81.0667 61.7905 81.6975 61.8977L105.341 65.8786C105.971 65.9829 106.617 65.8336 107.138 65.4634C107.659 65.0932 108.013 64.5321 108.122 63.9024L109.482 55.8159C110 56.2281 110.605 56.5166 111.252 56.6595C111.898 56.8024 112.569 56.796 113.212 56.6406C113.856 56.4852 114.455 56.185 114.965 55.7629C115.475 55.3408 115.882 54.8079 116.155 54.2048C116.428 53.6017 116.56 52.9442 116.54 52.2825C116.521 51.6207 116.35 50.9722 116.042 50.3862C115.734 49.8002 115.297 49.2922 114.763 48.901C114.229 48.5097 113.612 48.2454 112.961 48.1283Z" fill="#FFCA40"/>
<path opacity="0.6" d="M112.961 48.1283C112.222 48.0042 111.464 48.0728 110.76 48.3277L112.12 40.2448C112.226 39.6137 112.076 38.9665 111.705 38.4453C111.334 37.924 110.771 37.5711 110.141 37.4639L86.4974 33.483C85.8673 33.3788 85.2215 33.5281 84.7012 33.8984C84.1808 34.2686 83.8281 34.8297 83.72 35.4592L82.3384 43.5599C83.0418 43.3016 83.8006 43.2329 84.5389 43.3605C85.1955 43.4706 85.818 43.7299 86.3585 44.1185C86.8991 44.507 87.3433 45.0144 87.657 45.6015C87.9707 46.1887 88.1454 46.84 88.1678 47.5054C88.1902 48.1707 88.0596 48.8323 87.7862 49.4392C87.5127 50.0462 87.1036 50.5823 86.5904 51.0063C86.0772 51.4303 85.4735 51.7308 84.8258 51.8849C84.1782 52.0389 83.5039 52.0423 82.8547 51.8947C82.2056 51.7472 81.5989 51.4527 81.0815 51.0339L79.7177 59.1167C79.6125 59.7479 79.7619 60.395 80.133 60.9163C80.5041 61.4376 81.0667 61.7905 81.6975 61.8977L105.341 65.8786C105.971 65.9829 106.617 65.8336 107.138 65.4634C107.659 65.0932 108.013 64.5321 108.122 63.9024L109.482 55.8159C110 56.2281 110.605 56.5166 111.252 56.6595C111.898 56.8024 112.569 56.796 113.212 56.6406C113.856 56.4852 114.455 56.185 114.965 55.7629C115.475 55.3408 115.882 54.8079 116.155 54.2048C116.428 53.6017 116.56 52.9442 116.54 52.2825C116.521 51.6207 116.35 50.9722 116.042 50.3862C115.734 49.8002 115.297 49.2922 114.763 48.901C114.229 48.5097 113.612 48.2454 112.961 48.1283Z" fill="white"/>
<path d="M113.719 50.4926L114.62 51.3543C114.794 51.5211 115.021 51.6206 115.261 51.635C115.501 51.6494 115.738 51.5776 115.931 51.4327L117.102 50.5532L115.001 47.7402L113.701 49.0434C113.606 49.1388 113.53 49.2524 113.479 49.3775C113.428 49.5026 113.403 49.6367 113.404 49.7718C113.406 49.9069 113.435 50.0402 113.489 50.1641C113.543 50.2879 113.621 50.3996 113.719 50.4926Z" fill="#7F3E3B"/>
<path d="M87.3236 34.2414L87.6512 33.0272C87.706 32.8844 87.8042 32.7623 87.9319 32.678C88.0596 32.5937 88.2104 32.5515 88.3633 32.5572C88.8272 32.5383 89.2904 32.6096 89.7271 32.7673L91.5787 33.4509L91.4896 34.2058C91.4149 34.8539 90.692 35.3951 89.8731 35.42C89.3233 35.4273 88.7746 35.3688 88.2387 35.2455L88.0393 35.2028C87.9258 35.1948 87.8153 35.1624 87.7155 35.1078C87.6157 35.0531 87.5288 34.9776 87.4609 34.8863C87.3929 34.795 87.3455 34.6902 87.3218 34.5789C87.2981 34.4676 87.2987 34.3525 87.3236 34.2414Z" fill="#7F3E3B"/>
<path d="M58.1574 17.481C59.3431 16.1029 61.1271 12.5244 57.7728 11.1571C55.2981 10.1458 50.046 10.6621 47.0301 15.3588C44.9684 16.0709 44.3595 20.6571 49.1202 21.6221C53.881 22.5871 58.1574 17.481 58.1574 17.481Z" fill="#263238"/>
<path d="M68.9144 105.841L63.4736 106.293L64.3959 112.688L68.9429 112.318L68.9144 105.841Z" fill="#FFC3BD"/>
<path opacity="0.2" d="M68.9145 105.844L63.4701 106.297L63.99 109.879L68.9323 109.469L68.9145 105.844Z" fill="black"/>
<path d="M58.5137 87.0151C56.3773 78.8254 50.8439 69.0761 54.3512 61.1962L69.5948 61.1499C69.5948 61.1499 69.9722 77.3691 70.079 85.0069C70.1859 92.9936 69.52 108.02 69.52 108.02L63.2851 108.494C63.2851 108.494 59.0122 96.1983 58.5137 87.0151Z" fill="#FFCA40"/>
<path d="M62.9752 108.739L69.7122 108.244C69.7696 108.239 69.8235 108.214 69.864 108.173C69.9044 108.132 69.9289 108.077 69.9329 108.02L70.0754 105.527C70.0777 105.493 70.0724 105.458 70.0598 105.426C70.0472 105.394 70.0276 105.364 70.0024 105.341C69.9772 105.317 69.9471 105.299 69.9141 105.288C69.8812 105.277 69.8463 105.274 69.8119 105.278L62.3343 106.272C62.3003 106.275 62.2676 106.286 62.2384 106.304C62.2093 106.322 62.1845 106.346 62.1657 106.375C62.147 106.403 62.1349 106.436 62.1301 106.47C62.1254 106.504 62.1283 106.538 62.1385 106.571L62.7295 108.572C62.7461 108.623 62.7792 108.667 62.8237 108.698C62.8682 108.728 62.9215 108.743 62.9752 108.739Z" fill="#263238"/>
<path opacity="0.2" d="M54.2977 68.9478C54.2387 70.882 54.3172 72.818 54.5327 74.7411C55.2769 77.3155 56.2276 79.8935 57.0822 82.3932C58.2003 75.3144 58.2038 67.0642 54.2977 68.9478Z" fill="black"/>
<path d="M48.775 106.24L43.3128 106.293L43.3057 112.738L47.8705 112.702L48.775 106.24Z" fill="#FFC3BD"/>
<path d="M42.875 111.748C42.8804 111.712 42.8932 111.678 42.9127 111.647C42.9321 111.617 42.9577 111.59 42.9879 111.57C43.0181 111.55 43.0522 111.536 43.0879 111.53C43.1237 111.524 43.1603 111.526 43.1955 111.534C44.5664 112.079 47.1657 111.663 48.1485 111.474C48.257 111.451 48.3689 111.452 48.4773 111.474C48.5857 111.497 48.6883 111.542 48.7787 111.606C49.5826 112.121 50.4537 112.524 51.3674 112.802C51.5634 113.326 51.6127 113.894 51.5098 114.444H42.3018C42.5616 113.561 42.7532 112.66 42.875 111.748Z" fill="#263238"/>
<path d="M63.7942 111.748C63.7996 111.712 63.8124 111.678 63.8319 111.647C63.8513 111.617 63.8769 111.59 63.9071 111.57C63.9373 111.55 63.9714 111.536 64.0071 111.53C64.0429 111.524 64.0795 111.526 64.1147 111.534C65.4856 112.079 68.0849 111.663 69.0677 111.474C69.1762 111.451 69.2881 111.452 69.3965 111.474C69.5049 111.497 69.6075 111.542 69.6979 111.606C70.7448 112.346 73.5364 112.802 73.5364 112.802C73.7325 113.326 73.7805 113.894 73.6753 114.444H63.2209C63.4807 113.561 63.6724 112.66 63.7942 111.748Z" fill="#263238"/>
<path opacity="0.2" d="M48.775 106.243L43.3092 106.293L43.3057 109.903L48.2693 109.861L48.775 106.243Z" fill="black"/>
<path d="M42.5437 84.3659C41.8031 76.0943 39.4815 64.9528 42.1164 61.1499H59.9557C59.9557 61.1499 56.3202 77.6432 54.8282 85.2775C53.2793 93.2144 48.8248 108.454 48.8248 108.454L42.9176 108.472C42.9176 108.472 40.6779 93.809 42.5437 84.3659Z" fill="#FFCA40"/>
<path opacity="0.2" d="M43.6156 106.781C43.5772 106.78 43.54 106.767 43.5093 106.744C43.4786 106.721 43.456 106.689 43.4447 106.653C43.021 105.228 43.0886 88.8666 44.1568 84.3872C44.1568 83.7961 44.0322 82.6353 43.8898 81.1648C43.402 76.1797 42.4975 66.9218 43.8471 61.6697C43.8589 61.6225 43.8889 61.5819 43.9307 61.5568C43.9724 61.5318 44.0224 61.5244 44.0696 61.5362C44.1168 61.548 44.1574 61.5781 44.1825 61.6198C44.2075 61.6615 44.2149 61.7115 44.2031 61.7587C42.8679 66.9538 43.7687 76.1762 44.253 81.1327C44.399 82.6282 44.5165 83.8068 44.5236 84.405C44.5254 84.4204 44.5254 84.436 44.5236 84.4513C43.4981 88.6886 43.3984 105.175 43.8115 106.553C43.8248 106.598 43.82 106.646 43.798 106.687C43.776 106.729 43.7386 106.76 43.694 106.774C43.6691 106.783 43.6419 106.786 43.6156 106.781Z" fill="white"/>
<path d="M42.5081 108.693H49.1987C49.2522 108.694 49.3044 108.677 49.3457 108.642C49.3869 108.608 49.4144 108.561 49.423 108.508L49.8646 106.133C49.8709 106.097 49.8692 106.06 49.8595 106.025C49.8498 105.989 49.8324 105.957 49.8085 105.929C49.7847 105.902 49.7549 105.88 49.7215 105.865C49.6881 105.85 49.6518 105.843 49.6153 105.844L42.33 106.168C42.2993 106.169 42.2691 106.176 42.2412 106.189C42.2133 106.202 42.1884 106.221 42.1681 106.244C42.1477 106.267 42.1323 106.294 42.1228 106.323C42.1133 106.352 42.1099 106.383 42.1128 106.414L42.2624 108.465C42.2677 108.527 42.2958 108.584 42.3412 108.626C42.3867 108.669 42.4461 108.692 42.5081 108.693Z" fill="#263238"/>
<path d="M66.0162 32.3399C66.3722 33.7642 66.6998 35.1885 67.0167 36.6128C67.3336 38.0371 67.6327 39.4614 67.9105 40.8857L68.3378 43.0221L68.7366 45.1586C69.0108 46.5829 69.2529 48.0285 69.5021 49.4671L68.9217 48.1674C68.9993 48.4338 69.1666 48.6653 69.3953 48.8226C69.8511 49.1305 70.3648 49.3425 70.9051 49.4457C71.6253 49.612 72.3598 49.7085 73.0985 49.7341C73.4937 49.7555 73.8997 49.7697 74.3091 49.7626C74.5121 49.7626 74.7186 49.7626 74.9251 49.7626C75.1317 49.7626 75.356 49.7626 75.4984 49.7626L76.0041 49.7982C76.4295 49.8255 76.8345 49.9904 77.1581 50.268C77.4816 50.5456 77.7062 50.9209 77.7978 51.3372C77.8894 51.7536 77.8432 52.1885 77.6661 52.5763C77.489 52.9641 77.1906 53.2837 76.8159 53.4871C76.531 53.6438 76.3281 53.7613 76.086 53.8859C75.8438 54.0106 75.6195 54.1174 75.3738 54.242C74.8967 54.4485 74.4088 54.6444 73.9032 54.8082C73.3901 54.9763 72.8683 55.1165 72.34 55.2283C71.7837 55.3392 71.2213 55.4177 70.6558 55.4633C70.0449 55.5069 69.4313 55.4974 68.822 55.4349C68.1448 55.378 67.4774 55.2369 66.8351 55.0147C66.1147 54.7746 65.4305 54.4368 64.802 54.0106C64.1391 53.5514 63.5486 52.9957 63.0501 52.3619C62.835 52.0946 62.6752 51.7872 62.5801 51.4575L62.4697 51.0623C62.078 49.6593 61.6756 48.26 61.3053 46.8499L60.7392 44.742L60.2015 42.6269C59.8454 41.2026 59.4893 39.7996 59.1653 38.3825C58.8413 36.9653 58.5173 35.5339 58.236 34.1096C58.0344 33.0904 58.2385 32.0328 58.8048 31.1618C59.3712 30.2908 60.2551 29.6753 61.2684 29.4461C62.2817 29.2169 63.3445 29.3921 64.2305 29.9346C65.1166 30.477 65.7559 31.3439 66.0126 32.3506L66.0162 32.3399Z" fill="#FFC3BD"/>
<path d="M75.2493 50.1151L75.324 52.4153C76.2534 54.6479 78.9168 52.953 78.9168 52.953L80.5263 52.6575C80.8065 52.5861 81.0524 52.4179 81.2206 52.1827C81.3887 51.9474 81.4682 51.6603 81.445 51.372L81.4022 49.7626C81.413 49.4304 81.2936 49.1071 81.0694 48.8616C80.8453 48.6162 80.5341 48.468 80.2023 48.4487L78.778 48.4772C78.3623 48.4843 77.9549 48.5944 77.5922 48.7976L75.2493 50.1151Z" fill="#FFC3BD"/>
<path d="M63.2887 28.3732C66.5646 30.0966 68.7046 36.1784 68.7046 36.1784C68.0138 39.027 65.2293 44.2221 62.6513 44.1901C62.6513 44.1901 58.8662 39.3083 58.4568 35.776C57.9583 31.5067 56.6657 24.8908 63.2887 28.3732Z" fill="#263238"/>
<path d="M60.2618 27.362C55.2062 26.8813 50.113 26.9625 45.0753 27.6041C42.1626 28.0136 40.0902 29.826 40.4463 35.7938C41.1584 47.9003 40.0546 57.3363 41.5929 61.6875C41.5929 61.6875 63.997 68.0968 70.385 61.9546C71.9375 47.3876 66.7103 35.2953 64.3318 30.264C63.9593 29.4718 63.3893 28.7887 62.6765 28.2805C61.9637 27.7722 61.1322 27.4559 60.2618 27.362Z" fill="#263238"/>
<path d="M58.5776 28.6866C57.9972 28.1169 57.3883 28.448 57.107 27.5899C56.983 26.9162 57.0962 26.2204 57.4275 25.6208L50.5161 21.8892C50.6514 24.4315 50.7547 26.4398 49.6259 27.451C49.2983 29.3453 52.8306 31.2361 57.5343 31.2646C60.5289 31.2824 59.4144 29.5056 58.5776 28.6866Z" fill="#FFC3BD"/>
<path opacity="0.2" d="M57.3243 25.8345L51.8693 24.4707C53.2473 26.6392 55.7291 27.8249 57.0644 27.3015C57.0262 26.7984 57.1156 26.2938 57.3243 25.8345Z" fill="black"/>
<path d="M55.0669 13.3932C51.4564 12.592 48.3371 15.5902 49.0351 18.8589C49.733 22.1277 50.2849 24.3354 52.5459 25.4463C57.0396 27.6611 59.233 25.5246 59.5998 22.1099C59.9309 19.0334 58.731 14.2015 55.0669 13.3932Z" fill="#FFC3BD"/>
<path opacity="0.2" d="M54.359 19.1972C53.9345 19.091 53.4851 19.1563 53.1084 19.379C53.5332 19.4014 53.9582 19.3396 54.359 19.1972Z" fill="black"/>
<path opacity="0.2" d="M54.3838 19.4998C54.1841 19.4905 53.9849 19.5252 53.8001 19.6016C53.6154 19.6779 53.4497 19.794 53.3149 19.9417C53.6991 19.8737 54.0638 19.723 54.3838 19.4998Z" fill="black"/>
<path d="M49.4907 21.6221C51.5097 22.0743 52.3393 21.0631 52.3393 19.9307C52.3393 18.7272 51.2034 16.694 49.9572 16.3202C50.4023 13.6496 57.7623 17.3884 57.0609 13.6888C57.0609 13.6888 56.8615 13.055 54.96 12.6989C53.0586 12.3428 47.9774 13.4894 48.3335 17.2887C48.6896 21.088 49.4907 21.6221 49.4907 21.6221Z" fill="#263238"/>
<path d="M46.9199 15.5474C47.4141 14.5558 47.5536 13.4248 47.3152 12.3428C47.3152 12.3428 49.5299 13.8062 46.9199 15.5474Z" fill="#263238"/>
<path d="M56.2064 22.6369C56.3574 22.6255 56.5073 22.6029 56.655 22.5692C56.6665 22.5667 56.6774 22.5619 56.687 22.5552C56.6966 22.5484 56.7048 22.5398 56.7111 22.5299C56.7174 22.52 56.7217 22.5089 56.7236 22.4973C56.7256 22.4857 56.7253 22.4738 56.7227 22.4624C56.7206 22.4506 56.7161 22.4395 56.7095 22.4296C56.7029 22.4197 56.6943 22.4113 56.6842 22.4049C56.6742 22.3986 56.6629 22.3944 56.6511 22.3926C56.6393 22.3908 56.6273 22.3916 56.6158 22.3947C56.2461 22.4849 55.8603 22.4875 55.4894 22.4022C55.1185 22.3168 54.7726 22.146 54.4794 21.9033C54.4711 21.8947 54.4611 21.8879 54.4501 21.8832C54.4391 21.8785 54.4273 21.8761 54.4153 21.8761C54.4033 21.8761 54.3915 21.8785 54.3805 21.8832C54.3695 21.8879 54.3595 21.8947 54.3512 21.9033C54.3347 21.9206 54.3254 21.9435 54.3254 21.9674C54.3254 21.9913 54.3347 22.0143 54.3512 22.0315C54.6049 22.2503 54.8996 22.4165 55.218 22.5204C55.5365 22.6243 55.8725 22.6639 56.2064 22.6369Z" fill="#263238"/>
<path d="M48.2125 21.7788C48.4435 22.092 48.7342 22.3565 49.0679 22.5569C49.4016 22.7573 49.7716 22.8898 50.1566 22.9467C51.1928 23.0891 51.5809 22.1313 51.1821 21.2269C50.826 20.4114 49.8575 19.3575 48.8748 19.6281C47.892 19.8987 47.6499 20.999 48.2125 21.7788Z" fill="#FFC3BD"/>
<path d="M54.9458 19.2332C54.9886 19.5218 55.1739 19.7356 55.3627 19.7071C55.5515 19.6786 55.6727 19.4185 55.6299 19.1299C55.5872 18.8413 55.4055 18.6311 55.2166 18.6596C55.0278 18.6881 54.9209 18.9304 54.9458 19.2332Z" fill="#263238"/>
<path d="M58.3392 18.7774C58.3819 19.0695 58.5672 19.2797 58.756 19.2512C58.9449 19.2227 59.066 18.9662 59.0232 18.6776C58.9805 18.389 58.7988 18.1752 58.6099 18.2037C58.4211 18.2322 58.3 18.4888 58.3392 18.7774Z" fill="#263238"/>
<path d="M57.0574 19.1581L57.2212 21.6007C57.2212 21.6007 58.0223 21.7396 58.4567 21.2767C58.181 20.4616 57.6989 19.7317 57.0574 19.1581Z" fill="#ED847E"/>
<path d="M53.8279 18.5749C53.7987 18.5829 53.7679 18.5828 53.7388 18.5746C53.7097 18.5665 53.6833 18.5506 53.6625 18.5287C53.6417 18.5068 53.6272 18.4796 53.6205 18.4501C53.6139 18.4206 53.6154 18.3899 53.6248 18.3612C53.6926 18.0963 53.8222 17.8513 54.0031 17.6463C54.1839 17.4413 54.4108 17.2821 54.6652 17.1818C54.7082 17.1684 54.7547 17.1724 54.7948 17.1931C54.8348 17.2138 54.8651 17.2494 54.879 17.2923C54.8925 17.3357 54.8886 17.3828 54.8679 17.4234C54.8473 17.464 54.8116 17.495 54.7685 17.5096C54.5677 17.5915 54.3891 17.7197 54.2473 17.8838C54.1055 18.0479 54.0045 18.2432 53.9526 18.4538C53.9445 18.4833 53.9287 18.5101 53.9068 18.5314C53.8848 18.5527 53.8576 18.5677 53.8279 18.5749Z" fill="#263238"/>
<path d="M59.4545 17.4815C59.4264 17.4841 59.398 17.4793 59.3724 17.4674C59.3467 17.4555 59.3247 17.437 59.3085 17.4139C59.1865 17.2369 59.0238 17.0918 58.834 16.9907C58.6443 16.8896 58.4331 16.8356 58.2182 16.8331C58.1709 16.8331 58.1256 16.8143 58.0922 16.7809C58.0588 16.7475 58.04 16.7022 58.04 16.6549C58.04 16.6077 58.0588 16.5624 58.0922 16.529C58.1256 16.4956 58.1709 16.4768 58.2182 16.4768C58.4896 16.4746 58.7575 16.5383 58.9989 16.6624C59.2403 16.7866 59.448 16.9674 59.6042 17.1894C59.6173 17.2076 59.6267 17.2283 59.6318 17.2502C59.6369 17.272 59.6377 17.2947 59.634 17.3169C59.6304 17.339 59.6224 17.3603 59.6106 17.3794C59.5987 17.3984 59.5832 17.415 59.565 17.4281C59.5512 17.4441 59.5343 17.4572 59.5153 17.4664C59.4963 17.4756 59.4756 17.4807 59.4545 17.4815Z" fill="#263238"/>
<path d="M80.202 40.7682C79.4566 40.8207 78.7375 41.0661 78.1155 41.4803L77.471 33.2906C77.4183 32.6535 77.1158 32.0632 76.6295 31.6483C76.1432 31.2334 75.5126 31.0276 74.8752 31.0758L50.9719 32.9594C50.3352 33.0131 49.7454 33.3158 49.3307 33.8019C48.916 34.2879 48.7099 34.918 48.7571 35.5552L50.6443 59.4585C50.6952 60.0963 50.9972 60.6878 51.4839 61.103C51.9706 61.5183 52.6023 61.7234 53.2401 61.6733L77.1398 59.7861C77.7775 59.7343 78.3688 59.4322 78.7844 58.9458C79.2001 58.4594 79.4064 57.8283 79.3582 57.1903L78.7101 49.0184C79.3887 49.3364 80.1388 49.4714 80.8857 49.4101C81.9586 49.2295 82.9249 48.6535 83.5941 47.7958C84.2633 46.938 84.5869 45.8606 84.5011 44.7761C84.4153 43.6915 83.9263 42.6784 83.1306 41.9365C82.3348 41.1947 81.29 40.7778 80.202 40.7682Z" fill="#FFCA40"/>
<path d="M45.5419 37.4994L45.1858 38.1545L44.7763 38.8881C44.5128 39.3866 44.2422 39.8851 43.9965 40.3907C43.5028 41.3759 43.0606 42.3862 42.6719 43.4173C42.4832 43.9158 42.3158 44.4108 42.1912 44.8986C42.049 45.3656 41.9372 45.8414 41.8565 46.3229C41.7071 47.0973 41.6818 47.8906 41.7817 48.673L40.9627 47.2487C41.3037 47.7163 41.7102 48.1325 42.1698 48.4843C42.774 48.9664 43.4078 49.41 44.0677 49.8124C44.7549 50.2539 45.492 50.6777 46.2326 51.1014L47.365 51.7316C47.721 51.9453 48.1483 52.1589 48.4866 52.3655L48.6575 52.4687C49.0355 52.6978 49.3277 53.0448 49.4891 53.4563C49.6505 53.8678 49.6722 54.3209 49.5507 54.7459C49.4293 55.1709 49.1715 55.5442 48.8171 55.8083C48.4627 56.0724 48.0313 56.2127 47.5893 56.2075C47.048 56.2075 46.5852 56.1719 46.0866 56.1327C45.5881 56.0936 45.1146 56.033 44.6303 55.9547C43.6461 55.8069 42.6721 55.5976 41.7141 55.328C40.7001 55.0438 39.7116 54.6758 38.7586 54.2277C37.6322 53.7089 36.5969 53.0115 35.6928 52.1625C35.3675 51.8523 35.1231 51.4672 34.9807 51.0409L34.881 50.7346C34.3234 49.0435 34.1151 47.2567 34.2685 45.4826C34.3895 43.9371 34.6858 42.4104 35.1516 40.9319C35.5854 39.5427 36.1234 38.1881 36.7611 36.8798C37.0709 36.2389 37.3878 35.6051 37.7438 34.989C37.9183 34.6793 38.0999 34.3695 38.2851 34.0633L38.577 33.6004L38.7302 33.3653L38.9153 33.0912C39.4874 32.2256 40.3745 31.6173 41.3881 31.3956C42.4016 31.1739 43.4617 31.3563 44.3429 31.904C45.2241 32.4517 45.8568 33.3216 46.1067 34.3286C46.3565 35.3356 46.2037 36.4003 45.6807 37.2964L45.5419 37.4994Z" fill="#FFC3BD"/>
<path d="M42.761 28.3732C36.8573 31.528 34.6567 38.5747 34.6567 38.5747C35.8247 40.8002 42.8678 43.2037 45.517 42.5485C45.517 42.5485 48.0558 37.9196 48.5792 33.782C49.0635 29.9471 46.2185 26.5252 42.761 28.3732Z" fill="#263238"/>
<path d="M46.8912 52.7572L47.0123 55.0574C47.9879 57.2722 50.6158 55.5239 50.6158 55.5239L52.2217 55.1963C52.5002 55.1195 52.7425 54.9464 52.9055 54.7078C53.0685 54.4692 53.1416 54.1805 53.1119 53.8931L53.0406 52.2872C53.0494 51.9529 52.9268 51.6284 52.6991 51.3835C52.4715 51.1385 52.1569 50.9925 51.8229 50.9768L50.3986 51.0338C49.9822 51.0528 49.5772 51.1752 49.22 51.3899L46.8912 52.7572Z" fill="#FFC3BD"/>
</svg>
